<svg xmlns="http://www.w3.org/2000/svg" xmlns:xlink="http://www.w3.org/1999/xlink" contentStyleType="text/css" data-diagram-type="CLASS" height="236px" preserveAspectRatio="none" style="width:263px;height:236px;background:#FFFFFF;" version="1.1" viewBox="0 0 263 236" width="263px" zoomAndPan="magnify"><?plantuml 1.2026.3?><defs/><g><!--cluster Dataset--><g class="cluster" data-qualified-name="Dataset" data-source-line="17" id="ent0002"><path d="M6,16 C6,6 122,6 122,6 C122,6 238,6 238,16 L238,201.84 C238,211.84 122,211.84 122,211.84 C122,211.84 6,211.84 6,201.84 L6,16" fill="#FFF8DC" style="stroke:#181818;stroke-width:1;"/><path d="M6,16 C6,26 122,26 122,26 C122,26 238,26 238,16" fill="none" style="stroke:#181818;stroke-width:1;"/><text fill="#000000" font-family="sans-serif" font-size="14" font-weight="700" lengthAdjust="spacing" textLength="61.7285" x="91.1357" y="40.9951">Dataset</text></g><!--class Identity--><g class="entity" data-qualified-name="Dataset.Identity" data-source-line="18" id="ent0003"><rect fill="#FFFFFF" height="27.4609" rx="2.5" ry="2.5" style="stroke:#000000;stroke-width:0.5;" width="200" x="22" y="56"/><text fill="#000000" font-family="sans-serif" font-size="15" lengthAdjust="spacing" textLength="57.4878" x="93.2561" y="74.9233">Identity</text></g><!--class Metadata--><g class="entity" data-qualified-name="Dataset.Metadata" data-source-line="19" id="ent0004"><rect fill="#FFFFFF" height="27.4609" rx="2.5" ry="2.5" style="stroke:#000000;stroke-width:0.5;" width="200" x="22" y="93.46"/><text fill="#000000" font-family="sans-serif" font-size="15" lengthAdjust="spacing" textLength="71.0303" x="86.4849" y="112.3833">Metadata</text></g><!--class Checkpoints--><g class="entity" data-qualified-name="Dataset.Checkpoints" data-source-line="20" id="ent0005"><rect fill="#FFFFFF" height="27.4609" rx="2.5" ry="2.5" style="stroke:#000000;stroke-width:0.5;" width="200" x="22" y="130.92"/><text fill="#000000" font-family="sans-serif" font-size="15" lengthAdjust="spacing" textLength="92.2119" x="75.894" y="149.8433">Checkpoints</text></g><!--class Data--><g class="entity" data-qualified-name="Dataset.Data" data-source-line="21" id="ent0006"><rect fill="#90EE90" height="27.4609" rx="2.5" ry="2.5" style="stroke:#000000;stroke-width:0.5;" width="200" x="22" y="168.38"/><text fill="#000000" font-family="sans-serif" font-size="15" lengthAdjust="spacing" textLength="35.8154" x="104.0923" y="187.3033">Data</text></g><!--link Identity to Metadata--><!--link Metadata to Checkpoints--><!--link Checkpoints to Data--><?plantuml-src PL2zQWCn3Dxz58BEWQJGfUDTANJer253oU2pnLdO9n-sEYGbxzxp9G4ryMHzlqA1F8AZuXAQqFuupNA42QS1IpMcHkBP5Zk1IxRMzypoHIU4tOkY9kA-iNlo4k1vkrKSPuyLPzXfi5YE3-0QqUNYiVGvvG9TiYxg5TwisC5Mx1PyBFc7_KNOvyALKdnO5tuDB6-uq-y32HfpDiPV4zVeYd8rNCmV7bb8ZWhwHB7Dew0-e8jp9fQgq9O7JwtuDT4OP2o8R5R1BHOsc-_bvCjq-9zx6xJWlaNDMjPgpVaF?></g></svg>