<?xml version="1.0" encoding="UTF-8" standalone="no"?><svg xmlns="http://www.w3.org/2000/svg" xmlns:xlink="http://www.w3.org/1999/xlink" contentScriptType="application/ecmascript" contentStyleType="text/css" height="221px" preserveAspectRatio="none" style="width:658px;height:221px;" version="1.1" viewBox="0 0 658 221" width="658px" zoomAndPan="magnify"><defs/><g><text fill="#000000" font-family="sans-serif" font-size="12" lengthAdjust="spacingAndGlyphs" textLength="271" x="16" y="17.1387">ca.vancouver.opendata.property.tax-report</text><text fill="#008000" font-family="sans-serif" font-size="12" lengthAdjust="spacingAndGlyphs" textLength="66" x="309" y="17.1387">Dataset ID</text><text fill="#000000" font-family="sans-serif" font-size="12" lengthAdjust="spacingAndGlyphs" textLength="32" x="26" y="31.1074">meta</text><text fill="#008000" font-family="sans-serif" font-size="12" lengthAdjust="spacingAndGlyphs" textLength="285" x="309" y="31.1074">All metadata should use FlatBuffers encoding</text><text fill="#000000" font-family="sans-serif" font-size="12" lengthAdjust="spacingAndGlyphs" textLength="40" x="36" y="45.0762">blocks</text><text fill="#000000" font-family="sans-serif" font-size="12" lengthAdjust="spacingAndGlyphs" textLength="68" x="46" y="59.0449">1fde...4d2f</text><text fill="#008000" font-family="sans-serif" font-size="12" lengthAdjust="spacingAndGlyphs" textLength="342" x="309" y="59.0449">Metadata blocks are named according to their hashes</text><text fill="#000000" font-family="sans-serif" font-size="12" lengthAdjust="spacingAndGlyphs" textLength="72" x="46" y="73.0137">a4fe...a803</text><text fill="#000000" font-family="sans-serif" font-size="12" lengthAdjust="spacingAndGlyphs" textLength="12" x="46" y="86.9824">...</text><text fill="#000000" font-family="sans-serif" font-size="12" lengthAdjust="spacingAndGlyphs" textLength="24" x="36" y="100.9512">refs</text><text fill="#000000" font-family="sans-serif" font-size="12" lengthAdjust="spacingAndGlyphs" textLength="32" x="46" y="114.9199">head</text><text fill="#008000" font-family="sans-serif" font-size="12" lengthAdjust="spacingAndGlyphs" textLength="273" x="309" y="114.9199">Contains hash of the last block in the chain</text><text fill="#000000" font-family="sans-serif" font-size="12" lengthAdjust="spacingAndGlyphs" textLength="12" x="46" y="128.8887">...</text><text fill="#000000" font-family="sans-serif" font-size="12" lengthAdjust="spacingAndGlyphs" textLength="69" x="26" y="142.8574">checkpoint</text><text fill="#000000" font-family="sans-serif" font-size="12" lengthAdjust="spacingAndGlyphs" textLength="12" x="36" y="156.8262">...</text><text fill="#008000" font-family="sans-serif" font-size="12" lengthAdjust="spacingAndGlyphs" textLength="311" x="309" y="156.8262">Checkpoints contain opaque engine-specific data</text><text fill="#000000" font-family="sans-serif" font-size="12" lengthAdjust="spacingAndGlyphs" textLength="29" x="26" y="170.7949">data</text><text fill="#000000" font-family="sans-serif" font-size="12" lengthAdjust="spacingAndGlyphs" textLength="263" x="36" y="184.7637">2020-01-01T120000000Z.snappy.parquet</text><text fill="#008000" font-family="sans-serif" font-size="12" lengthAdjust="spacingAndGlyphs" textLength="184" x="309" y="184.7637">Part files containing raw data</text><text fill="#000000" font-family="sans-serif" font-size="12" lengthAdjust="spacingAndGlyphs" textLength="263" x="36" y="198.7324">2020-01-02T120000000Z.snappy.parquet</text><text fill="#000000" font-family="sans-serif" font-size="12" lengthAdjust="spacingAndGlyphs" textLength="12" x="36" y="212.7012">...</text><rect fill="none" height="2" style="stroke: #888888; stroke-width: 1.0;" width="2" x="9" y="11.9844"/><rect fill="none" height="2" style="stroke: #888888; stroke-width: 1.0;" width="2" x="19" y="25.9531"/><line style="stroke: #888888; stroke-width: 1.0;" x1="10" x2="10" y1="14.9844" y2="26.9531"/><line style="stroke: #888888; stroke-width: 1.0;" x1="10" x2="18" y1="26.9531" y2="26.9531"/><rect fill="none" height="2" style="stroke: #888888; stroke-width: 1.0;" width="2" x="29" y="39.9219"/><line style="stroke: #888888; stroke-width: 1.0;" x1="20" x2="20" y1="28.9531" y2="40.9219"/><line style="stroke: #888888; stroke-width: 1.0;" x1="20" x2="28" y1="40.9219" y2="40.9219"/><line style="stroke: #888888; stroke-width: 1.0;" x1="30" x2="30" y1="42.9219" y2="54.8906"/><line style="stroke: #888888; stroke-width: 1.0;" x1="30" x2="38" y1="54.8906" y2="54.8906"/><line style="stroke: #888888; stroke-width: 1.0;" x1="30" x2="30" y1="42.9219" y2="68.8594"/><line style="stroke: #888888; stroke-width: 1.0;" x1="30" x2="38" y1="68.8594" y2="68.8594"/><line style="stroke: #888888; stroke-width: 1.0;" x1="30" x2="30" y1="42.9219" y2="82.8281"/><line style="stroke: #888888; stroke-width: 1.0;" x1="30" x2="38" y1="82.8281" y2="82.8281"/><rect fill="none" height="2" style="stroke: #888888; stroke-width: 1.0;" width="2" x="29" y="95.7969"/><line style="stroke: #888888; stroke-width: 1.0;" x1="20" x2="20" y1="28.9531" y2="96.7969"/><line style="stroke: #888888; stroke-width: 1.0;" x1="20" x2="28" y1="96.7969" y2="96.7969"/><line style="stroke: #888888; stroke-width: 1.0;" x1="30" x2="30" y1="98.7969" y2="110.7656"/><line style="stroke: #888888; stroke-width: 1.0;" x1="30" x2="38" y1="110.7656" y2="110.7656"/><line style="stroke: #888888; stroke-width: 1.0;" x1="30" x2="30" y1="98.7969" y2="124.7344"/><line style="stroke: #888888; stroke-width: 1.0;" x1="30" x2="38" y1="124.7344" y2="124.7344"/><rect fill="none" height="2" style="stroke: #888888; stroke-width: 1.0;" width="2" x="19" y="137.7031"/><line style="stroke: #888888; stroke-width: 1.0;" x1="10" x2="10" y1="14.9844" y2="138.7031"/><line style="stroke: #888888; stroke-width: 1.0;" x1="10" x2="18" y1="138.7031" y2="138.7031"/><line style="stroke: #888888; stroke-width: 1.0;" x1="20" x2="20" y1="140.7031" y2="152.6719"/><line style="stroke: #888888; stroke-width: 1.0;" x1="20" x2="28" y1="152.6719" y2="152.6719"/><rect fill="none" height="2" style="stroke: #888888; stroke-width: 1.0;" width="2" x="19" y="165.6406"/><line style="stroke: #888888; stroke-width: 1.0;" x1="10" x2="10" y1="14.9844" y2="166.6406"/><line style="stroke: #888888; stroke-width: 1.0;" x1="10" x2="18" y1="166.6406" y2="166.6406"/><line style="stroke: #888888; stroke-width: 1.0;" x1="20" x2="20" y1="168.6406" y2="180.6094"/><line style="stroke: #888888; stroke-width: 1.0;" x1="20" x2="28" y1="180.6094" y2="180.6094"/><line style="stroke: #888888; stroke-width: 1.0;" x1="20" x2="20" y1="168.6406" y2="194.5781"/><line style="stroke: #888888; stroke-width: 1.0;" x1="20" x2="28" y1="194.5781" y2="194.5781"/><line style="stroke: #888888; stroke-width: 1.0;" x1="20" x2="20" y1="168.6406" y2="208.5469"/><line style="stroke: #888888; stroke-width: 1.0;" x1="20" x2="28" y1="208.5469" y2="208.5469"/></g></svg>