<?xml version="1.0" encoding="UTF-8" standalone="no"?><svg xmlns="http://www.w3.org/2000/svg" xmlns:xlink="http://www.w3.org/1999/xlink" contentScriptType="application/ecmascript" contentStyleType="text/css" height="234px" preserveAspectRatio="none" style="width:718px;height:234px;" version="1.1" viewBox="0 0 718 234" width="718px" zoomAndPan="magnify"><defs><filter height="300%" id="f1gye2139cgna8" width="300%" x="-1" y="-1"><feGaussianBlur result="blurOut" stdDeviation="2.0"/><feColorMatrix in="blurOut" result="blurOut2" type="matrix" values="0 0 0 0 0 0 0 0 0 0 0 0 0 0 0 0 0 0 .4 0"/><feOffset dx="4.0" dy="4.0" in="blurOut2" result="blurOut3"/><feBlend in="SourceGraphic" in2="blurOut3" mode="normal"/></filter></defs><g><!--MD5=[a0baa18a9588495c89ea5bb1479fd948]
cluster External Sources--><rect fill="#FFFFFF" filter="url(#f1gye2139cgna8)" height="199" rx="12.5" ry="12.5" style="stroke: #000000; stroke-width: 1.5;" width="150" x="14" y="24"/><text fill="#000000" font-family="sans-serif" font-size="14" font-weight="bold" lengthAdjust="spacingAndGlyphs" textLength="134" x="22" y="38.9951">External Sources</text><!--MD5=[0f08d7be95aef7e19497068f01ba668c]
cluster Open Data Fabric--><rect fill="#FFFFFF" filter="url(#f1gye2139cgna8)" height="199" rx="12.5" ry="12.5" style="stroke: #000000; stroke-width: 1.5;" width="515" x="192" y="24"/><text fill="#000000" font-family="sans-serif" font-size="14" font-weight="bold" lengthAdjust="spacingAndGlyphs" textLength="135" x="382" y="38.9951">Open Data Fabric</text><!--MD5=[fcd7b9b58b982891a4c065296d4ac5c8]
entity http--><polygon fill="#FFE4E1" filter="url(#f1gye2139cgna8)" points="56,59,56,95.2969,122,95.2969,122,69,112,59,56,59" style="stroke: #B22222; stroke-width: 1.5;"/><path d="M112,59 L112,69 L122,69 " fill="#FFE4E1" style="stroke: #B22222; stroke-width: 1.5;"/><text fill="#000000" font-family="sans-serif" font-size="14" lengthAdjust="spacingAndGlyphs" textLength="46" x="66" y="81.9951">«http»</text><!--MD5=[daf8ac38870254aed921518ab56c6565]
entity ftp--><polygon fill="#FFE4E1" filter="url(#f1gye2139cgna8)" points="61,115,61,151.2969,117,151.2969,117,125,107,115,61,115" style="stroke: #B22222; stroke-width: 1.5;"/><path d="M107,115 L107,125 L117,125 " fill="#FFE4E1" style="stroke: #B22222; stroke-width: 1.5;"/><text fill="#000000" font-family="sans-serif" font-size="14" lengthAdjust="spacingAndGlyphs" textLength="36" x="71" y="137.9951">«ftp»</text><!--MD5=[b165ca7cce796f881c879adda4a6bef9]
entity s3--><polygon fill="#FFE4E1" filter="url(#f1gye2139cgna8)" points="61.5,171,61.5,207.2969,116.5,207.2969,116.5,181,106.5,171,61.5,171" style="stroke: #B22222; stroke-width: 1.5;"/><path d="M106.5,171 L106.5,181 L116.5,181 " fill="#FFE4E1" style="stroke: #B22222; stroke-width: 1.5;"/><text fill="#000000" font-family="sans-serif" font-size="14" lengthAdjust="spacingAndGlyphs" textLength="35" x="71.5" y="193.9951">«s3»</text><!--MD5=[f49d2836da3173f709075e6e738079cc]
entity root1--><rect fill="#FEFECE" filter="url(#f1gye2139cgna8)" height="36.2969" style="stroke: #A80036; stroke-width: 1.5;" width="48" x="208" y="59"/><text fill="#000000" font-family="sans-serif" font-size="14" lengthAdjust="spacingAndGlyphs" textLength="28" x="218" y="81.9951">root</text><!--MD5=[590e41f6840db740b93b23c013a818cb]
entity root2--><rect fill="#FEFECE" filter="url(#f1gye2139cgna8)" height="36.2969" style="stroke: #A80036; stroke-width: 1.5;" width="48" x="208" y="115"/><text fill="#000000" font-family="sans-serif" font-size="14" lengthAdjust="spacingAndGlyphs" textLength="28" x="218" y="137.9951">root</text><!--MD5=[8408fde6d6fb2a6384923b4387324308]
entity root3--><rect fill="#FEFECE" filter="url(#f1gye2139cgna8)" height="36.2969" style="stroke: #A80036; stroke-width: 1.5;" width="48" x="208" y="171"/><text fill="#000000" font-family="sans-serif" font-size="14" lengthAdjust="spacingAndGlyphs" textLength="28" x="218" y="193.9951">root</text><!--MD5=[953bafaa39b307839a19b930479e4b1d]
entity derivative1--><rect fill="#EBEDF5" filter="url(#f1gye2139cgna8)" height="22.2969" style="stroke: #B22222; stroke-width: 1.5;" width="85" x="461" y="66"/><text fill="#000000" font-family="sans-serif" font-size="14" lengthAdjust="spacingAndGlyphs" textLength="65" x="471" y="81.9951">derivative</text><!--MD5=[77c4ec23cd7b1eeab255da0b2c47a3cd]
entity derivative2--><rect fill="#EBEDF5" filter="url(#f1gye2139cgna8)" height="22.2969" style="stroke: #B22222; stroke-width: 1.5;" width="85" x="316" y="122"/><text fill="#000000" font-family="sans-serif" font-size="14" lengthAdjust="spacingAndGlyphs" textLength="65" x="326" y="137.9951">derivative</text><!--MD5=[841f1f149a612dea2c2a453581a422dd]
entity derivative3--><rect fill="#EBEDF5" filter="url(#f1gye2139cgna8)" height="22.2969" style="stroke: #B22222; stroke-width: 1.5;" width="85" x="461" y="115"/><text fill="#000000" font-family="sans-serif" font-size="14" lengthAdjust="spacingAndGlyphs" textLength="65" x="471" y="130.9951">derivative</text><!--MD5=[21a14fdb67b84a0a548b99c2a5260650]
entity derivative4--><rect fill="#EBEDF5" filter="url(#f1gye2139cgna8)" height="22.2969" style="stroke: #B22222; stroke-width: 1.5;" width="85" x="316" y="173"/><text fill="#000000" font-family="sans-serif" font-size="14" lengthAdjust="spacingAndGlyphs" textLength="65" x="326" y="188.9951">derivative</text><!--MD5=[ff8e61abe8d318aab9188ae4b8f977a4]
entity derivative5--><rect fill="#EBEDF5" filter="url(#f1gye2139cgna8)" height="22.2969" style="stroke: #B22222; stroke-width: 1.5;" width="85" x="461" y="167"/><text fill="#000000" font-family="sans-serif" font-size="14" lengthAdjust="spacingAndGlyphs" textLength="65" x="471" y="182.9951">derivative</text><!--MD5=[e0779a6b506c25e4cbf576b993d262ee]
entity derivative6--><rect fill="#EBEDF5" filter="url(#f1gye2139cgna8)" height="22.2969" style="stroke: #B22222; stroke-width: 1.5;" width="85" x="606" y="115"/><text fill="#000000" font-family="sans-serif" font-size="14" lengthAdjust="spacingAndGlyphs" textLength="65" x="616" y="130.9951">derivative</text><!--MD5=[009625d30427ed9b858e68328c7f2cbf]
link http to root1--><path d="M122.35,77 C146.54,77 179.3,77 202.5,77 " fill="none" id="http-&gt;root1" style="stroke: #A80036; stroke-width: 1.0;"/><polygon fill="#A80036" points="207.6,77,198.6,73,202.6,77,198.6,81,207.6,77" style="stroke: #A80036; stroke-width: 1.0;"/><!--MD5=[51701bcbb911b5048223bcee24e2cc00]
link ftp to root2--><path d="M117.19,133 C141.69,133 177.6,133 202.5,133 " fill="none" id="ftp-&gt;root2" style="stroke: #A80036; stroke-width: 1.0;"/><polygon fill="#A80036" points="207.64,133,198.64,129,202.64,133,198.64,137,207.64,133" style="stroke: #A80036; stroke-width: 1.0;"/><!--MD5=[26352e053692729182c1c2bda6b462ff]
link s3 to root3--><path d="M116.52,189 C141.1,189 177.55,189 202.68,189 " fill="none" id="s3-&gt;root3" style="stroke: #A80036; stroke-width: 1.0;"/><polygon fill="#A80036" points="207.87,189,198.87,185,202.87,189,198.87,193,207.87,189" style="stroke: #A80036; stroke-width: 1.0;"/><!--MD5=[a4349917608b646f4aca468fc517633d]
link root1 to derivative1--><path d="M256.44,77 C300.7,77 397.3,77 455.43,77 " fill="none" id="root1-&gt;derivative1" style="stroke: #A80036; stroke-width: 1.0;"/><polygon fill="#A80036" points="460.59,77,451.59,73,455.59,77,451.59,81,460.59,77" style="stroke: #A80036; stroke-width: 1.0;"/><!--MD5=[b3bbbc7834ec7f34f341532215891f5d]
link root1 to derivative3--><path d="M256.44,81.26 C300.7,89.31 397.3,106.87 455.43,117.44 " fill="none" id="root1-&gt;derivative3" style="stroke: #A80036; stroke-width: 1.0;"/><polygon fill="#A80036" points="460.59,118.38,452.4394,112.8512,455.6688,117.4956,451.0244,120.725,460.59,118.38" style="stroke: #A80036; stroke-width: 1.0;"/><!--MD5=[4f6a6a7282fedd1fdcd32ea3c1348bc7]
link root2 to derivative2--><path d="M256.13,133 C271.42,133 292.02,133 310.66,133 " fill="none" id="root2-&gt;derivative2" style="stroke: #A80036; stroke-width: 1.0;"/><polygon fill="#A80036" points="315.86,133,306.86,129,310.86,133,306.86,137,315.86,133" style="stroke: #A80036; stroke-width: 1.0;"/><!--MD5=[0d6495b73a452d3e1624086f8c2025ec]
link root3 to derivative4--><path d="M256.13,188.07 C271.42,187.46 292.02,186.63 310.66,185.88 " fill="none" id="root3-&gt;derivative4" style="stroke: #A80036; stroke-width: 1.0;"/><polygon fill="#A80036" points="315.86,185.67,306.7073,182.0329,310.864,185.8698,307.0271,190.0265,315.86,185.67" style="stroke: #A80036; stroke-width: 1.0;"/><!--MD5=[88c8ab153c0f39b40aba6260b10f4dd0]
link derivative2 to derivative3--><path d="M401.25,130.96 C418.28,130.12 438.06,129.15 455.59,128.3 " fill="none" id="derivative2-&gt;derivative3" style="stroke: #A80036; stroke-width: 1.0;"/><polygon fill="#A80036" points="460.95,128.03,451.7665,124.4713,455.9559,128.2726,452.1547,132.4619,460.95,128.03" style="stroke: #A80036; stroke-width: 1.0;"/><!--MD5=[825bc47b7241bb48e71672fd8310d1ec]
link derivative2 to derivative5--><path d="M394.48,144.01 C415.08,150.49 441.21,158.71 462.61,165.45 " fill="none" id="derivative2-&gt;derivative5" style="stroke: #A80036; stroke-width: 1.0;"/><polygon fill="#A80036" points="467.38,166.95,459.9939,160.435,462.6101,165.4505,457.5947,168.0668,467.38,166.95" style="stroke: #A80036; stroke-width: 1.0;"/><!--MD5=[4db5b824bd504791a9c3e7d726eb88a2]
link derivative4 to derivative5--><path d="M401.25,182.25 C418.28,181.53 438.06,180.7 455.59,179.97 " fill="none" id="derivative4-&gt;derivative5" style="stroke: #A80036; stroke-width: 1.0;"/><polygon fill="#A80036" points="460.95,179.74,451.787,176.129,455.9546,179.9541,452.1295,184.1217,460.95,179.74" style="stroke: #A80036; stroke-width: 1.0;"/><!--MD5=[021167d3a06582105459617d06abe754]
link derivative3 to derivative6--><path d="M546.25,126 C563.28,126 583.06,126 600.59,126 " fill="none" id="derivative3-&gt;derivative6" style="stroke: #A80036; stroke-width: 1.0;"/><polygon fill="#A80036" points="605.95,126,596.95,122,600.95,126,596.95,130,605.95,126" style="stroke: #A80036; stroke-width: 1.0;"/><!--MD5=[8612b89c543c7a4a873dc99843e4abfd]
@startuml dataset_kinds
left to right direction

skinparam rectangle {
    roundCorner 25
}

skinparam file {
    BorderColor FireBrick
    BackgroundColor MistyRose
}

skinparam card {
    BorderColor FireBrick
    BackgroundColor EBEDF5
}

skinparam nodesep 20
skinparam ranksep 60

rectangle "External Sources" {
    file "<<http>>" as http
    file "<<ftp>>" as ftp
    file "<<s3>>" as s3
}

rectangle "Open Data Fabric" {
    agent "root" as root1
    agent "root" as root2
    agent "root" as root3
    card "derivative" as derivative1
    card "derivative" as derivative2
    card "derivative" as derivative3
    card "derivative" as derivative4
    card "derivative" as derivative5
    card "derivative" as derivative6
}

http - -> root1
ftp - -> root2
s3 - -> root3

root1 - - -> derivative1
root1 - - -> derivative3
root2 - -> derivative2
root3 - -> derivative4

derivative2 - -> derivative3
derivative2 - -> derivative5
derivative4 - -> derivative5
derivative3 - -> derivative6

@enduml

PlantUML version 1.2020.07(Sun Apr 19 04:42:40 PDT 2020)
(GPL source distribution)
Java Runtime: OpenJDK Runtime Environment
JVM: OpenJDK 64-Bit Server VM
Java Version: 1.8.0_252-b09
Operating System: Linux
Default Encoding: UTF-8
Language: en
Country: CA
--></g></svg>