<?xml version="1.0" encoding="UTF-8" standalone="no"?><svg xmlns="http://www.w3.org/2000/svg" xmlns:xlink="http://www.w3.org/1999/xlink" contentStyleType="text/css" height="498px" preserveAspectRatio="none" style="width:712px;height:498px;background:#FFFFFF;" version="1.1" viewBox="0 0 712 498" width="712px" zoomAndPan="magnify"><defs/><g><rect fill="#FFFFFF" height="385.9297" style="stroke:#181818;stroke-width:1.0;" width="10" x="172.5" y="67.4297"/><rect fill="#FFFFFF" height="28" style="stroke:#181818;stroke-width:1.0;" width="10" x="177.5" y="104.5625"/><rect fill="#FFFFFF" height="28" style="stroke:#181818;stroke-width:1.0;" width="10" x="177.5" y="259.0938"/><rect fill="#FFFFFF" height="28" style="stroke:#181818;stroke-width:1.0;" width="10" x="177.5" y="331.2266"/><rect fill="#FFFFFF" height="28" style="stroke:#181818;stroke-width:1.0;" width="10" x="177.5" y="403.3594"/><rect fill="#FFFFFF" height="29.1328" style="stroke:#181818;stroke-width:1.0;" width="10" x="660.5" y="192.8281"/><rect fill="none" height="291.7969" style="stroke:#000000;stroke-width:1.5;" width="584" x="122.5" y="154.5625"/><line style="stroke:#181818;stroke-width:0.5;stroke-dasharray:5.0,5.0;" x1="31" x2="31" y1="36.2969" y2="463.3594"/><line style="stroke:#181818;stroke-width:0.5;stroke-dasharray:5.0,5.0;" x1="177.5" x2="177.5" y1="36.2969" y2="463.3594"/><line style="stroke:#181818;stroke-width:0.5;stroke-dasharray:5.0,5.0;" x1="665.5" x2="665.5" y1="36.2969" y2="463.3594"/><rect fill="#E2E2F0" height="30.2969" rx="2.5" ry="2.5" style="stroke:#181818;stroke-width:0.5;" width="53" x="5" y="5"/><text fill="#000000" font-family="sans-serif" font-size="14" lengthAdjust="spacing" textLength="39" x="12" y="24.9951">Client</text><rect fill="#E2E2F0" height="30.2969" rx="2.5" ry="2.5" style="stroke:#181818;stroke-width:0.5;" width="53" x="5" y="462.3594"/><text fill="#000000" font-family="sans-serif" font-size="14" lengthAdjust="spacing" textLength="39" x="12" y="482.3545">Client</text><rect fill="#E2E2F0" height="30.2969" rx="2.5" ry="2.5" style="stroke:#181818;stroke-width:0.5;" width="90" x="132.5" y="5"/><text fill="#000000" font-family="sans-serif" font-size="14" lengthAdjust="spacing" textLength="76" x="139.5" y="24.9951">Coodinator</text><rect fill="#E2E2F0" height="30.2969" rx="2.5" ry="2.5" style="stroke:#181818;stroke-width:0.5;" width="90" x="132.5" y="462.3594"/><text fill="#000000" font-family="sans-serif" font-size="14" lengthAdjust="spacing" textLength="76" x="139.5" y="482.3545">Coodinator</text><rect fill="#E2E2F0" height="30.2969" rx="2.5" ry="2.5" style="stroke:#181818;stroke-width:0.5;" width="62" x="634.5" y="5"/><text fill="#000000" font-family="sans-serif" font-size="14" lengthAdjust="spacing" textLength="48" x="641.5" y="24.9951">Engine</text><rect fill="#E2E2F0" height="30.2969" rx="2.5" ry="2.5" style="stroke:#181818;stroke-width:0.5;" width="62" x="634.5" y="462.3594"/><text fill="#000000" font-family="sans-serif" font-size="14" lengthAdjust="spacing" textLength="48" x="641.5" y="482.3545">Engine</text><rect fill="#FFFFFF" height="385.9297" style="stroke:#181818;stroke-width:1.0;" width="10" x="172.5" y="67.4297"/><rect fill="#FFFFFF" height="28" style="stroke:#181818;stroke-width:1.0;" width="10" x="177.5" y="104.5625"/><rect fill="#FFFFFF" height="28" style="stroke:#181818;stroke-width:1.0;" width="10" x="177.5" y="259.0938"/><rect fill="#FFFFFF" height="28" style="stroke:#181818;stroke-width:1.0;" width="10" x="177.5" y="331.2266"/><rect fill="#FFFFFF" height="28" style="stroke:#181818;stroke-width:1.0;" width="10" x="177.5" y="403.3594"/><rect fill="#FFFFFF" height="29.1328" style="stroke:#181818;stroke-width:1.0;" width="10" x="660.5" y="192.8281"/><polygon fill="#181818" points="160.5,63.4297,170.5,67.4297,160.5,71.4297,164.5,67.4297" style="stroke:#181818;stroke-width:1.0;"/><line style="stroke:#181818;stroke-width:1.0;" x1="31.5" x2="166.5" y1="67.4297" y2="67.4297"/><text fill="#000000" font-family="sans-serif" font-size="13" lengthAdjust="spacing" textLength="122" x="38.5" y="62.3638">transform(dataset)</text><line style="stroke:#181818;stroke-width:1.0;" x1="187.5" x2="229.5" y1="96.5625" y2="96.5625"/><line style="stroke:#181818;stroke-width:1.0;" x1="229.5" x2="229.5" y1="96.5625" y2="109.5625"/><line style="stroke:#181818;stroke-width:1.0;" x1="188.5" x2="229.5" y1="109.5625" y2="109.5625"/><polygon fill="#181818" points="198.5,105.5625,188.5,109.5625,198.5,113.5625,194.5,109.5625" style="stroke:#181818;stroke-width:1.0;"/><text fill="#000000" font-family="sans-serif" font-size="13" lengthAdjust="spacing" textLength="251" x="194.5" y="91.4966">prepare_transform_batches(metadata)</text><path d="M122.5,154.5625 L199.5,154.5625 L199.5,161.6953 L189.5,171.6953 L122.5,171.6953 L122.5,154.5625 " fill="#EEEEEE" style="stroke:#000000;stroke-width:1.5;"/><rect fill="none" height="291.7969" style="stroke:#000000;stroke-width:1.5;" width="584" x="122.5" y="154.5625"/><text fill="#000000" font-family="sans-serif" font-size="13" font-weight="bold" lengthAdjust="spacing" textLength="32" x="137.5" y="167.6294">loop</text><text fill="#000000" font-family="sans-serif" font-size="11" font-weight="bold" lengthAdjust="spacing" textLength="99" x="214.5" y="166.7729">[foreach batch]</text><polygon fill="#181818" points="648.5,188.8281,658.5,192.8281,648.5,196.8281,652.5,192.8281" style="stroke:#181818;stroke-width:1.0;"/><line style="stroke:#181818;stroke-width:1.0;" x1="182.5" x2="654.5" y1="192.8281" y2="192.8281"/><text fill="#000000" font-family="sans-serif" font-size="13" lengthAdjust="spacing" textLength="459" x="189.5" y="187.7622">execute_query(transaction_id, input_slices, transform, prev_checkpoint)</text><polygon fill="#181818" points="193.5,217.9609,183.5,221.9609,193.5,225.9609,189.5,221.9609" style="stroke:#181818;stroke-width:1.0;"/><line style="stroke:#181818;stroke-width:1.0;stroke-dasharray:2.0,2.0;" x1="187.5" x2="664.5" y1="221.9609" y2="221.9609"/><text fill="#000000" font-family="sans-serif" font-size="13" lengthAdjust="spacing" textLength="173" x="199.5" y="216.895">data_slice, new_checkpoint</text><line style="stroke:#181818;stroke-width:1.0;" x1="187.5" x2="229.5" y1="251.0938" y2="251.0938"/><line style="stroke:#181818;stroke-width:1.0;" x1="229.5" x2="229.5" y1="251.0938" y2="264.0938"/><line style="stroke:#181818;stroke-width:1.0;" x1="188.5" x2="229.5" y1="264.0938" y2="264.0938"/><polygon fill="#181818" points="198.5,260.0938,188.5,264.0938,198.5,268.0938,194.5,264.0938" style="stroke:#181818;stroke-width:1.0;"/><text fill="#000000" font-family="sans-serif" font-size="13" lengthAdjust="spacing" textLength="169" x="194.5" y="246.0278">compute_hash(data_slice)</text><line style="stroke:#181818;stroke-width:1.0;" x1="187.5" x2="229.5" y1="323.2266" y2="323.2266"/><line style="stroke:#181818;stroke-width:1.0;" x1="229.5" x2="229.5" y1="323.2266" y2="336.2266"/><line style="stroke:#181818;stroke-width:1.0;" x1="188.5" x2="229.5" y1="336.2266" y2="336.2266"/><polygon fill="#181818" points="198.5,332.2266,188.5,336.2266,198.5,340.2266,194.5,336.2266" style="stroke:#181818;stroke-width:1.0;"/><text fill="#000000" font-family="sans-serif" font-size="13" lengthAdjust="spacing" textLength="213" x="194.5" y="318.1606">add_system_columns(data_slice)</text><line style="stroke:#181818;stroke-width:1.0;" x1="187.5" x2="229.5" y1="395.3594" y2="395.3594"/><line style="stroke:#181818;stroke-width:1.0;" x1="229.5" x2="229.5" y1="395.3594" y2="408.3594"/><line style="stroke:#181818;stroke-width:1.0;" x1="188.5" x2="229.5" y1="408.3594" y2="408.3594"/><polygon fill="#181818" points="198.5,404.3594,188.5,408.3594,198.5,412.3594,194.5,408.3594" style="stroke:#181818;stroke-width:1.0;"/><text fill="#000000" font-family="sans-serif" font-size="13" lengthAdjust="spacing" textLength="162" x="194.5" y="390.2935">commit(metadata_block)</text><!--SRC=[dP5DRiCW44Rtd6BabIiv5yYY6yGvq0IcDOhvAOoJvlO5MtNihAgoHFEzUP-cavEZm1sStg6JCLeNa6Fk00l8Ct36K3vYzhr5naBy9j2mko4JI25aYzMnb2bX9hsDwmko6QdqdXXRz92pj8TCCIQeeVevmf8J0kfRu9qAdoxGugFEyFlecypCfBzcoez-MTkGCMXd1t0XpQpBv0oLuTbXQ9utNRtCDKKNQfd6sbpKkbV1QMtLl5VA087kk-0ojskXTiOrQA9FpMx4ClPFoiiw-KgHHmfQgykZC7bjuZJxKFxFgaRUyNODVPcYkVw1GS6Auxb-0000]--></g></svg>