<?xml version="1.0" encoding="UTF-8" standalone="no"?>
<svg
   xmlns:dc="http://purl.org/dc/elements/1.1/"
   xmlns:cc="http://creativecommons.org/ns#"
   xmlns:rdf="http://www.w3.org/1999/02/22-rdf-syntax-ns#"
   xmlns:svg="http://www.w3.org/2000/svg"
   xmlns="http://www.w3.org/2000/svg"
   width="283.02786mm"
   height="75.122559mm"
   viewBox="0 0 283.02786 75.122559"
   version="1.1"
   id="svg13976">
  <defs
     id="defs13970">
    <filter
       height="1.3260288"
       y="-0.1630144"
       width="1.2010533"
       x="-0.10052664"
       id="filter13807"
       style="color-interpolation-filters:sRGB">
      <feGaussianBlur
         id="feGaussianBlur13809"
         stdDeviation="11.551795" />
    </filter>
  </defs>
  <metadata
     id="metadata13973">
    <rdf:RDF>
      <cc:Work
         rdf:about="">
        <dc:format>image/svg+xml</dc:format>
        <dc:type
           rdf:resource="http://purl.org/dc/dcmitype/StillImage" />
        <dc:title></dc:title>
      </cc:Work>
    </rdf:RDF>
  </metadata>
  <g
     transform="translate(-313.16109,-12.808413)"
     id="layer1">
    <text
       xml:space="preserve"
       style="font-style:normal;font-variant:normal;font-weight:normal;font-stretch:normal;font-size:18.9537px;line-height:0.85;font-family:'Droid Serif';-inkscape-font-specification:'Droid Serif';fill:#2790d2;fill-opacity:1;stroke:none;stroke-width:0.0987175"
       x="428.65973"
       y="45.314079"
       id="text13856"><tspan
         x="428.65973"
         y="45.314079"
         style="font-style:normal;font-variant:normal;font-weight:normal;font-stretch:normal;font-size:18.9537px;font-family:'Droid Serif';-inkscape-font-specification:'Droid Serif';fill:#2790d2;fill-opacity:1;stroke-width:0.0987175"
         id="tspan13854">//Open Data Fabric</tspan></text>
    <text
       id="text13471-5-7"
       y="44.721813"
       x="429.25201"
       style="font-style:normal;font-variant:normal;font-weight:normal;font-stretch:normal;font-size:18.9537px;line-height:0.85;font-family:'Droid Serif';-inkscape-font-specification:'Droid Serif';fill:#59bdd9;fill-opacity:1;stroke:none;stroke-width:0.0987175"
       xml:space="preserve"><tspan
         id="tspan13886"
         style="font-style:normal;font-variant:normal;font-weight:normal;font-stretch:normal;font-size:18.9537px;font-family:'Droid Serif';-inkscape-font-specification:'Droid Serif';fill:#59bdd9;fill-opacity:1;stroke-width:0.0987175"
         y="44.721813"
         x="429.25201">//Open Data Fabric</tspan></text>
    <rect
       transform="matrix(0.31947254,0.18298035,-0.31947254,0.18298035,-246.23886,-179.16749)"
       y="-400.9411"
       x="1532.9808"
       height="144.76054"
       width="144.76054"
       id="rect13801"
       style="opacity:1;fill:#ececec;fill-opacity:1;stroke:#ffffff;stroke-width:0.742845;stroke-linejoin:miter;stroke-miterlimit:4;stroke-dasharray:none;stroke-dashoffset:0;stroke-opacity:1;filter:url(#filter13807)" />
    <path
       d="m 382.70782,39.185999 -4.56874,2.637761 4.56874,2.63776 c 1.85851,-0.570715 3.22475,-1.593999 4.56874,-2.63776 z"
       style="fill:#aece66;fill-opacity:1;fill-rule:evenodd;stroke:none;stroke-width:0;stroke-miterlimit:4;stroke-dasharray:none;stroke-opacity:1"
       id="path963-97-93-7-7-26-4-7-0-0-3" />
    <path
       d="m 387.27664,41.823726 -4.5687,2.637761 4.5687,2.63776 c 1.637,-0.690297 3.36346,-1.232324 4.56878,-2.63776 z"
       style="fill:#99cc6e;fill-opacity:1;fill-rule:evenodd;stroke:none;stroke-width:0;stroke-miterlimit:4;stroke-dasharray:none;stroke-opacity:1"
       id="path963-97-93-7-7-862-9-8-5-4-9" />
    <path
       id="path963-97-93-7-7-1-0-5-4-4-4"
       style="fill:#83c977;fill-opacity:1;fill-rule:evenodd;stroke:none;stroke-width:0;stroke-miterlimit:4;stroke-dasharray:none;stroke-opacity:1"
       d="m 405.55157,25.997201 -4.56877,2.637798 4.56877,2.637794 4.56875,2.637795 4.56877,2.637608 4.56875,-2.637608 -4.56875,-2.637795 -4.56877,-2.637794 z m 13.70627,7.913387 -4.56855,2.637796 v 0 l -4.56879,2.637793 -4.56874,2.637799 -4.56878,2.637795 -4.56874,2.637796 4.56874,2.637597 4.56878,-2.637597 4.56874,-2.637796 4.56879,-2.637795 4.56874,-2.637799 4.56878,-2.637607 z m -22.84379,13.188793 -4.56874,-2.6378 -4.56878,2.6378 4.56878,2.63779 4.56874,2.637799 4.56875,-2.637799 z" />
    <path
       id="path974-61-88-4-4-5-0-2-9-4-6"
       style="fill:#e6805a;fill-opacity:1;fill-rule:evenodd;stroke:none;stroke-width:0.0190211;stroke-opacity:1"
       d="m 373.57046,23.359405 -4.56879,2.637796 v 5.275592 l 4.56879,2.637795 v -5.275589 z" />
    <path
       d="m 387.27668,47.099321 -4.56874,2.637761 4.56874,2.637765 4.56874,-2.637765 z"
       style="fill:#666666;fill-opacity:1;fill-rule:evenodd;stroke:none;stroke-width:0;stroke-miterlimit:4;stroke-dasharray:none;stroke-opacity:1"
       id="path963-97-93-7-7-92-3-9-7-2-2" />
    <path
       d="m 382.7079,49.737082 -4.56875,2.637765 c 1.06556,1.310023 2.71169,2.07322 4.56875,2.637761 l 4.56874,-2.637761 z"
       style="fill:#e690ad;fill-opacity:1;fill-rule:evenodd;stroke:none;stroke-width:0;stroke-miterlimit:4;stroke-dasharray:none;stroke-opacity:1"
       id="path963-97-93-7-7-38-9-2-5-5-3" />
    <path
       d="m 378.13919,52.374731 v 5.275523 l 4.56878,-2.637762 z"
       style="fill:#e385bb;fill-opacity:1;fill-rule:evenodd;stroke:none;stroke-width:0;stroke-miterlimit:4;stroke-dasharray:none;stroke-opacity:1"
       id="path963-97-93-7-7-68-2-7-6-9-8" />
    <path
       id="path974-61-88-4-4-7-4-3-0-8-6"
       style="fill:#798d67;fill-opacity:1;fill-rule:evenodd;stroke:none;stroke-width:0.0190211;stroke-opacity:1"
       d="m 378.13908,41.82376 4.56878,2.63776 c 0.31497,2.044076 0.37717,3.858991 0,5.275562 l -4.56878,-2.637798 z" />
    <path
       id="path974-61-88-4-4-93-4-8-0-4-2"
       style="fill:#59906b;fill-opacity:1;fill-rule:evenodd;stroke:none;stroke-width:0.0190211;stroke-opacity:1"
       d="m 382.70786,44.46152 4.56875,2.637764 c 0.27401,1.902327 0.24516,3.645715 0,5.275559 l -4.56875,-2.637798 z" />
    <path
       id="path974-61-88-4-4-69-5-7-4-3-7"
       style="fill:#42936e;fill-opacity:1;fill-rule:evenodd;stroke:none;stroke-width:0.0190211;stroke-opacity:1"
       d="m 387.27653,47.099381 v 5.275589 l 4.56878,2.637795 v 0 l 4.56893,2.637799 V 52.37497 l -4.56893,-2.6376 z" />
    <path
       id="path974-61-88-4-4-37-4-5-2-3-0"
       style="fill:#0e68a4;fill-opacity:1;fill-rule:evenodd;stroke:none;stroke-width:0.0190211;stroke-opacity:1"
       d="m 323.31428,36.548196 v 5.27559 l 4.56875,2.637795 4.56878,2.6378 v 0 l 4.56874,2.63779 4.56856,2.637613 v 0 0 l 4.56859,2.637794 4.56874,2.637795 v -5.275589 l -4.56874,-2.637799 -4.56859,-2.637798 -4.56875,-2.637595 -4.56873,-2.637795 -4.56879,-2.637795 z" />
    <path
       d="m 359.86422,47.099284 -4.56874,2.637761 4.56874,2.637761 4.56878,-2.637761 z"
       style="fill:#666666;fill-opacity:1;fill-rule:evenodd;stroke:none;stroke-width:0;stroke-miterlimit:4;stroke-dasharray:none;stroke-opacity:1"
       id="path963-97-93-7-7-86-72-6-6-2-7" />
    <path
       id="path974-61-88-4-4-8-9-8-7-3-6"
       style="fill:#9955a1;fill-opacity:1;fill-rule:evenodd;stroke:none;stroke-width:0.0190211;stroke-opacity:1"
       d="m 359.8643,52.374769 c 0.34635,1.990058 0.22737,3.669052 0,5.275559 l -4.56878,-2.637798 z" />
    <path
       d="m 364.43296,49.737037 -4.56874,2.637766 4.56874,2.63776 c 1.69263,-0.790825 3.42074,-1.563159 4.56879,-2.63776 z"
       style="fill:#e690ad;fill-opacity:1;fill-rule:evenodd;stroke:none;stroke-width:0;stroke-miterlimit:4;stroke-dasharray:none;stroke-opacity:1"
       id="path963-97-93-7-7-7-8-6-7-5-7" />
    <path
       d="m 369.00175,52.374803 -4.56875,2.63776 4.56875,2.637762 z"
       style="fill:#e385bb;fill-opacity:1;fill-rule:evenodd;stroke:none;stroke-width:0;stroke-miterlimit:4;stroke-dasharray:none;stroke-opacity:1"
       id="path963-97-93-7-7-9-7-6-3-3-4" />
    <path
       id="path963-97-93-7-7-32-4-9-4-2-3"
       style="fill:#f6d64a;fill-opacity:1;fill-rule:evenodd;stroke:none;stroke-width:0;stroke-miterlimit:4;stroke-dasharray:none;stroke-opacity:1"
       d="m 373.57046,12.808413 -4.56879,2.637608 -4.56874,2.637795 -4.56878,2.637795 -4.56856,2.637794 v 0 l -4.56855,2.637796 4.56873,2.637608 4.56857,-2.637608 v 0 l 4.56859,-2.637796 4.56874,-2.637794 4.56879,-2.637795 4.56873,2.637795 4.56878,2.637794 4.56874,2.637796 4.56856,2.637798 4.56878,-2.637798 -4.56855,-2.637796 -4.56879,-2.637794 -4.56874,-2.637795 -4.56878,-2.637795 z" />
    <path
       id="path965-3-90-6-6-9-3-1-7-1"
       style="mix-blend-mode:normal;fill:#5da1a2;fill-opacity:1;fill-rule:evenodd;stroke:none;stroke-width:0;stroke-miterlimit:4;stroke-dasharray:none;stroke-opacity:1"
       d="m 369.00186,41.823804 -4.56875,2.637758 c -0.80173,2.314311 -0.49219,3.858241 0,5.275558 l 4.56875,-2.637799 z" />
    <path
       id="path974-61-88-4-4-06-2-5-8-5-2"
       style="fill:#8d4fac;fill-opacity:1;fill-rule:evenodd;stroke:none;stroke-width:0.0190211;stroke-opacity:1"
       d="m 359.86427,52.374765 4.56877,2.637761 c 0.57216,1.650052 0.43787,3.434023 0,5.27556 l -4.56877,-2.637799 z" />
    <path
       id="path965-3-90-6-2-8-0-1-2-4"
       style="mix-blend-mode:normal;fill:#549fa7;fill-opacity:1;fill-rule:evenodd;stroke:none;stroke-width:0;stroke-miterlimit:4;stroke-dasharray:none;stroke-opacity:1"
       d="m 364.43316,44.461562 -4.56879,2.637756 c -0.37776,1.896114 -0.3368,3.639707 0,5.275562 l 4.56879,-2.637798 z" />
    <path
       id="path965-3-90-6-5-07-3-1-4-1-7"
       style="mix-blend-mode:normal;fill:#f9ad57;fill-opacity:1;fill-rule:evenodd;stroke:none;stroke-width:0;stroke-miterlimit:4;stroke-dasharray:none;stroke-opacity:1"
       d="m 373.57046,23.359405 v 5.275594 5.275589 l 4.56873,-2.637795 v -5.275592 z" />
    <path
       d="m 350.72685,25.997125 -4.56878,2.637758 c -0.41855,1.982663 -0.26908,3.661139 0,5.275564 l 4.56878,-2.637798 z"
       style="mix-blend-mode:normal;fill:#3783c1;fill-opacity:1;fill-rule:evenodd;stroke:none;stroke-width:0;stroke-miterlimit:4;stroke-dasharray:none;stroke-opacity:1"
       id="path965-3-90-2-0-7-1-4-5" />
    <path
       d="m 346.15811,28.634883 -4.56879,2.637766 c -0.47671,1.793611 -0.32613,3.541047 0,5.275559 l 4.56879,-2.637799 z"
       style="mix-blend-mode:normal;fill:#2d8bc2;fill-opacity:1;fill-rule:evenodd;stroke:none;stroke-width:0;stroke-miterlimit:4;stroke-dasharray:none;stroke-opacity:1"
       id="path965-3-90-5-7-1-1-8-5" />
    <path
       id="path965-3-90-9-2-4-8-4-8"
       style="mix-blend-mode:normal;fill:#1d98c4;fill-opacity:1;fill-rule:evenodd;stroke:none;stroke-width:0;stroke-miterlimit:4;stroke-dasharray:none;stroke-opacity:1"
       d="m 341.58932,31.272606 -4.56877,2.637796 -4.56874,2.637794 4.56874,2.637795 4.56877,-2.637795 z" />
    <path
       id="path965-3-90-6-5-870-9-5-9-0"
       style="mix-blend-mode:normal;fill:#359bb7;fill-opacity:1;fill-rule:evenodd;stroke:none;stroke-width:0;stroke-miterlimit:4;stroke-dasharray:none;stroke-opacity:1"
       d="m 359.86422,47.099288 -4.56878,2.637761 c -0.24868,1.786034 -0.14883,3.533507 0,5.275559 l 4.56878,-2.637798 z" />
    <path
       id="path965-3-90-6-5-20-2-7-3-7-8-77"
       style="mix-blend-mode:normal;fill:#52b681;fill-opacity:1;fill-rule:evenodd;stroke:none;stroke-width:0;stroke-miterlimit:4;stroke-dasharray:none;stroke-opacity:1"
       d="m 423.82662,36.548384 -4.56878,2.637607 -4.56875,2.637795 v 0 l -4.56855,2.637608 v 5.275397 l 4.56875,-2.637798 4.56855,-2.637599 4.56878,-2.637795 z m -13.7063,7.913197 -4.56875,2.6378 -4.56877,2.63779 -4.56875,2.637602 v 5.275592 l 4.56875,-2.637794 4.56877,-2.637798 v 0 l 4.56875,-2.637796 z" />
    <path
       d="m 387.27661,52.374843 c -0.2035,1.888608 -0.40968,3.778925 0,5.27556 l 4.56877,-2.637798 z"
       style="mix-blend-mode:normal;fill:#c679b0;fill-opacity:1;fill-rule:evenodd;stroke:none;stroke-width:0;stroke-miterlimit:4;stroke-dasharray:none;stroke-opacity:1"
       id="path965-3-90-6-5-8-79-4-2-9-3" />
    <path
       d="m 387.27661,52.374843 -4.56875,2.637762 c -0.36168,1.602488 -0.87727,3.138594 0,5.275559 l 4.56875,-2.637799 z"
       style="mix-blend-mode:normal;fill:#be70bf;fill-opacity:1;fill-rule:evenodd;stroke:none;stroke-width:0;stroke-miterlimit:4;stroke-dasharray:none;stroke-opacity:1"
       id="path965-3-90-6-5-33-1-5-4-3-7" />
    <path
       id="path965-3-90-6-5-90-06-7-9-6-7"
       style="mix-blend-mode:normal;fill:#b768cc;fill-opacity:1;fill-rule:evenodd;stroke:none;stroke-width:0;stroke-miterlimit:4;stroke-dasharray:none;stroke-opacity:1"
       d="m 378.13919,36.548196 -4.56873,2.637795 v 5.27559 0 5.27521 0 5.27559 0 5.275593 5.275588 l 4.56873,-2.637792 v 0 l 4.56878,-2.637796 v -5.275403 l -4.56878,2.637604 v -5.275402 -5.275206 0 -5.275591 0 z" />
    <path
       id="path965-3-90-6-5-0-9-7-1-8-9"
       style="mix-blend-mode:normal;fill:#f9b64e;fill-opacity:1;fill-rule:evenodd;stroke:none;stroke-width:0;stroke-miterlimit:4;stroke-dasharray:none;stroke-opacity:1"
       d="m 373.57046,18.083816 -4.56879,2.637795 -4.56874,2.637794 -4.56878,2.637796 v 0 l -4.56874,2.637599 v 5.275404 5.27559 c 1.57816,-0.327049 3.10457,-1.171371 4.56874,-2.637796 v -5.275402 l 4.56878,-2.637796 4.56874,-2.637798 4.56879,-2.637794 z" />
    <path
       d="m 359.8643,36.548166 -4.56878,2.637762 v 5.275559 l 4.56878,-2.637798 z"
       style="mix-blend-mode:normal;fill:#f3af59;fill-opacity:1;fill-rule:evenodd;stroke:none;stroke-width:0;stroke-miterlimit:4;stroke-dasharray:none;stroke-opacity:1"
       id="path965-3-90-6-5-6-1-0-4-5-3" />
    <path
       d="m 396.41424,36.548245 c -2.02257,0.407053 -3.23744,1.577431 -4.56879,2.637761 v 5.27556 c 1.51952,-0.72439 3.03659,-1.339954 4.56879,-2.6378 z"
       style="mix-blend-mode:normal;fill:#f3af59;fill-opacity:1;fill-rule:evenodd;stroke:none;stroke-width:0;stroke-miterlimit:4;stroke-dasharray:none;stroke-opacity:1"
       id="path965-3-90-6-5-936-7-1-51-7-2" />
    <path
       id="path965-3-90-6-5-19-0-6-3-1-0"
       style="mix-blend-mode:normal;fill:#f9b64e;fill-opacity:1;fill-rule:evenodd;stroke:none;stroke-width:0;stroke-miterlimit:4;stroke-dasharray:none;stroke-opacity:1"
       d="m 396.41405,25.997201 -4.56874,2.637798 v 5.275589 0 5.275589 c 1.5229,-0.879262 3.0458,-1.758528 4.56874,-2.637793 v -5.275405 0 z" />
    <path
       d="m 387.27668,31.272719 -4.56874,2.637766 c -0.19596,1.791634 -0.35311,3.576719 0,5.275558 l 4.56874,-2.637798 z"
       style="mix-blend-mode:normal;fill:#ad70c4;fill-opacity:1;fill-rule:evenodd;stroke:none;stroke-width:0;stroke-miterlimit:4;stroke-dasharray:none;stroke-opacity:1"
       id="path965-3-90-6-5-013-4-8-0-2-7" />
    <path
       d="m 382.70812,33.910518 -4.56877,2.637761 c -0.3893,1.859923 -0.82002,3.730656 0,5.275555 l 4.56877,-2.637795 z"
       style="mix-blend-mode:normal;fill:#b768cc;fill-opacity:1;fill-rule:evenodd;stroke:none;stroke-width:0;stroke-miterlimit:4;stroke-dasharray:none;stroke-opacity:1"
       id="path965-3-90-6-5-202-3-9-6-6-8" />
    <path
       id="path965-3-90-6-5-936-7-1-5-8-9-2"
       style="mix-blend-mode:normal;fill:#e8a26e;fill-opacity:1;fill-rule:evenodd;stroke:none;stroke-width:0;stroke-miterlimit:4;stroke-dasharray:none;stroke-opacity:1"
       d="m 396.41416,41.823797 -4.56878,2.637762 4.56878,2.637759 z" />
    <path
       d="m 364.43293,28.634962 -4.56875,2.637757 4.56875,2.637766 c 1.73669,-0.64248 3.3719,-1.397364 4.56874,-2.637766 z"
       style="fill:#d684c5;fill-opacity:1;fill-rule:evenodd;stroke:none;stroke-width:0;stroke-miterlimit:4;stroke-dasharray:none;stroke-opacity:1"
       id="path963-97-93-7-7-085-8-8-4-2-0" />
    <path
       id="path963-97-93-7-7-903-3-0-6-9-7"
       style="fill:#e27fc4;fill-opacity:1;fill-rule:evenodd;stroke:none;stroke-width:0;stroke-miterlimit:4;stroke-dasharray:none;stroke-opacity:1"
       d="m 369.00167,31.272606 -4.56874,2.637796 4.56874,2.637794 4.56879,2.637795 4.56873,-2.637795 v 0 l 4.56878,-2.637608 -4.56878,-2.637795 -4.56873,2.637795 v 0 z" />
    <path
       id="path963-97-93-7-3-8-4-7-7-1"
       style="fill:#83d09d;fill-opacity:1;fill-rule:evenodd;stroke:none;stroke-width:0;stroke-miterlimit:4;stroke-dasharray:none;stroke-opacity:1"
       d="m 364.43296,39.185966 -4.56874,2.63776 c 1.42161,0.984311 2.89742,1.912416 4.56874,2.637761 l 4.56879,-2.637761 z" />
    <path
       id="path963-97-93-7-1-3-9-5-9-4"
       style="fill:#5cceb8;fill-opacity:1;fill-rule:evenodd;stroke:none;stroke-width:0;stroke-miterlimit:4;stroke-dasharray:none;stroke-opacity:1"
       d="m 359.86422,41.823723 -4.56874,2.637757 c 1.2708,1.074786 2.75415,1.984748 4.56874,2.637767 L 364.433,44.46148 Z" />
    <path
       d="m 382.70794,28.634962 -4.56875,2.637757 c 1.19155,1.069766 2.82377,1.886194 4.56875,2.637766 l 4.56874,-2.637766 z"
       style="fill:#da85be;fill-opacity:1;fill-rule:evenodd;stroke:none;stroke-width:0;stroke-miterlimit:4;stroke-dasharray:none;stroke-opacity:1"
       id="path963-97-93-7-7-01-9-3-5-1-6" />
    <path
       id="path963-97-93-7-7-085-6-1-7-9-4-1"
       style="fill:#2fccd9;fill-opacity:1;fill-rule:evenodd;stroke:none;stroke-width:0;stroke-miterlimit:4;stroke-dasharray:none;stroke-opacity:1"
       d="m 350.72685,20.721603 -4.56874,2.637762 c 1.41686,1.127205 2.96178,1.954956 4.56874,2.63776 l 4.56874,-2.63776 z" />
    <path
       d="m 346.15807,23.359365 -4.56875,2.63776 c 1.06004,1.414493 2.58323,2.293424 4.56875,2.637758 l 4.56878,-2.637758 z"
       style="fill:#2fccd9;fill-opacity:1;fill-rule:evenodd;stroke:none;stroke-width:0;stroke-miterlimit:4;stroke-dasharray:none;stroke-opacity:1"
       id="path963-97-93-69-1-3-1-1-1" />
    <path
       id="path963-97-93-40-19-5-5-4-2"
       style="fill:#2fccd9;fill-opacity:1;fill-rule:evenodd;stroke:none;stroke-width:0;stroke-miterlimit:4;stroke-dasharray:none;stroke-opacity:1"
       d="m 341.58932,25.997201 -4.56877,2.637608 -4.56874,2.637797 -4.56878,2.637796 -4.56875,2.637794 4.56875,2.637795 4.56878,2.637795 4.56874,2.637795 4.56877,2.637598 4.56856,2.637798 4.56856,2.637796 4.56897,-2.637796 -4.56879,-2.637596 v 0 l -4.56874,-2.637603 -4.56877,-2.637794 -4.56875,-2.637796 -4.56873,-2.637794 4.56873,-2.637794 4.56875,-2.637798 4.56877,-2.637795 z" />
    <path
       d="m 355.29552,44.46148 -4.56871,2.637767 c 1.34706,1.005599 2.93056,1.841305 4.56871,2.637757 l 4.56878,-2.637757 z"
       style="fill:#46cdc8;fill-opacity:1;fill-rule:evenodd;stroke:none;stroke-width:0;stroke-miterlimit:4;stroke-dasharray:none;stroke-opacity:1"
       id="path963-97-93-7-1-3-9-2-4-3-8" />
    <path
       d="m 355.29552,49.737049 -4.56874,2.637761 v 5.275563 l 4.56874,-2.637798 c 0,-1.758507 0,-3.51702 0,-5.275526 z"
       style="mix-blend-mode:normal;fill:#2c9abc;fill-opacity:1;fill-rule:evenodd;stroke:none;stroke-width:0;stroke-miterlimit:4;stroke-dasharray:none;stroke-opacity:1"
       id="path965-3-90-6-5-870-9-8-0-8-8" />
    <path
       id="path974-61-88-4-4-32-9-3-1-2-7"
       style="fill:#8148b7;fill-opacity:1;fill-rule:evenodd;stroke-width:0.373105"
       d="m 369.00167,36.548196 v 5.27559 0 0 5.275401 0 5.275597 5.275402 l -4.56856,-2.637608 v 5.275403 l 4.56856,2.637603 v 0 0 l 4.56859,2.637792 v -5.275402 -5.275593 -5.27559 0 -5.275595 0 0 -5.275392 z" />
    <path
       id="path974-61-88-4-4-2-5-1-7-7-1"
       style="fill:#e6805a;fill-opacity:1;fill-rule:evenodd;stroke:none;stroke-width:0.0190211;stroke-opacity:1"
       d="m 350.72685,25.997201 v 5.275405 5.27559 5.275392 c 1.34825,1.324589 2.73031,2.562908 4.56874,2.637798 v -5.275395 0 -5.275391 -5.275593 z" />
    <path
       id="path974-61-88-4-4-29-4-9-9-4-0"
       style="fill:#e6805a;fill-opacity:1;fill-rule:evenodd;stroke:none;stroke-width:0.0190211;stroke-opacity:1"
       d="m 373.57046,18.083816 v 5.275589 l 4.56873,2.637796 4.56878,2.637798 4.56856,2.637607 v 0 0 5.275404 c 1.2905,1.959647 2.78989,2.948426 4.56878,2.637794 v -5.275592 0 -5.275205 l -4.5686,-2.637796 -4.56874,-2.637794 -4.56874,-2.637795 z" />
    <path
       id="path974-61-88-4-4-050-9-3-8-0-1"
       style="fill:#e6805a;fill-opacity:1;fill-rule:evenodd;stroke:none;stroke-width:0.0190211;stroke-opacity:1"
       d="m 387.27671,36.548245 4.56879,2.637761 v 5.27556 l -4.56879,-2.6378 z" />
    <path
       id="path974-61-88-4-4-415-0-9-8-2-0"
       style="fill:#7b4db8;fill-opacity:1;fill-rule:evenodd;stroke:none;stroke-width:0.0190211;stroke-opacity:1"
       d="m 359.86418,31.272719 4.56878,2.637766 c 0.48951,2.067991 0.13313,3.601207 0,5.275558 l -4.56878,-2.637798 z" />
    <path
       id="path974-61-88-4-4-383-9-5-0-2-7"
       style="fill:#8148b7;fill-opacity:1;fill-rule:evenodd;stroke:none;stroke-width:0.0190211;stroke-opacity:1"
       d="m 364.43296,33.910442 4.56875,2.637758 c 0.28953,1.927083 0.10077,3.575702 0,5.275564 l -4.56875,-2.637798 z" />
    <path
       d="m 350.72655,41.823689 4.56878,2.637758 -4.56878,2.637766 z"
       style="fill:#db7a64;fill-opacity:1;fill-rule:evenodd;stroke:none;stroke-width:0.0190211;stroke-opacity:1"
       id="path974-61-88-4-4-2-5-1-0-6-9-9" />
    <path
       id="path974-61-88-4-4-21-8-2-6-4-0"
       style="fill:#319570;fill-opacity:1;fill-rule:evenodd;stroke:none;stroke-width:0.0190211;stroke-opacity:1"
       d="m 405.55157,31.272793 v 5.275591 l 4.56875,2.637793 v 0 l 4.56877,-2.637607 -4.56877,-2.637795 z" />
    <path
       id="path974-61-88-4-4-40-4-1-3-5-7"
       style="fill:#41867e;fill-opacity:1;fill-rule:evenodd;stroke:none;stroke-width:0.0190211;stroke-opacity:1"
       d="m 396.41401,25.997301 4.56879,2.637761 c 0.2508,1.907297 0.16632,3.615709 0,5.275556 l -4.56879,-2.637798 z" />
    <path
       id="path974-61-88-4-4-11-00-0-3-1-6"
       style="fill:#359273;fill-opacity:1;fill-rule:evenodd;stroke:none;stroke-width:0.0190211;stroke-opacity:1"
       d="m 400.9828,28.635062 4.56877,2.637758 c 0.24994,2.020195 0.1304,3.653568 0,5.275564 l -4.56877,-2.637799 z" />
    <path
       id="path963-97-93-7-7-085-3-4-9-4-9-9"
       style="fill:#8dc17f;fill-opacity:1;fill-rule:evenodd;stroke:none;stroke-width:0;stroke-miterlimit:4;stroke-dasharray:none;stroke-opacity:1"
       d="m 396.41401,20.721779 -4.56874,2.637757 4.56874,2.637765 c 1.69837,-0.702433 3.30765,-1.494651 4.56879,-2.637765 z" />
    <path
       d="m 400.9828,23.359536 -4.56875,2.637765 4.56875,2.637761 c 1.68844,-0.721231 3.38871,-1.431125 4.56877,-2.637761 z"
       style="fill:#87c67a;fill-opacity:1;fill-rule:evenodd;stroke:none;stroke-width:0;stroke-miterlimit:4;stroke-dasharray:none;stroke-opacity:1"
       id="path963-97-93-7-7-56-0-1-6-4-3" />
    <g
       transform="matrix(0.37310476,0,0,0.37310476,-240.59471,-182.51271)"
       style="stroke-width:0.705556;stroke-miterlimit:4;stroke-dasharray:none"
       id="g13757">
      <path
         style="fill:none;stroke:#ffffff;stroke-width:0.705556;stroke-linecap:butt;stroke-linejoin:miter;stroke-miterlimit:4;stroke-dasharray:none;stroke-opacity:1"
         d="m 1597.1132,565.92014 48.98,-28.2789"
         id="path13706" />
      <path
         style="fill:none;stroke:#ffffff;stroke-width:0.705556;stroke-linecap:butt;stroke-linejoin:miter;stroke-miterlimit:4;stroke-dasharray:none;stroke-opacity:1"
         d="m 1695.0735,565.92064 12.2452,-7.06958"
         id="path13710" />
      <path
         style="fill:none;stroke:#ffffff;stroke-width:0.705556;stroke-linecap:butt;stroke-linejoin:miter;stroke-miterlimit:4;stroke-dasharray:none;stroke-opacity:1"
         d="m 1633.8483,601.26946 -48.9811,28.27892"
         id="path13712" />
      <path
         style="fill:none;stroke:#ffffff;stroke-width:0.705556;stroke-linecap:butt;stroke-linejoin:miter;stroke-miterlimit:4;stroke-dasharray:none;stroke-opacity:1"
         d="m 1707.3188,629.54828 73.472,-42.41758"
         id="path13714" />
      <path
         style="fill:none;stroke:#ffffff;stroke-width:0.705556;stroke-linecap:butt;stroke-linejoin:miter;stroke-miterlimit:4;stroke-dasharray:none;stroke-opacity:1"
         d="m 1682.8283,572.99001 -36.7352,21.20954"
         id="path13716" />
      <path
         style="fill:none;stroke:#ffffff;stroke-width:0.705556;stroke-linecap:butt;stroke-linejoin:miter;stroke-miterlimit:4;stroke-dasharray:none;stroke-opacity:1"
         d="m 1584.8674,558.8508 -48.981,28.2789"
         id="path13718" />
      <path
         id="path13716-3"
         d="m 1682.8287,629.54849 -24.4904,14.13921"
         style="fill:none;stroke:#ffffff;stroke-width:0.705556;stroke-linecap:butt;stroke-linejoin:miter;stroke-miterlimit:4;stroke-dasharray:none;stroke-opacity:1" />
    </g>
  </g>
</svg>
