<?xml version="1.0" encoding="UTF-8" standalone="no"?>
<svg
   xmlns:dc="http://purl.org/dc/elements/1.1/"
   xmlns:cc="http://creativecommons.org/ns#"
   xmlns:rdf="http://www.w3.org/1999/02/22-rdf-syntax-ns#"
   xmlns:svg="http://www.w3.org/2000/svg"
   xmlns="http://www.w3.org/2000/svg"
   xmlns:sodipodi="http://sodipodi.sourceforge.net/DTD/sodipodi-0.dtd"
   xmlns:inkscape="http://www.inkscape.org/namespaces/inkscape"
   inkscape:version="1.0 (4035a4fb49, 2020-05-01)"
   inkscape:export-ydpi="120"
   inkscape:export-xdpi="120"
   inkscape:export-filename="/home/smikhtoniuk/Work/projects/kamu/open-data-fabric/src/images/odf_logo_2.png"
   sodipodi:docname="odf_logo_2.svg"
   id="svg13976"
   version="1.1"
   viewBox="0 0 179.57289 44.869015"
   height="44.869015mm"
   width="179.57289mm">
  <sodipodi:namedview
     inkscape:current-layer="svg13976"
     inkscape:window-maximized="0"
     inkscape:window-y="12"
     inkscape:window-x="967"
     inkscape:cy="-23.939745"
     inkscape:cx="451.89"
     inkscape:zoom="0.293906"
     lock-margins="true"
     fit-margin-bottom="2"
     fit-margin-right="2"
     fit-margin-left="2"
     fit-margin-top="2"
     showgrid="false"
     id="namedview78"
     inkscape:window-height="1030"
     inkscape:window-width="939"
     inkscape:pageshadow="2"
     inkscape:pageopacity="0"
     guidetolerance="10"
     gridtolerance="10"
     objecttolerance="10"
     borderopacity="1"
     bordercolor="#666666"
     pagecolor="#ffffff"
     inkscape:document-rotation="0" />
  <defs
     id="defs13970">
    <filter
       style="color-interpolation-filters:sRGB"
       id="filter13807"
       x="-0.10052664"
       width="1.2010533"
       y="-0.1630144"
       height="1.3260288">
      <feGaussianBlur
         stdDeviation="11.551795"
         id="feGaussianBlur13809" />
    </filter>
  </defs>
  <metadata
     id="metadata13973">
    <rdf:RDF>
      <cc:Work
         rdf:about="">
        <dc:format>image/svg+xml</dc:format>
        <dc:type
           rdf:resource="http://purl.org/dc/dcmitype/StillImage" />
        <dc:title></dc:title>
      </cc:Work>
    </rdf:RDF>
  </metadata>
  <text
     xml:space="preserve"
     style="font-style:normal;font-variant:normal;font-weight:normal;font-stretch:normal;font-size:18.9537px;line-height:0.95;font-family:Akaash;-inkscape-font-specification:Akaash;text-align:start;text-anchor:start;white-space:pre;inline-size:69.7415;fill:#216778;fill-opacity:1;stroke:none;stroke-width:0.0987175"
     x="495.62106"
     y="28.380827"
     id="text1039"
     transform="translate(-410.97514,-8.16258)"><tspan
       x="495.62106"
       y="28.380827"><tspan
         style="font-style:normal;font-variant:normal;font-weight:normal;font-stretch:normal;font-size:18.9537px;font-family:'Bitstream Vera Sans Mono';-inkscape-font-specification:'Bitstream Vera Sans Mono';text-align:start;text-anchor:start;fill:#216778;fill-opacity:1;stroke-width:0.0987175">OPEN
</tspan></tspan></text>
  <text
     xml:space="preserve"
     style="font-style:normal;font-variant:normal;font-weight:normal;font-stretch:normal;font-size:18.9537px;line-height:0.95;font-family:Akaash;-inkscape-font-specification:Akaash;text-align:start;text-anchor:start;white-space:pre;inline-size:69.7415;fill:#5fbcd3;fill-opacity:1;stroke:none;stroke-width:0.0987175"
     x="495.62106"
     y="28.380827"
     id="text1043"
     transform="translate(-363.35013,-8.16258)"><tspan
       x="495.62106"
       y="28.380827"><tspan
         style="font-style:normal;font-variant:normal;font-weight:normal;font-stretch:normal;font-size:18.9537px;font-family:'Bitstream Vera Sans Mono';-inkscape-font-specification:'Bitstream Vera Sans Mono';text-align:start;text-anchor:start;fill:#5fbcd3;fill-opacity:1;stroke-width:0.0987175">DATA
</tspan></tspan></text>
  <text
     xml:space="preserve"
     style="font-style:normal;font-variant:normal;font-weight:normal;font-stretch:normal;font-size:18.9537px;line-height:0.95;font-family:Akaash;-inkscape-font-specification:Akaash;text-align:start;text-anchor:start;white-space:pre;inline-size:69.7415;fill:#5fbcd3;fill-opacity:1;stroke:none;stroke-width:0.0987175"
     x="495.62106"
     y="28.380827"
     id="text1047"
     transform="translate(-410.97514,-8.16258)"><tspan
       x="495.62106"
       y="28.380827"><tspan
         style="font-style:normal;font-variant:normal;font-weight:normal;font-stretch:normal;font-size:18.9537px;font-family:'Bitstream Vera Sans Mono';-inkscape-font-specification:'Bitstream Vera Sans Mono';text-align:start;text-anchor:start;fill:#5fbcd3;fill-opacity:1;stroke-width:0.0987175">
</tspan></tspan><tspan
       x="495.62106"
       y="46.96717"><tspan
         style="font-style:normal;font-variant:normal;font-weight:normal;font-stretch:normal;font-size:18.9537px;font-family:'Bitstream Vera Sans Mono';-inkscape-font-specification:'Bitstream Vera Sans Mono';text-align:start;text-anchor:start;fill:#5fbcd3;fill-opacity:1;stroke-width:0.0987175">FABRIC</tspan></tspan></text>
  <path
     id="path1059"
     style="fill:#666666;fill-opacity:1;fill-rule:evenodd;stroke:none;stroke-width:0;stroke-miterlimit:4;stroke-dasharray:none;stroke-opacity:1"
     d="m 51.55117,28.564901 -3.53937,2.043453 3.53937,2.043457 3.53937,-2.043457 z" />
  <path
     id="path1073"
     style="fill:#666666;fill-opacity:1;fill-rule:evenodd;stroke:none;stroke-width:0;stroke-miterlimit:4;stroke-dasharray:none;stroke-opacity:1"
     d="m 30.31495,28.564873 -3.53937,2.043453 3.53937,2.043455 3.5394,-2.043455 z" />
  <g
     transform="translate(-335.94903,-64.558336)"
     style="fill:#5fbcd3"
     id="g1306">
    <path
       d="m 359.18533,76.77553 -3.5394,2.043451 c -0.32424,1.535953 -0.20845,2.836256 0,4.086938 l 3.5394,-2.043482 z"
       style="mix-blend-mode:normal;fill:#5fbcd3;fill-opacity:1;fill-rule:evenodd;stroke:none;stroke-width:0;stroke-miterlimit:4;stroke-dasharray:none;stroke-opacity:1"
       id="path1091" />
    <path
       d="m 355.64596,78.818981 -3.5394,2.043456 c -0.3693,1.389497 -0.25265,2.743222 0,4.086935 l 3.5394,-2.043482 z"
       style="mix-blend-mode:normal;fill:#5fbcd3;fill-opacity:1;fill-rule:evenodd;stroke:none;stroke-width:0;stroke-miterlimit:4;stroke-dasharray:none;stroke-opacity:1"
       id="path1093" />
    <path
       id="path1095"
       style="mix-blend-mode:normal;fill:#5fbcd3;fill-opacity:1;fill-rule:evenodd;stroke:none;stroke-width:0;stroke-miterlimit:4;stroke-dasharray:none;stroke-opacity:1"
       d="m 352.10656,80.862404 -3.53939,2.04348 -3.53937,2.043479 3.53937,2.043479 3.53939,-2.043479 z" />
    <g
       id="g1231"
       style="fill:#5fbcd3">
      <path
         d="m 373.34284,89.036335 -3.53937,2.043451 c -0.6211,1.792879 -0.3813,2.988949 0,4.086934 l 3.53937,-2.043483 z"
         style="mix-blend-mode:normal;fill:#5fbcd3;fill-opacity:1;fill-rule:evenodd;stroke:none;stroke-width:0;stroke-miterlimit:4;stroke-dasharray:none;stroke-opacity:1"
         id="path1083" />
      <path
         d="m 369.8035,91.079786 -3.5394,2.043449 c -0.29265,1.468905 -0.26092,2.819652 0,4.086932 l 3.5394,-2.043477 z"
         style="mix-blend-mode:normal;fill:#5fbcd3;fill-opacity:1;fill-rule:evenodd;stroke:none;stroke-width:0;stroke-miterlimit:4;stroke-dasharray:none;stroke-opacity:1"
         id="path1087" />
      <path
         d="m 366.26398,93.123212 -3.5394,2.043453 c -0.19265,1.383622 -0.11529,2.737382 0,4.086932 l 3.5394,-2.04348 z"
         style="mix-blend-mode:normal;fill:#5fbcd3;fill-opacity:1;fill-rule:evenodd;stroke:none;stroke-width:0;stroke-miterlimit:4;stroke-dasharray:none;stroke-opacity:1"
         id="path1097" />
      <path
         d="m 415.81516,84.949508 -3.5394,2.043334 -3.53938,2.043479 v 0 l -3.53922,2.043335 v 4.086809 l 3.53938,-2.043482 3.53922,-2.043327 3.5394,-2.043479 z m -10.61817,6.130293 -3.53937,2.043483 -3.53939,2.043475 -3.53938,2.043328 v 4.086963 l 3.53938,-2.043483 3.53939,-2.04348 v 0 l 3.53937,-2.043478 z"
         style="mix-blend-mode:normal;fill:#5fbcd3;fill-opacity:1;fill-rule:evenodd;stroke:none;stroke-width:0;stroke-miterlimit:4;stroke-dasharray:none;stroke-opacity:1"
         id="path1099" />
      <g
         style="fill:#5fbcd3"
         id="g1192">
        <path
           id="path1089"
           style="mix-blend-mode:normal;fill:#5fbcd3;fill-opacity:1;fill-rule:evenodd;stroke:none;stroke-width:0;stroke-miterlimit:4;stroke-dasharray:none;stroke-opacity:1"
           d="m 376.8821,74.732109 v 4.086961 4.086958 l 3.53936,-2.043479 v -4.08696 z" />
        <path
           d="m 387.50015,97.210147 c -0.15765,1.46309 -0.31738,2.927503 0,4.086933 l 3.53939,-2.043483 z"
           style="mix-blend-mode:normal;fill:#5fbcd3;fill-opacity:1;fill-rule:evenodd;stroke:none;stroke-width:0;stroke-miterlimit:4;stroke-dasharray:none;stroke-opacity:1"
           id="path1101" />
        <path
           d="m 387.50015,97.210147 -3.53938,2.04345 c -0.28019,1.241433 -0.67961,2.431453 0,4.086943 l 3.53938,-2.04349 z"
           style="mix-blend-mode:normal;fill:#5fbcd3;fill-opacity:1;fill-rule:evenodd;stroke:none;stroke-width:0;stroke-miterlimit:4;stroke-dasharray:none;stroke-opacity:1"
           id="path1103" />
        <path
           id="path1105"
           style="mix-blend-mode:normal;fill:#5fbcd3;fill-opacity:1;fill-rule:evenodd;stroke:none;stroke-width:0;stroke-miterlimit:4;stroke-dasharray:none;stroke-opacity:1"
           d="m 380.42146,84.949363 -3.53936,2.043479 v 4.086959 0 4.086664 0 4.086962 0 4.086963 4.08696 l 3.53936,-2.04348 v 0 l 3.5394,-2.04348 v -4.086823 l -3.5394,2.043343 v -4.086823 -4.086659 0 -4.086959 0 z" />
        <path
           id="path1107"
           style="mix-blend-mode:normal;fill:#5fbcd3;fill-opacity:1;fill-rule:evenodd;stroke:none;stroke-width:0;stroke-miterlimit:4;stroke-dasharray:none;stroke-opacity:1"
           d="m 376.8821,70.645151 -3.53941,2.043479 -3.53936,2.043479 -3.5394,2.04348 v 0 l -3.53937,2.043327 v 4.086815 4.086958 c 1.22259,-0.253362 2.40509,-0.907452 3.53937,-2.04348 v -4.086813 l 3.5394,-2.04348 3.53936,-2.043481 3.53941,-2.043479 z" />
        <path
           d="m 366.26404,84.949339 -3.53939,2.043454 v 4.086935 l 3.53939,-2.043482 z"
           style="mix-blend-mode:normal;fill:#5fbcd3;fill-opacity:1;fill-rule:evenodd;stroke:none;stroke-width:0;stroke-miterlimit:4;stroke-dasharray:none;stroke-opacity:1"
           id="path1109" />
        <path
           d="m 394.579,84.949401 c -1.56687,0.31534 -2.50802,1.222023 -3.53941,2.043453 v 4.086935 c 1.17716,-0.561179 2.35243,-1.038052 3.53941,-2.043483 z"
           style="mix-blend-mode:normal;fill:#5fbcd3;fill-opacity:1;fill-rule:evenodd;stroke:none;stroke-width:0;stroke-miterlimit:4;stroke-dasharray:none;stroke-opacity:1"
           id="path1111" />
        <path
           id="path1113"
           style="mix-blend-mode:normal;fill:#5fbcd3;fill-opacity:1;fill-rule:evenodd;stroke:none;stroke-width:0;stroke-miterlimit:4;stroke-dasharray:none;stroke-opacity:1"
           d="m 394.57885,76.775589 -3.53937,2.043481 v 4.086958 0 4.086958 c 1.17978,-0.681157 2.35956,-1.362318 3.53937,-2.043478 v -4.086815 0 z" />
        <path
           d="m 387.5002,80.862492 -3.53937,2.043456 c -0.1518,1.387965 -0.27355,2.770857 0,4.086934 l 3.53937,-2.043481 z"
           style="mix-blend-mode:normal;fill:#5fbcd3;fill-opacity:1;fill-rule:evenodd;stroke:none;stroke-width:0;stroke-miterlimit:4;stroke-dasharray:none;stroke-opacity:1"
           id="path1115" />
        <path
           d="m 383.96097,82.905974 -3.53939,2.043453 c -0.30158,1.440868 -0.63526,2.89011 0,4.086932 l 3.53939,-2.04348 z"
           style="mix-blend-mode:normal;fill:#5fbcd3;fill-opacity:1;fill-rule:evenodd;stroke:none;stroke-width:0;stroke-miterlimit:4;stroke-dasharray:none;stroke-opacity:1"
           id="path1117" />
        <path
           id="path1119"
           style="mix-blend-mode:normal;fill:#5fbcd3;fill-opacity:1;fill-rule:evenodd;stroke:none;stroke-width:0;stroke-miterlimit:4;stroke-dasharray:none;stroke-opacity:1"
           d="m 394.57894,89.03633 -3.5394,2.043454 3.5394,2.043451 z" />
      </g>
      <path
         id="path1139"
         style="mix-blend-mode:normal;fill:#5fbcd3;fill-opacity:1;fill-rule:evenodd;stroke:none;stroke-width:0;stroke-miterlimit:4;stroke-dasharray:none;stroke-opacity:1"
         d="m 362.72465,95.166665 -3.53937,2.043452 v 4.086943 l 3.53937,-2.043483 c 0,-1.36231 0,-2.72461 0,-4.086912 z" />
    </g>
  </g>
  <g
     transform="translate(-335.94903,-64.558336)"
     style="fill:#216778"
     id="g1283">
    <path
       id="path1071"
       style="fill:#216778;fill-opacity:1;fill-rule:evenodd;stroke:none;stroke-width:0.0147355;stroke-opacity:1"
       d="m 337.94903,84.949363 v 4.086958 l 3.53937,2.04348 3.5394,2.043483 v 0 l 3.53937,2.043475 3.53923,2.043338 v 0 0 l 3.53925,2.04348 3.53936,2.043483 v -4.086963 l -3.53936,-2.043482 -3.53925,-2.043481 -3.53938,-2.043325 -3.53936,-2.043479 -3.53941,-2.043479 z" />
    <g
       id="g1262"
       style="fill:#216778">
      <path
         d="m 380.42137,89.036301 3.5394,2.043452 c 0.24401,1.58353 0.29219,2.989531 0,4.086937 l -3.5394,-2.043481 z"
         style="fill:#216778;fill-opacity:1;fill-rule:evenodd;stroke:none;stroke-width:0.0147355;stroke-opacity:1"
         id="path1065" />
      <path
         d="m 383.96077,91.079753 3.53938,2.043456 c 0.21227,1.473718 0.18992,2.824308 0,4.086938 l -3.53938,-2.043485 z"
         style="fill:#216778;fill-opacity:1;fill-rule:evenodd;stroke:none;stroke-width:0.0147355;stroke-opacity:1"
         id="path1067" />
      <path
         d="m 387.50009,93.123284 v 4.086953 l 3.53939,2.04348 v 0 l 3.53952,2.043493 v -4.086973 l -3.53952,-2.043323 z"
         style="fill:#216778;fill-opacity:1;fill-rule:evenodd;stroke:none;stroke-width:0.0147355;stroke-opacity:1"
         id="path1069" />
      <g
         id="g1243"
         style="fill:#216778">
        <path
           id="path1057"
           style="fill:#216778;fill-opacity:1;fill-rule:evenodd;stroke:none;stroke-width:0.0147355;stroke-opacity:1"
           d="m 376.8821,74.732109 -3.53941,2.04348 v 4.08696 l 3.53941,2.043479 V 78.81907 Z" />
        <path
           id="path1075"
           style="fill:#216778;fill-opacity:1;fill-rule:evenodd;stroke:none;stroke-width:0.0147355;stroke-opacity:1"
           d="m 366.26404,97.210087 c 0.26832,1.54168 0.17615,2.842383 0,4.086943 l -3.53939,-2.043493 z" />
        <path
           id="path1085"
           style="fill:#216778;fill-opacity:1;fill-rule:evenodd;stroke:none;stroke-width:0.0147355;stroke-opacity:1"
           d="m 366.26402,97.210087 3.53939,2.04345 c 0.44325,1.278283 0.33922,2.660313 0,4.086943 l -3.53939,-2.04349 z" />
        <path
           id="path1141"
           style="fill:#216778;fill-opacity:1;fill-rule:evenodd;stroke-width:0.289042"
           d="m 373.34269,84.949363 v 4.086958 0 0 4.086813 0 4.086963 4.086823 l -3.53922,-2.043343 v 4.086823 l 3.53922,2.04333 v 0 0 l 3.53925,2.04348 v -4.08682 -4.086963 -4.086962 0 -4.086963 0 0 -4.086805 z" />
        <path
           id="path1143"
           style="fill:#216778;fill-opacity:1;fill-rule:evenodd;stroke:none;stroke-width:0.0147355;stroke-opacity:1"
           d="m 359.18533,76.775589 v 4.086815 4.086959 4.086805 c 1.04448,1.026149 2.11515,1.985465 3.53937,2.043482 v -4.086808 0 -4.086804 -4.086961 z" />
        <path
           id="path1145"
           style="fill:#216778;fill-opacity:1;fill-rule:evenodd;stroke:none;stroke-width:0.0147355;stroke-opacity:1"
           d="m 376.8821,70.645151 v 4.086958 l 3.53936,2.04348 3.5394,2.043481 3.53923,2.043334 v 0 0 4.086815 c 0.99974,1.518123 2.1613,2.284122 3.53939,2.043478 v -4.08696 0 -4.08666 l -3.53925,-2.04348 -3.53937,-2.043479 -3.53937,-2.043479 z" />
        <path
           id="path1147"
           style="fill:#216778;fill-opacity:1;fill-rule:evenodd;stroke:none;stroke-width:0.0147355;stroke-opacity:1"
           d="m 387.50023,84.949401 3.5394,2.043453 v 4.086935 l -3.5394,-2.043483 z" />
        <path
           id="path1149"
           style="fill:#216778;fill-opacity:1;fill-rule:evenodd;stroke:none;stroke-width:0.0147355;stroke-opacity:1"
           d="m 366.26395,80.862492 3.5394,2.043456 c 0.37922,1.602057 0.10313,2.789828 0,4.086934 l -3.5394,-2.043481 z" />
        <path
           id="path1151"
           style="fill:#216778;fill-opacity:1;fill-rule:evenodd;stroke:none;stroke-width:0.0147355;stroke-opacity:1"
           d="m 369.80335,82.905915 3.53937,2.043451 c 0.2243,1.492896 0.0781,2.770068 0,4.086938 l -3.53937,-2.043481 z" />
        <path
           d="m 359.1851,89.036246 3.5394,2.043451 -3.5394,2.043457 z"
           style="fill:#216778;fill-opacity:1;fill-rule:evenodd;stroke:none;stroke-width:0.0147355;stroke-opacity:1"
           id="path1153" />
      </g>
      <path
         d="m 401.65762,80.862549 v 4.086959 l 3.53937,2.043478 v 0 l 3.53939,-2.043334 -3.53939,-2.043479 z"
         style="fill:#216778;fill-opacity:1;fill-rule:evenodd;stroke:none;stroke-width:0.0147355;stroke-opacity:1"
         id="path1155" />
      <path
         sodipodi:nodetypes="ccccc"
         d="m 394.57882,76.775666 3.53941,2.043453 c 0.49624,1.632501 0.48619,2.984419 0,4.086933 l -3.53941,-2.043482 z"
         style="fill:#216778;fill-opacity:1;fill-rule:evenodd;stroke:none;stroke-width:0.0147355;stroke-opacity:1"
         id="path1157" />
      <path
         d="m 398.11823,78.819119 3.53939,2.043451 c 0.19362,1.565029 0.10102,2.830391 0,4.086938 l -3.53939,-2.043482 z"
         style="fill:#216778;fill-opacity:1;fill-rule:evenodd;stroke:none;stroke-width:0.0147355;stroke-opacity:1"
         id="path1159" />
    </g>
  </g>
  <g
     transform="translate(-335.94903,-64.558336)"
     style="fill:#afdde9"
     id="g1328">
    <path
       id="path1081"
       style="fill:#afdde9;fill-opacity:1;fill-rule:evenodd;stroke:none;stroke-width:0;stroke-miterlimit:4;stroke-dasharray:none;stroke-opacity:1"
       d="m 376.8821,66.558336 -3.53941,2.043334 -3.53936,2.043481 -3.5394,2.043479 -3.53923,2.043479 v 0 l -3.53922,2.04348 3.53936,2.043334 3.53923,-2.043334 v 0 l 3.53926,-2.04348 3.53936,-2.043479 3.53941,-2.043479 3.53936,2.043479 3.5394,2.043479 3.53937,2.04348 3.53922,2.043481 3.5394,-2.043481 -3.53922,-2.04348 -3.5394,-2.043479 -3.53937,-2.043479 -3.5394,-2.043481 z" />
    <g
       style="fill:#afdde9"
       id="g1212">
      <path
         id="path1051"
         style="fill:#afdde9;fill-opacity:1;fill-rule:evenodd;stroke:none;stroke-width:0;stroke-miterlimit:4;stroke-dasharray:none;stroke-opacity:1"
         d="m 383.96074,86.992848 -3.53937,2.043453 3.53937,2.043452 c 1.43977,-0.442128 2.49819,-1.234858 3.53937,-2.043452 z" />
      <path
         id="path1053"
         style="fill:#afdde9;fill-opacity:1;fill-rule:evenodd;stroke:none;stroke-width:0;stroke-miterlimit:4;stroke-dasharray:none;stroke-opacity:1"
         d="m 387.50017,89.036275 -3.53934,2.043453 3.53934,2.043452 c 1.26817,-0.534768 2.60565,-0.954672 3.5394,-2.043452 z" />
      <path
         d="m 401.65762,76.775589 -3.53939,2.043481 3.53939,2.043479 3.53937,2.043479 3.53939,2.043335 3.53938,-2.043335 -3.53938,-2.043479 -3.53939,-2.043479 z m 10.61814,6.130439 -3.53922,2.04348 v 0 l -3.53941,2.043478 -3.53937,2.043483 -3.53939,2.043479 -3.53937,2.04348 3.53937,2.043326 3.53939,-2.043326 3.53937,-2.04348 3.53941,-2.043479 3.53937,-2.043483 3.53939,-2.043334 z m -17.69691,10.217256 -3.53937,-2.043483 -3.53939,2.043483 3.53939,2.043475 3.53937,2.043478 3.53938,-2.043478 z"
         style="fill:#afdde9;fill-opacity:1;fill-rule:evenodd;stroke:none;stroke-width:0;stroke-miterlimit:4;stroke-dasharray:none;stroke-opacity:1"
         id="path1055" />
      <path
         id="path1061"
         style="fill:#afdde9;fill-opacity:1;fill-rule:evenodd;stroke:none;stroke-width:0;stroke-miterlimit:4;stroke-dasharray:none;stroke-opacity:1"
         d="m 383.9608,95.16669 -3.53937,2.043457 c 0.82548,1.01486 2.10072,1.60611 3.53937,2.04345 l 3.53937,-2.04345 z" />
      <path
         id="path1063"
         style="fill:#afdde9;fill-opacity:1;fill-rule:evenodd;stroke:none;stroke-width:0;stroke-miterlimit:4;stroke-dasharray:none;stroke-opacity:1"
         d="m 380.42146,97.210057 v 4.086913 l 3.5394,-2.043463 z" />
      <path
         id="path1077"
         style="fill:#afdde9;fill-opacity:1;fill-rule:evenodd;stroke:none;stroke-width:0;stroke-miterlimit:4;stroke-dasharray:none;stroke-opacity:1"
         d="m 369.80335,95.166656 -3.53937,2.043451 3.53937,2.04346 c 1.31127,-0.61265 2.65002,-1.21097 3.53941,-2.04346 z" />
      <path
         id="path1079"
         style="fill:#afdde9;fill-opacity:1;fill-rule:evenodd;stroke:none;stroke-width:0;stroke-miterlimit:4;stroke-dasharray:none;stroke-opacity:1"
         d="m 373.34276,97.210107 -3.53938,2.04346 3.53938,2.043453 z" />
      <path
         id="path1121"
         style="fill:#afdde9;fill-opacity:1;fill-rule:evenodd;stroke:none;stroke-width:0;stroke-miterlimit:4;stroke-dasharray:none;stroke-opacity:1"
         d="m 369.80333,78.819042 -3.53938,2.04345 3.53938,2.043456 c 1.3454,-0.497724 2.61218,-1.082527 3.53936,-2.043456 z" />
      <path
         d="m 373.34269,80.862404 -3.53936,2.04348 3.53936,2.043479 3.53941,2.043479 3.53936,-2.043479 v 0 l 3.5394,-2.043335 -3.5394,-2.043479 -3.53936,2.043479 v 0 z"
         style="fill:#afdde9;fill-opacity:1;fill-rule:evenodd;stroke:none;stroke-width:0;stroke-miterlimit:4;stroke-dasharray:none;stroke-opacity:1"
         id="path1123" />
      <path
         d="m 369.80335,86.992823 -3.53937,2.043452 c 1.10131,0.762538 2.24461,1.481534 3.53937,2.043453 l 3.53941,-2.043453 z"
         style="fill:#afdde9;fill-opacity:1;fill-rule:evenodd;stroke:none;stroke-width:0;stroke-miterlimit:4;stroke-dasharray:none;stroke-opacity:1"
         id="path1125" />
      <path
         d="m 366.26398,89.036273 -3.53937,2.043449 c 0.98448,0.832629 2.13362,1.537569 3.53937,2.043458 l 3.5394,-2.043458 z"
         style="fill:#afdde9;fill-opacity:1;fill-rule:evenodd;stroke:none;stroke-width:0;stroke-miterlimit:4;stroke-dasharray:none;stroke-opacity:1"
         id="path1127" />
      <path
         id="path1129"
         style="fill:#afdde9;fill-opacity:1;fill-rule:evenodd;stroke:none;stroke-width:0;stroke-miterlimit:4;stroke-dasharray:none;stroke-opacity:1"
         d="m 383.96083,78.819042 -3.53937,2.04345 c 0.92308,0.828739 2.18755,1.461219 3.53937,2.043456 l 3.53937,-2.043456 z" />
      <path
         d="m 359.18533,72.688624 -3.53937,2.043454 c 1.09764,0.873237 2.29447,1.514489 3.53937,2.043452 l 3.53937,-2.043452 z"
         style="fill:#afdde9;fill-opacity:1;fill-rule:evenodd;stroke:none;stroke-width:0;stroke-miterlimit:4;stroke-dasharray:none;stroke-opacity:1"
         id="path1131" />
      <path
         id="path1133"
         style="fill:#afdde9;fill-opacity:1;fill-rule:evenodd;stroke:none;stroke-width:0;stroke-miterlimit:4;stroke-dasharray:none;stroke-opacity:1"
         d="m 355.64593,74.732078 -3.53937,2.043452 c 0.8212,1.095797 2.00121,1.776698 3.53937,2.043451 l 3.5394,-2.043451 z" />
      <path
         d="m 352.10656,76.775589 -3.53939,2.043334 -3.53937,2.043481 -3.5394,2.04348 -3.53937,2.043479 3.53937,2.043479 3.5394,2.043479 3.53937,2.04348 3.53939,2.043326 3.53923,2.043482 3.53922,2.043478 3.53955,-2.043478 -3.53941,-2.043325 v 0 l -3.53936,-2.043331 -3.53939,-2.043478 -3.53938,-2.04348 -3.53936,-2.043479 3.53936,-2.043478 3.53938,-2.043482 3.53939,-2.043479 z"
         style="fill:#afdde9;fill-opacity:1;fill-rule:evenodd;stroke:none;stroke-width:0;stroke-miterlimit:4;stroke-dasharray:none;stroke-opacity:1"
         id="path1135" />
      <path
         id="path1137"
         style="fill:#afdde9;fill-opacity:1;fill-rule:evenodd;stroke:none;stroke-width:0;stroke-miterlimit:4;stroke-dasharray:none;stroke-opacity:1"
         d="m 362.72465,91.079722 -3.53935,2.043458 c 1.04356,0.77903 2.27028,1.426445 3.53935,2.04345 l 3.53939,-2.04345 z" />
      <path
         d="m 394.57882,72.68876 -3.53937,2.04345 3.53937,2.043456 c 1.31571,-0.544169 2.56241,-1.157894 3.53941,-2.043456 z"
         style="fill:#afdde9;fill-opacity:1;fill-rule:evenodd;stroke:none;stroke-width:0;stroke-miterlimit:4;stroke-dasharray:none;stroke-opacity:1"
         id="path1161" />
      <path
         id="path1163"
         style="fill:#afdde9;fill-opacity:1;fill-rule:evenodd;stroke:none;stroke-width:0;stroke-miterlimit:4;stroke-dasharray:none;stroke-opacity:1"
         d="m 398.11823,74.73221 -3.53938,2.043456 3.53938,2.043453 c 1.30802,-0.558732 2.6252,-1.108681 3.53939,-2.043453 z" />
    </g>
  </g>
  <g
     id="g1179"
     style="stroke-width:0.705556;stroke-miterlimit:4;stroke-dasharray:none"
     transform="matrix(0.28904136,0,0,0.28904136,-434.85594,-149.31375)">
    <path
       id="path1165"
       d="m 1597.1132,565.92014 48.98,-28.2789"
       style="fill:none;stroke:#ffffff;stroke-width:0.705556;stroke-linecap:butt;stroke-linejoin:miter;stroke-miterlimit:4;stroke-dasharray:none;stroke-opacity:1" />
    <path
       id="path1167"
       d="m 1695.0735,565.92064 12.2452,-7.06958"
       style="fill:none;stroke:#ffffff;stroke-width:0.705556;stroke-linecap:butt;stroke-linejoin:miter;stroke-miterlimit:4;stroke-dasharray:none;stroke-opacity:1" />
    <path
       id="path1169"
       d="m 1633.8483,601.26946 -48.9811,28.27892"
       style="fill:none;stroke:#ffffff;stroke-width:0.705556;stroke-linecap:butt;stroke-linejoin:miter;stroke-miterlimit:4;stroke-dasharray:none;stroke-opacity:1" />
    <path
       id="path1171"
       d="m 1707.3188,629.54828 73.472,-42.41758"
       style="fill:none;stroke:#ffffff;stroke-width:0.705556;stroke-linecap:butt;stroke-linejoin:miter;stroke-miterlimit:4;stroke-dasharray:none;stroke-opacity:1" />
    <path
       id="path1173"
       d="m 1682.8283,572.99001 -36.7352,21.20954"
       style="fill:none;stroke:#ffffff;stroke-width:0.705556;stroke-linecap:butt;stroke-linejoin:miter;stroke-miterlimit:4;stroke-dasharray:none;stroke-opacity:1" />
    <path
       id="path1175"
       d="m 1584.8674,558.8508 -48.981,28.2789"
       style="fill:none;stroke:#ffffff;stroke-width:0.705556;stroke-linecap:butt;stroke-linejoin:miter;stroke-miterlimit:4;stroke-dasharray:none;stroke-opacity:1" />
    <path
       style="fill:none;stroke:#ffffff;stroke-width:0.705556;stroke-linecap:butt;stroke-linejoin:miter;stroke-miterlimit:4;stroke-dasharray:none;stroke-opacity:1"
       d="m 1682.8287,629.54849 -24.4904,14.13921"
       id="path1177" />
  </g>
</svg>
