<?xml version="1.0" encoding="UTF-8" standalone="no"?><svg xmlns="http://www.w3.org/2000/svg" xmlns:xlink="http://www.w3.org/1999/xlink" contentStyleType="text/css" height="1364px" preserveAspectRatio="none" style="width:735px;height:1364px;background:#FFFFFF;" version="1.1" viewBox="0 0 735 1364" width="735px" zoomAndPan="magnify"><defs/><g><text fill="#000000" font-family="sans-serif" font-size="14" font-weight="bold" lengthAdjust="spacing" textLength="266" x="230.5" y="27.9951">ODF Smart Transfer Protocol: Pull</text><rect fill="#FFFFFF" height="47.1328" style="stroke:#181818;stroke-width:1.0;" width="10" x="659.5" y="513.8516"/><rect fill="#FFFFFF" height="77.3984" style="stroke:#181818;stroke-width:1.0;" width="10" x="659.5" y="909.8438"/><rect fill="#FFFFFF" height="47.1328" style="stroke:#181818;stroke-width:1.0;" width="10" x="659.5" y="1189.4375"/><rect fill="none" height="110.5313" style="stroke:#000000;stroke-width:1.5;" width="355" x="353" y="475.5859"/><rect fill="none" height="546.0547" style="stroke:#000000;stroke-width:1.5;" width="709" x="9" y="722.6484"/><rect fill="none" height="140.7969" style="stroke:#000000;stroke-width:1.5;" width="346" x="362" y="871.5781"/><rect fill="none" height="110.5313" style="stroke:#000000;stroke-width:1.5;" width="665" x="43" y="1151.1719"/><line style="stroke:#181818;stroke-width:0.5;stroke-dasharray:5.0,5.0;" x1="158" x2="158" y1="73.5938" y2="1328.8359"/><line style="stroke:#181818;stroke-width:0.5;stroke-dasharray:5.0,5.0;" x1="454" x2="454" y1="73.5938" y2="1328.8359"/><line style="stroke:#181818;stroke-width:0.5;stroke-dasharray:5.0,5.0;" x1="664" x2="664" y1="73.5938" y2="1328.8359"/><rect fill="#E2E2F0" height="30.2969" rx="2.5" ry="2.5" style="stroke:#181818;stroke-width:0.5;" width="51" x="133" y="42.2969"/><text fill="#000000" font-family="sans-serif" font-size="14" lengthAdjust="spacing" textLength="37" x="140" y="62.292">client</text><rect fill="#E2E2F0" height="30.2969" rx="2.5" ry="2.5" style="stroke:#181818;stroke-width:0.5;" width="51" x="133" y="1327.8359"/><text fill="#000000" font-family="sans-serif" font-size="14" lengthAdjust="spacing" textLength="37" x="140" y="1347.8311">client</text><rect fill="#E2E2F0" height="30.2969" rx="2.5" ry="2.5" style="stroke:#181818;stroke-width:0.5;" width="57" x="426" y="42.2969"/><text fill="#000000" font-family="sans-serif" font-size="14" lengthAdjust="spacing" textLength="43" x="433" y="62.292">server</text><rect fill="#E2E2F0" height="30.2969" rx="2.5" ry="2.5" style="stroke:#181818;stroke-width:0.5;" width="57" x="426" y="1327.8359"/><text fill="#000000" font-family="sans-serif" font-size="14" lengthAdjust="spacing" textLength="43" x="433" y="1347.8311">server</text><rect fill="#E2E2F0" height="30.2969" rx="2.5" ry="2.5" style="stroke:#181818;stroke-width:0.5;" width="67" x="631" y="42.2969"/><text fill="#000000" font-family="sans-serif" font-size="14" lengthAdjust="spacing" textLength="53" x="638" y="62.292">storage</text><rect fill="#E2E2F0" height="30.2969" rx="2.5" ry="2.5" style="stroke:#181818;stroke-width:0.5;" width="67" x="631" y="1327.8359"/><text fill="#000000" font-family="sans-serif" font-size="14" lengthAdjust="spacing" textLength="53" x="638" y="1347.8311">storage</text><rect fill="#FFFFFF" height="47.1328" style="stroke:#181818;stroke-width:1.0;" width="10" x="659.5" y="513.8516"/><rect fill="#FFFFFF" height="77.3984" style="stroke:#181818;stroke-width:1.0;" width="10" x="659.5" y="909.8438"/><rect fill="#FFFFFF" height="47.1328" style="stroke:#181818;stroke-width:1.0;" width="10" x="659.5" y="1189.4375"/><rect fill="#EEEEEE" height="3" style="stroke:#EEEEEE;stroke-width:1.0;" width="728" x="0" y="104.1602"/><line style="stroke:#000000;stroke-width:1.0;" x1="0" x2="728" y1="104.1602" y2="104.1602"/><line style="stroke:#000000;stroke-width:1.0;" x1="0" x2="728" y1="107.1602" y2="107.1602"/><rect fill="#EEEEEE" height="23.1328" style="stroke:#000000;stroke-width:2.0;" width="116" x="306" y="93.5938"/><text fill="#000000" font-family="sans-serif" font-size="13" font-weight="bold" lengthAdjust="spacing" textLength="97" x="312" y="109.6606">Initiating Pull</text><line style="stroke:#181818;stroke-width:1.0;" x1="452.5" x2="442.5" y1="147.8594" y2="143.8594"/><line style="stroke:#181818;stroke-width:1.0;" x1="452.5" x2="442.5" y1="147.8594" y2="151.8594"/><line style="stroke:#181818;stroke-width:1.0;" x1="158.5" x2="453.5" y1="147.8594" y2="147.8594"/><text fill="#000000" font-family="monospace" font-size="13" lengthAdjust="spacing" textLength="144" x="293.5" y="142.7935">DatasetPullRequest</text><path d="M66,160.8594 L66,215.8594 L251,215.8594 L251,170.8594 L241,160.8594 L66,160.8594 " fill="#FEFFDD" style="stroke:#181818;stroke-width:0.5;"/><path d="M241,160.8594 L241,170.8594 L251,170.8594 L241,160.8594 " fill="#FEFFDD" style="stroke:#181818;stroke-width:0.5;"/><text fill="#000000" font-family="sans-serif" font-size="13" lengthAdjust="spacing" textLength="153" x="72" y="177.9263">I'd like to pull everything</text><text fill="#000000" font-family="sans-serif" font-size="13" lengthAdjust="spacing" textLength="30" x="76" y="193.0591">after</text><text fill="#000000" font-family="sans-serif" font-size="13" font-style="italic" lengthAdjust="spacing" textLength="66" x="110" y="193.0591">beginAfter</text><text fill="#000000" font-family="sans-serif" font-size="13" lengthAdjust="spacing" textLength="33" x="180" y="193.0591">block</text><text fill="#000000" font-family="sans-serif" font-size="13" lengthAdjust="spacing" textLength="72" x="76" y="208.1919">[at most to</text><text fill="#000000" font-family="sans-serif" font-size="13" font-style="italic" lengthAdjust="spacing" textLength="42" x="152" y="208.1919">stopAt</text><text fill="#000000" font-family="sans-serif" font-size="13" lengthAdjust="spacing" textLength="38" x="198" y="208.1919">block]</text><path d="M321,226.2578 L321,326.2578 L588,326.2578 L588,236.2578 L578,226.2578 L321,226.2578 " fill="#FEFFDD" style="stroke:#181818;stroke-width:0.5;"/><path d="M578,226.2578 L578,236.2578 L588,236.2578 L578,226.2578 " fill="#FEFFDD" style="stroke:#181818;stroke-width:0.5;"/><text fill="#000000" font-family="sans-serif" font-size="13" lengthAdjust="spacing" textLength="22" x="327" y="243.3247">OK.</text><text fill="#000000" font-family="sans-serif" font-size="13" lengthAdjust="spacing" textLength="190" x="327" y="258.4575">The package would consist of:</text><text fill="#000000" font-family="sans-serif" font-size="13" lengthAdjust="spacing" textLength="5" x="331" y="273.5903">-</text><text fill="#000000" font-family="sans-serif" font-size="13" font-weight="bold" lengthAdjust="spacing" textLength="64" x="340" y="273.5903">N blocks</text><text fill="#000000" font-family="sans-serif" font-size="13" lengthAdjust="spacing" textLength="5" x="331" y="288.7231">-</text><text fill="#000000" font-family="sans-serif" font-size="13" font-style="italic" lengthAdjust="spacing" textLength="16" x="340" y="288.7231">xx</text><text fill="#000000" font-family="sans-serif" font-size="13" lengthAdjust="spacing" textLength="99" x="360" y="288.7231">Kb of metadata</text><text fill="#000000" font-family="sans-serif" font-size="13" lengthAdjust="spacing" textLength="5" x="331" y="303.856">-</text><text fill="#000000" font-family="sans-serif" font-size="13" font-style="italic" lengthAdjust="spacing" textLength="16" x="340" y="303.856">yy</text><text fill="#000000" font-family="sans-serif" font-size="13" lengthAdjust="spacing" textLength="83" x="360" y="303.856">Mb of data in</text><text fill="#000000" font-family="sans-serif" font-size="13" font-style="italic" lengthAdjust="spacing" textLength="11" x="447" y="303.856">M</text><text fill="#000000" font-family="sans-serif" font-size="13" lengthAdjust="spacing" textLength="25" x="462" y="303.856">files</text><text fill="#000000" font-family="sans-serif" font-size="13" lengthAdjust="spacing" textLength="246" x="327" y="318.9888">Go ahead, if this is what you expected.</text><line style="stroke:#181818;stroke-width:1.0;" x1="159.5" x2="169.5" y1="336.0547" y2="332.0547"/><line style="stroke:#181818;stroke-width:1.0;" x1="159.5" x2="169.5" y1="336.0547" y2="340.0547"/><line style="stroke:#181818;stroke-width:1.0;" x1="158.5" x2="453.5" y1="336.0547" y2="336.0547"/><text fill="#000000" font-family="monospace" font-size="13" lengthAdjust="spacing" textLength="152" x="295.5" y="349.1216">DatasetPullResponse</text><rect fill="#EEEEEE" height="3" style="stroke:#EEEEEE;stroke-width:1.0;" width="728" x="0" y="381.7539"/><line style="stroke:#000000;stroke-width:1.0;" x1="0" x2="728" y1="381.7539" y2="381.7539"/><line style="stroke:#000000;stroke-width:1.0;" x1="0" x2="728" y1="384.7539" y2="384.7539"/><rect fill="#EEEEEE" height="23.1328" style="stroke:#000000;stroke-width:2.0;" width="156" x="286" y="371.1875"/><text fill="#000000" font-family="sans-serif" font-size="13" font-weight="bold" lengthAdjust="spacing" textLength="137" x="292" y="387.2544">Transfer Metadata</text><line style="stroke:#181818;stroke-width:1.0;" x1="452.5" x2="442.5" y1="425.4531" y2="421.4531"/><line style="stroke:#181818;stroke-width:1.0;" x1="452.5" x2="442.5" y1="425.4531" y2="429.4531"/><line style="stroke:#181818;stroke-width:1.0;" x1="158.5" x2="453.5" y1="425.4531" y2="425.4531"/><text fill="#000000" font-family="monospace" font-size="13" lengthAdjust="spacing" textLength="208" x="229.5" y="420.3872">DatasetPullMetadataRequest</text><path d="M63,438.4531 L63,463.4531 L253,463.4531 L253,448.4531 L243,438.4531 L63,438.4531 " fill="#FEFFDD" style="stroke:#181818;stroke-width:0.5;"/><path d="M243,438.4531 L243,448.4531 L253,448.4531 L243,438.4531 " fill="#FEFFDD" style="stroke:#181818;stroke-width:0.5;"/><text fill="#000000" font-family="sans-serif" font-size="13" lengthAdjust="spacing" textLength="169" x="69" y="455.52">Please send the metadata</text><path d="M353,475.5859 L423,475.5859 L423,482.7188 L413,492.7188 L353,492.7188 L353,475.5859 " fill="#EEEEEE" style="stroke:#000000;stroke-width:1.5;"/><rect fill="none" height="110.5313" style="stroke:#000000;stroke-width:1.5;" width="355" x="353" y="475.5859"/><text fill="#000000" font-family="sans-serif" font-size="13" font-weight="bold" lengthAdjust="spacing" textLength="25" x="368" y="488.6528">par</text><text fill="#000000" font-family="sans-serif" font-size="11" font-weight="bold" lengthAdjust="spacing" textLength="58" x="438" y="487.7964">[N times]</text><polygon fill="#181818" points="647.5,509.8516,657.5,513.8516,647.5,517.8516,651.5,513.8516" style="stroke:#181818;stroke-width:1.0;"/><line style="stroke:#181818;stroke-width:1.0;" x1="454.5" x2="653.5" y1="513.8516" y2="513.8516"/><text fill="#000000" font-family="sans-serif" font-size="13" lengthAdjust="spacing" textLength="47" x="595.5" y="508.7856">GET file</text><path d="M363,526.8516 L363,551.8516 L546,551.8516 L546,536.8516 L536,526.8516 L363,526.8516 " fill="#FEFFDD" style="stroke:#181818;stroke-width:0.5;"/><path d="M536,526.8516 L536,536.8516 L546,536.8516 L536,526.8516 " fill="#FEFFDD" style="stroke:#181818;stroke-width:0.5;"/><text fill="#000000" font-family="sans-serif" font-size="13" lengthAdjust="spacing" textLength="162" x="369" y="543.9185">Download message block</text><polygon fill="#181818" points="465.5,556.9844,455.5,560.9844,465.5,564.9844,461.5,560.9844" style="stroke:#181818;stroke-width:1.0;"/><line style="stroke:#181818;stroke-width:1.0;" x1="459.5" x2="663.5" y1="560.9844" y2="560.9844"/><text fill="#000000" font-family="sans-serif" font-size="13" lengthAdjust="spacing" textLength="98" x="559.5" y="574.0513">[200 Accepted]</text><path d="M349,598.1172 L349,638.1172 L559,638.1172 L559,608.1172 L549,598.1172 L349,598.1172 " fill="#FEFFDD" style="stroke:#181818;stroke-width:0.5;"/><path d="M549,598.1172 L549,608.1172 L559,608.1172 L549,598.1172 " fill="#FEFFDD" style="stroke:#181818;stroke-width:0.5;"/><text fill="#000000" font-family="sans-serif" font-size="13" lengthAdjust="spacing" textLength="189" x="355" y="615.1841">Here is the metadata for you:</text><text fill="#000000" font-family="sans-serif" font-size="13" lengthAdjust="spacing" textLength="4" x="355" y="630.3169"> </text><text fill="#000000" font-family="monospace" font-size="13" lengthAdjust="spacing" textLength="184" x="359" y="630.3169">requested-blocks.tar.gz</text><line style="stroke:#181818;stroke-width:1.0;" x1="159.5" x2="169.5" y1="647.3828" y2="643.3828"/><line style="stroke:#181818;stroke-width:1.0;" x1="159.5" x2="169.5" y1="647.3828" y2="651.3828"/><line style="stroke:#181818;stroke-width:1.0;" x1="158.5" x2="453.5" y1="647.3828" y2="647.3828"/><text fill="#000000" font-family="monospace" font-size="13" lengthAdjust="spacing" textLength="216" x="231.5" y="660.4497">DatasetMetadataPullResponse</text><rect fill="#EEEEEE" height="3" style="stroke:#EEEEEE;stroke-width:1.0;" width="728" x="0" y="693.082"/><line style="stroke:#000000;stroke-width:1.0;" x1="0" x2="728" y1="693.082" y2="693.082"/><line style="stroke:#000000;stroke-width:1.0;" x1="0" x2="728" y1="696.082" y2="696.082"/><rect fill="#EEEEEE" height="23.1328" style="stroke:#000000;stroke-width:2.0;" width="141" x="293.5" y="682.5156"/><text fill="#000000" font-family="sans-serif" font-size="13" font-weight="bold" lengthAdjust="spacing" textLength="122" x="299.5" y="698.5825">Transfer Objects</text><path d="M9,722.6484 L86,722.6484 L86,729.7813 L76,739.7813 L9,739.7813 L9,722.6484 " fill="#EEEEEE" style="stroke:#000000;stroke-width:1.5;"/><rect fill="none" height="546.0547" style="stroke:#000000;stroke-width:1.5;" width="709" x="9" y="722.6484"/><text fill="#000000" font-family="sans-serif" font-size="13" font-weight="bold" lengthAdjust="spacing" textLength="32" x="24" y="735.7153">loop</text><line style="stroke:#181818;stroke-width:1.0;" x1="452.5" x2="442.5" y1="760.9141" y2="756.9141"/><line style="stroke:#181818;stroke-width:1.0;" x1="452.5" x2="442.5" y1="760.9141" y2="764.9141"/><line style="stroke:#181818;stroke-width:1.0;" x1="158.5" x2="453.5" y1="760.9141" y2="760.9141"/><text fill="#000000" font-family="monospace" font-size="13" lengthAdjust="spacing" textLength="264" x="173.5" y="755.8481">DatasetPullObjectsTransferRequest</text><path d="M19,773.9141 L19,858.9141 L297,858.9141 L297,783.9141 L287,773.9141 L19,773.9141 " fill="#FEFFDD" style="stroke:#181818;stroke-width:0.5;"/><path d="M287,773.9141 L287,783.9141 L297,783.9141 L287,773.9141 " fill="#FEFFDD" style="stroke:#181818;stroke-width:0.5;"/><text fill="#000000" font-family="sans-serif" font-size="13" lengthAdjust="spacing" textLength="257" x="25" y="790.981">I'd like to download the following objects:</text><text fill="#000000" font-family="sans-serif" font-size="13" lengthAdjust="spacing" textLength="60" x="29" y="806.1138">- object 1</text><text fill="#000000" font-family="sans-serif" font-size="13" lengthAdjust="spacing" textLength="21" x="29" y="821.2466">- ...</text><text fill="#000000" font-family="sans-serif" font-size="13" lengthAdjust="spacing" textLength="60" x="29" y="836.3794">- object X</text><text fill="#000000" font-family="sans-serif" font-size="13" lengthAdjust="spacing" textLength="171" x="25" y="851.5122">Where do I get them from?</text><path d="M362,871.5781 L432,871.5781 L432,878.7109 L422,888.7109 L362,888.7109 L362,871.5781 " fill="#EEEEEE" style="stroke:#000000;stroke-width:1.5;"/><rect fill="none" height="140.7969" style="stroke:#000000;stroke-width:1.5;" width="346" x="362" y="871.5781"/><text fill="#000000" font-family="sans-serif" font-size="13" font-weight="bold" lengthAdjust="spacing" textLength="25" x="377" y="884.645">par</text><text fill="#000000" font-family="sans-serif" font-size="11" font-weight="bold" lengthAdjust="spacing" textLength="57" x="447" y="883.7886">[X times]</text><polygon fill="#181818" points="647.5,905.8438,657.5,909.8438,647.5,913.8438,651.5,909.8438" style="stroke:#181818;stroke-width:1.0;"/><line style="stroke:#181818;stroke-width:1.0;" x1="454.5" x2="653.5" y1="909.8438" y2="909.8438"/><text fill="#000000" font-family="sans-serif" font-size="13" lengthAdjust="spacing" textLength="186" x="456.5" y="904.7778">POST GeneratePresignedURL</text><path d="M372,922.8438 L372,977.8438 L537,977.8438 L537,932.8438 L527,922.8438 L372,922.8438 " fill="#FEFFDD" style="stroke:#181818;stroke-width:0.5;"/><path d="M527,922.8438 L527,932.8438 L537,932.8438 L527,922.8438 " fill="#FEFFDD" style="stroke:#181818;stroke-width:0.5;"/><text fill="#000000" font-family="sans-serif" font-size="13" lengthAdjust="spacing" textLength="144" x="378" y="939.9106">Create pre-signed URL</text><text fill="#000000" font-family="sans-serif" font-size="13" lengthAdjust="spacing" textLength="126" x="378" y="955.0435">to download this file</text><text fill="#000000" font-family="sans-serif" font-size="13" lengthAdjust="spacing" textLength="134" x="378" y="970.1763">from storage system</text><polygon fill="#181818" points="465.5,983.2422,455.5,987.2422,465.5,991.2422,461.5,987.2422" style="stroke:#181818;stroke-width:1.0;"/><line style="stroke:#181818;stroke-width:1.0;" x1="459.5" x2="663.5" y1="987.2422" y2="987.2422"/><text fill="#000000" font-family="sans-serif" font-size="13" lengthAdjust="spacing" textLength="56" x="601.5" y="1000.3091">[200 OK]</text><path d="M278,1024.375 L278,1109.375 L630,1109.375 L630,1034.375 L620,1024.375 L278,1024.375 " fill="#FEFFDD" style="stroke:#181818;stroke-width:0.5;"/><path d="M620,1024.375 L620,1034.375 L630,1034.375 L620,1024.375 " fill="#FEFFDD" style="stroke:#181818;stroke-width:0.5;"/><text fill="#000000" font-family="sans-serif" font-size="13" lengthAdjust="spacing" textLength="331" x="284" y="1041.4419">I've generated these download URLs for the objects:</text><text fill="#000000" font-family="sans-serif" font-size="13" lengthAdjust="spacing" textLength="142" x="288" y="1056.5747">- object 1: take it from</text><text fill="#000000" font-family="sans-serif" font-size="13" font-style="italic" lengthAdjust="spacing" textLength="29" x="434" y="1056.5747">here</text><text fill="#000000" font-family="sans-serif" font-size="13" lengthAdjust="spacing" textLength="21" x="288" y="1071.7075">- ...</text><text fill="#000000" font-family="sans-serif" font-size="13" lengthAdjust="spacing" textLength="142" x="288" y="1086.8403">- object X: take it from</text><text fill="#000000" font-family="sans-serif" font-size="13" font-style="italic" lengthAdjust="spacing" textLength="34" x="434" y="1086.8403">there</text><text fill="#000000" font-family="sans-serif" font-size="13" lengthAdjust="spacing" textLength="148" x="284" y="1101.9731">The URLs are valid until</text><text fill="#000000" font-family="sans-serif" font-size="13" font-style="italic" lengthAdjust="spacing" textLength="72" x="436" y="1101.9731">expiryTime</text><line style="stroke:#181818;stroke-width:1.0;" x1="159.5" x2="169.5" y1="1119.0391" y2="1115.0391"/><line style="stroke:#181818;stroke-width:1.0;" x1="159.5" x2="169.5" y1="1119.0391" y2="1123.0391"/><line style="stroke:#181818;stroke-width:1.0;" x1="158.5" x2="453.5" y1="1119.0391" y2="1119.0391"/><text fill="#000000" font-family="monospace" font-size="13" lengthAdjust="spacing" textLength="272" x="175.5" y="1132.106">DatasetPullObjectsTransferResponse</text><path d="M43,1151.1719 L113,1151.1719 L113,1158.3047 L103,1168.3047 L43,1168.3047 L43,1151.1719 " fill="#EEEEEE" style="stroke:#000000;stroke-width:1.5;"/><rect fill="none" height="110.5313" style="stroke:#000000;stroke-width:1.5;" width="665" x="43" y="1151.1719"/><text fill="#000000" font-family="sans-serif" font-size="13" font-weight="bold" lengthAdjust="spacing" textLength="25" x="58" y="1164.2388">par</text><text fill="#000000" font-family="sans-serif" font-size="11" font-weight="bold" lengthAdjust="spacing" textLength="57" x="128" y="1163.3823">[X times]</text><polygon fill="#181818" points="647.5,1185.4375,657.5,1189.4375,647.5,1193.4375,651.5,1189.4375" style="stroke:#181818;stroke-width:1.0;"/><line style="stroke:#181818;stroke-width:1.0;" x1="158.5" x2="653.5" y1="1189.4375" y2="1189.4375"/><text fill="#000000" font-family="sans-serif" font-size="13" lengthAdjust="spacing" textLength="25" x="501.5" y="1184.3716">GET</text><text fill="#000000" font-family="monospace" font-size="13" lengthAdjust="spacing" textLength="112" x="530.5" y="1184.3716">pre-signed URL</text><path d="M53,1202.4375 L53,1227.4375 L264,1227.4375 L264,1212.4375 L254,1202.4375 L53,1202.4375 " fill="#FEFFDD" style="stroke:#181818;stroke-width:0.5;"/><path d="M254,1202.4375 L254,1212.4375 L264,1212.4375 L254,1202.4375 " fill="#FEFFDD" style="stroke:#181818;stroke-width:0.5;"/><text fill="#000000" font-family="sans-serif" font-size="13" lengthAdjust="spacing" textLength="190" x="59" y="1219.5044">Downloading file from storage</text><polygon fill="#181818" points="169.5,1232.5703,159.5,1236.5703,169.5,1240.5703,165.5,1236.5703" style="stroke:#181818;stroke-width:1.0;"/><line style="stroke:#181818;stroke-width:1.0;" x1="163.5" x2="663.5" y1="1236.5703" y2="1236.5703"/><text fill="#000000" font-family="sans-serif" font-size="13" lengthAdjust="spacing" textLength="56" x="601.5" y="1249.6372">[200 OK]</text><rect fill="#EEEEEE" height="3" style="stroke:#EEEEEE;stroke-width:1.0;" width="728" x="0" y="1296.2695"/><line style="stroke:#000000;stroke-width:1.0;" x1="0" x2="728" y1="1296.2695" y2="1296.2695"/><line style="stroke:#000000;stroke-width:1.0;" x1="0" x2="728" y1="1299.2695" y2="1299.2695"/><rect fill="#EEEEEE" height="23.1328" style="stroke:#000000;stroke-width:2.0;" width="89" x="319.5" y="1285.7031"/><text fill="#000000" font-family="sans-serif" font-size="13" font-weight="bold" lengthAdjust="spacing" textLength="70" x="325.5" y="1301.77">Pull Done</text><!--SRC=[bLNRJXin47tVhnZb1GcLBErZ95gbJKiZ2eaWLP4G3sPtDd7ZjRVsX91-VSVUItP92DHAXB3dUiwP2KbI29FHDxZ9XIMOMQ5TXXQcrf19Z1h0TALKv9PI5yAA71p-MQ5Ey1AT4tCSAZdNOELyGIqZYwumsjL6dr6PzT1QimQoAsmPAfcXaXflo0h2-GQSKJADehCp66j9Kf3Kyr02d9r5YPAe2Ku-VkGox2FQ0VHw8q728NcRQr-RerulqeOG35j0wHC1d_5HoWcN26IWy26H3JQqu1JX7KH6x1773pYNUkZ_YMDuK2PPbkztWY0tZdo0E7PaYY7L5lSHwXHytbRoiihWFBdeXx-p1K8XaYN30ckpKYaaZ9Jae2ORb6bEuFZugepgZe_hkpX-Uk9a5mzi23cIIBdnxUDcmu-NuT4_WDHyUSbtcLJeWjsv0R50aRu3cG6txO0_wmKtjJ4hmAS24yAqlssaB3_WNSAuWtT9CmFk6Ml4SrbLznREQjjNk9igP0yEmRKHGzW0q1JBWe8h89bNtJR50nDb6Uu1d7-T1JZ2kqX8FhBewkTmkPSwFYEprig8bFC6HRTKqHGGafQnGjQgsxiFfwSmJ18i6DpxO9NYJdAEibyttz6YvwdTD6J6UiuglVHwjWGFqvDIDNqIjZ__os2-YSkQWqESJXv-ipoSfrGPKuJCht5R-TGnjXHteMxH_6nAqnfsttrc5AyHlmzC6NTGk_00b5VmldNLx_Tt3MxhgryB3sngO0np99yWXyoQ_DCkgLvPjorblQ2kwUHc1kUeqQ-oAQz0teoO_hp-qJZjbTmXsVdpnQ9tAIoUb16X7P9F5oUMIYFnwlYs6cMw3UiaRvuxZHvIyEJYlh7Pezygrg4X6Xyz8cDTuXCeTRYjd9joGTUUwkS4R_aT00dMXgIogpZsDCPnj8_rBUaxNjHnypivv1SiYKV1lq2mqYGL6_9Mb7OpO-uhw-wulx8WTmQWcQsNTDMCL7ThzNfT_gi8RnHLTy1QwymFarTBHo9lqaRTxlzemt_zJWa_voEZqI-JVm00]--></g></svg>