<?xml version="1.0" encoding="UTF-8" standalone="no"?><svg xmlns="http://www.w3.org/2000/svg" xmlns:xlink="http://www.w3.org/1999/xlink" contentStyleType="text/css" height="1505px" preserveAspectRatio="none" style="width:727px;height:1505px;background:#FFFFFF;" version="1.1" viewBox="0 0 727 1505" width="727px" zoomAndPan="magnify"><defs/><g><text fill="#000000" font-family="sans-serif" font-size="14" font-weight="bold" lengthAdjust="spacing" textLength="277" x="221" y="27.9951">ODF Smart Transfer Protocol: Push</text><rect fill="#FFFFFF" height="47.1328" style="stroke:#181818;stroke-width:1.0;" width="10" x="651.5" y="468.4531"/><rect fill="#FFFFFF" height="77.3984" style="stroke:#181818;stroke-width:1.0;" width="10" x="651.5" y="849.3125"/><rect fill="#FFFFFF" height="47.1328" style="stroke:#181818;stroke-width:1.0;" width="10" x="651.5" y="1128.9063"/><rect fill="none" height="110.5313" style="stroke:#000000;stroke-width:1.5;" width="378" x="322" y="430.1875"/><rect fill="none" height="546.0547" style="stroke:#000000;stroke-width:1.5;" width="700" x="10" y="662.1172"/><rect fill="none" height="140.7969" style="stroke:#000000;stroke-width:1.5;" width="346" x="354" y="811.0469"/><rect fill="none" height="110.5313" style="stroke:#000000;stroke-width:1.5;" width="648" x="52" y="1090.6406"/><line style="stroke:#181818;stroke-width:0.5;stroke-dasharray:5.0,5.0;" x1="150" x2="150" y1="73.5938" y2="1470.2344"/><line style="stroke:#181818;stroke-width:0.5;stroke-dasharray:5.0,5.0;" x1="446" x2="446" y1="73.5938" y2="1470.2344"/><line style="stroke:#181818;stroke-width:0.5;stroke-dasharray:5.0,5.0;" x1="656" x2="656" y1="73.5938" y2="1470.2344"/><rect fill="#E2E2F0" height="30.2969" rx="2.5" ry="2.5" style="stroke:#181818;stroke-width:0.5;" width="51" x="125" y="42.2969"/><text fill="#000000" font-family="sans-serif" font-size="14" lengthAdjust="spacing" textLength="37" x="132" y="62.292">client</text><rect fill="#E2E2F0" height="30.2969" rx="2.5" ry="2.5" style="stroke:#181818;stroke-width:0.5;" width="51" x="125" y="1469.2344"/><text fill="#000000" font-family="sans-serif" font-size="14" lengthAdjust="spacing" textLength="37" x="132" y="1489.2295">client</text><rect fill="#E2E2F0" height="30.2969" rx="2.5" ry="2.5" style="stroke:#181818;stroke-width:0.5;" width="57" x="418" y="42.2969"/><text fill="#000000" font-family="sans-serif" font-size="14" lengthAdjust="spacing" textLength="43" x="425" y="62.292">server</text><rect fill="#E2E2F0" height="30.2969" rx="2.5" ry="2.5" style="stroke:#181818;stroke-width:0.5;" width="57" x="418" y="1469.2344"/><text fill="#000000" font-family="sans-serif" font-size="14" lengthAdjust="spacing" textLength="43" x="425" y="1489.2295">server</text><rect fill="#E2E2F0" height="30.2969" rx="2.5" ry="2.5" style="stroke:#181818;stroke-width:0.5;" width="67" x="623" y="42.2969"/><text fill="#000000" font-family="sans-serif" font-size="14" lengthAdjust="spacing" textLength="53" x="630" y="62.292">storage</text><rect fill="#E2E2F0" height="30.2969" rx="2.5" ry="2.5" style="stroke:#181818;stroke-width:0.5;" width="67" x="623" y="1469.2344"/><text fill="#000000" font-family="sans-serif" font-size="14" lengthAdjust="spacing" textLength="53" x="630" y="1489.2295">storage</text><rect fill="#FFFFFF" height="47.1328" style="stroke:#181818;stroke-width:1.0;" width="10" x="651.5" y="468.4531"/><rect fill="#FFFFFF" height="77.3984" style="stroke:#181818;stroke-width:1.0;" width="10" x="651.5" y="849.3125"/><rect fill="#FFFFFF" height="47.1328" style="stroke:#181818;stroke-width:1.0;" width="10" x="651.5" y="1128.9063"/><rect fill="#EEEEEE" height="3" style="stroke:#EEEEEE;stroke-width:1.0;" width="720" x="0" y="104.1602"/><line style="stroke:#000000;stroke-width:1.0;" x1="0" x2="720" y1="104.1602" y2="104.1602"/><line style="stroke:#000000;stroke-width:1.0;" x1="0" x2="720" y1="107.1602" y2="107.1602"/><rect fill="#EEEEEE" height="23.1328" style="stroke:#000000;stroke-width:2.0;" width="125" x="297.5" y="93.5938"/><text fill="#000000" font-family="sans-serif" font-size="13" font-weight="bold" lengthAdjust="spacing" textLength="106" x="303.5" y="109.6606">Initiating Push</text><line style="stroke:#181818;stroke-width:1.0;" x1="444.5" x2="434.5" y1="147.8594" y2="143.8594"/><line style="stroke:#181818;stroke-width:1.0;" x1="444.5" x2="434.5" y1="147.8594" y2="151.8594"/><line style="stroke:#181818;stroke-width:1.0;" x1="150.5" x2="445.5" y1="147.8594" y2="147.8594"/><text fill="#000000" font-family="monospace" font-size="13" lengthAdjust="spacing" textLength="144" x="285.5" y="142.7935">DatasetPushRequest</text><path d="M46,160.8594 L46,230.8594 L254,230.8594 L254,170.8594 L244,160.8594 L46,160.8594 " fill="#FEFFDD" style="stroke:#181818;stroke-width:0.5;"/><path d="M244,160.8594 L244,170.8594 L254,170.8594 L244,160.8594 " fill="#FEFFDD" style="stroke:#181818;stroke-width:0.5;"/><text fill="#000000" font-family="sans-serif" font-size="13" lengthAdjust="spacing" textLength="91" x="52" y="177.9263">I'd like to push</text><text fill="#000000" font-family="sans-serif" font-size="13" font-weight="bold" lengthAdjust="spacing" textLength="64" x="151" y="177.9263">N blocks</text><text fill="#000000" font-family="sans-serif" font-size="13" lengthAdjust="spacing" textLength="30" x="56" y="193.0591">after</text><text fill="#000000" font-family="sans-serif" font-size="13" font-style="italic" lengthAdjust="spacing" textLength="80" x="90" y="193.0591">currentHead</text><text fill="#000000" font-family="sans-serif" font-size="13" lengthAdjust="spacing" textLength="25" x="56" y="208.1919">with</text><text fill="#000000" font-family="sans-serif" font-size="13" font-style="italic" lengthAdjust="spacing" textLength="16" x="89" y="208.1919">xx</text><text fill="#000000" font-family="sans-serif" font-size="13" lengthAdjust="spacing" textLength="99" x="109" y="208.1919">Kb of metadata</text><text fill="#000000" font-family="sans-serif" font-size="13" lengthAdjust="spacing" textLength="24" x="56" y="223.3247">and</text><text fill="#000000" font-family="sans-serif" font-size="13" font-style="italic" lengthAdjust="spacing" textLength="16" x="88" y="223.3247">yy</text><text fill="#000000" font-family="sans-serif" font-size="13" lengthAdjust="spacing" textLength="83" x="108" y="223.3247">Mb of data in</text><text fill="#000000" font-family="sans-serif" font-size="13" font-style="italic" lengthAdjust="spacing" textLength="11" x="199" y="223.3247">M</text><text fill="#000000" font-family="sans-serif" font-size="13" lengthAdjust="spacing" textLength="25" x="214" y="223.3247">files</text><path d="M427,241.3906 L427,266.3906 L466,266.3906 L466,251.3906 L456,241.3906 L427,241.3906 " fill="#FEFFDD" style="stroke:#181818;stroke-width:0.5;"/><path d="M456,241.3906 L456,251.3906 L466,251.3906 L456,241.3906 " fill="#FEFFDD" style="stroke:#181818;stroke-width:0.5;"/><text fill="#000000" font-family="sans-serif" font-size="13" lengthAdjust="spacing" textLength="18" x="433" y="258.4575">OK</text><line style="stroke:#181818;stroke-width:1.0;" x1="151.5" x2="161.5" y1="275.5234" y2="271.5234"/><line style="stroke:#181818;stroke-width:1.0;" x1="151.5" x2="161.5" y1="275.5234" y2="279.5234"/><line style="stroke:#181818;stroke-width:1.0;" x1="150.5" x2="445.5" y1="275.5234" y2="275.5234"/><text fill="#000000" font-family="monospace" font-size="13" lengthAdjust="spacing" textLength="208" x="231.5" y="288.5903">DatasetPushRequestAccepted</text><rect fill="#EEEEEE" height="3" style="stroke:#EEEEEE;stroke-width:1.0;" width="720" x="0" y="321.2227"/><line style="stroke:#000000;stroke-width:1.0;" x1="0" x2="720" y1="321.2227" y2="321.2227"/><line style="stroke:#000000;stroke-width:1.0;" x1="0" x2="720" y1="324.2227" y2="324.2227"/><rect fill="#EEEEEE" height="23.1328" style="stroke:#000000;stroke-width:2.0;" width="156" x="282" y="310.6563"/><text fill="#000000" font-family="sans-serif" font-size="13" font-weight="bold" lengthAdjust="spacing" textLength="137" x="288" y="326.7231">Transfer Metadata</text><line style="stroke:#181818;stroke-width:1.0;" x1="444.5" x2="434.5" y1="364.9219" y2="360.9219"/><line style="stroke:#181818;stroke-width:1.0;" x1="444.5" x2="434.5" y1="364.9219" y2="368.9219"/><line style="stroke:#181818;stroke-width:1.0;" x1="150.5" x2="445.5" y1="364.9219" y2="364.9219"/><text fill="#000000" font-family="monospace" font-size="13" lengthAdjust="spacing" textLength="152" x="277.5" y="359.856">DatasetPushMetadata</text><path d="M46,377.9219 L46,417.9219 L255,417.9219 L255,387.9219 L245,377.9219 L46,377.9219 " fill="#FEFFDD" style="stroke:#181818;stroke-width:0.5;"/><path d="M245,377.9219 L245,387.9219 L255,387.9219 L245,377.9219 " fill="#FEFFDD" style="stroke:#181818;stroke-width:0.5;"/><text fill="#000000" font-family="sans-serif" font-size="13" lengthAdjust="spacing" textLength="188" x="52" y="394.9888">Here is a tarball of metadata:</text><text fill="#000000" font-family="sans-serif" font-size="13" lengthAdjust="spacing" textLength="16" x="52" y="410.1216">    </text><text fill="#000000" font-family="monospace" font-size="13" lengthAdjust="spacing" textLength="136" x="68" y="410.1216">new-blocks.tar.gz</text><path d="M322,430.1875 L392,430.1875 L392,437.3203 L382,447.3203 L322,447.3203 L322,430.1875 " fill="#EEEEEE" style="stroke:#000000;stroke-width:1.5;"/><rect fill="none" height="110.5313" style="stroke:#000000;stroke-width:1.5;" width="378" x="322" y="430.1875"/><text fill="#000000" font-family="sans-serif" font-size="13" font-weight="bold" lengthAdjust="spacing" textLength="25" x="337" y="443.2544">par</text><text fill="#000000" font-family="sans-serif" font-size="11" font-weight="bold" lengthAdjust="spacing" textLength="58" x="407" y="442.3979">[N times]</text><polygon fill="#181818" points="639.5,464.4531,649.5,468.4531,639.5,472.4531,643.5,468.4531" style="stroke:#181818;stroke-width:1.0;"/><line style="stroke:#181818;stroke-width:1.0;" x1="446.5" x2="645.5" y1="468.4531" y2="468.4531"/><text fill="#000000" font-family="sans-serif" font-size="13" lengthAdjust="spacing" textLength="47" x="587.5" y="463.3872">PUT file</text><path d="M332,481.4531 L332,506.4531 L561,506.4531 L561,491.4531 L551,481.4531 L332,481.4531 " fill="#FEFFDD" style="stroke:#181818;stroke-width:0.5;"/><path d="M551,481.4531 L551,491.4531 L561,491.4531 L551,481.4531 " fill="#FEFFDD" style="stroke:#181818;stroke-width:0.5;"/><text fill="#000000" font-family="sans-serif" font-size="13" lengthAdjust="spacing" textLength="208" x="338" y="498.52">Upload untarred metadata block</text><polygon fill="#181818" points="457.5,511.5859,447.5,515.5859,457.5,519.5859,453.5,515.5859" style="stroke:#181818;stroke-width:1.0;"/><line style="stroke:#181818;stroke-width:1.0;" x1="451.5" x2="655.5" y1="515.5859" y2="515.5859"/><text fill="#000000" font-family="sans-serif" font-size="13" lengthAdjust="spacing" textLength="98" x="551.5" y="528.6528">[201 Accepted]</text><path d="M407,552.7188 L407,577.7188 L485,577.7188 L485,562.7188 L475,552.7188 L407,552.7188 " fill="#FEFFDD" style="stroke:#181818;stroke-width:0.5;"/><path d="M475,552.7188 L475,562.7188 L485,562.7188 L475,552.7188 " fill="#FEFFDD" style="stroke:#181818;stroke-width:0.5;"/><text fill="#000000" font-family="sans-serif" font-size="13" lengthAdjust="spacing" textLength="57" x="413" y="569.7856">Received</text><line style="stroke:#181818;stroke-width:1.0;" x1="151.5" x2="161.5" y1="586.8516" y2="582.8516"/><line style="stroke:#181818;stroke-width:1.0;" x1="151.5" x2="161.5" y1="586.8516" y2="590.8516"/><line style="stroke:#181818;stroke-width:1.0;" x1="150.5" x2="445.5" y1="586.8516" y2="586.8516"/><text fill="#000000" font-family="monospace" font-size="13" lengthAdjust="spacing" textLength="216" x="223.5" y="599.9185">DatasetPushMetadataAccepted</text><rect fill="#EEEEEE" height="3" style="stroke:#EEEEEE;stroke-width:1.0;" width="720" x="0" y="632.5508"/><line style="stroke:#000000;stroke-width:1.0;" x1="0" x2="720" y1="632.5508" y2="632.5508"/><line style="stroke:#000000;stroke-width:1.0;" x1="0" x2="720" y1="635.5508" y2="635.5508"/><rect fill="#EEEEEE" height="23.1328" style="stroke:#000000;stroke-width:2.0;" width="141" x="289.5" y="621.9844"/><text fill="#000000" font-family="sans-serif" font-size="13" font-weight="bold" lengthAdjust="spacing" textLength="122" x="295.5" y="638.0513">Transfer Objects</text><path d="M10,662.1172 L87,662.1172 L87,669.25 L77,679.25 L10,679.25 L10,662.1172 " fill="#EEEEEE" style="stroke:#000000;stroke-width:1.5;"/><rect fill="none" height="546.0547" style="stroke:#000000;stroke-width:1.5;" width="700" x="10" y="662.1172"/><text fill="#000000" font-family="sans-serif" font-size="13" font-weight="bold" lengthAdjust="spacing" textLength="32" x="25" y="675.1841">loop</text><line style="stroke:#181818;stroke-width:1.0;" x1="444.5" x2="434.5" y1="700.3828" y2="696.3828"/><line style="stroke:#181818;stroke-width:1.0;" x1="444.5" x2="434.5" y1="700.3828" y2="704.3828"/><line style="stroke:#181818;stroke-width:1.0;" x1="150.5" x2="445.5" y1="700.3828" y2="700.3828"/><text fill="#000000" font-family="monospace" font-size="13" lengthAdjust="spacing" textLength="264" x="165.5" y="695.3169">DatasetPushObjectsTransferRequest</text><path d="M20,713.3828 L20,798.3828 L281,798.3828 L281,723.3828 L271,713.3828 L20,713.3828 " fill="#FEFFDD" style="stroke:#181818;stroke-width:0.5;"/><path d="M271,713.3828 L271,723.3828 L281,723.3828 L271,713.3828 " fill="#FEFFDD" style="stroke:#181818;stroke-width:0.5;"/><text fill="#000000" font-family="sans-serif" font-size="13" lengthAdjust="spacing" textLength="240" x="26" y="730.4497">I'd like to upload the following objects:</text><text fill="#000000" font-family="sans-serif" font-size="13" lengthAdjust="spacing" textLength="60" x="30" y="745.5825">- object 1</text><text fill="#000000" font-family="sans-serif" font-size="13" lengthAdjust="spacing" textLength="21" x="30" y="760.7153">- ...</text><text fill="#000000" font-family="sans-serif" font-size="13" lengthAdjust="spacing" textLength="60" x="30" y="775.8481">- object X</text><text fill="#000000" font-family="sans-serif" font-size="13" lengthAdjust="spacing" textLength="150" x="26" y="790.981">Where do I upload it to?</text><path d="M354,811.0469 L424,811.0469 L424,818.1797 L414,828.1797 L354,828.1797 L354,811.0469 " fill="#EEEEEE" style="stroke:#000000;stroke-width:1.5;"/><rect fill="none" height="140.7969" style="stroke:#000000;stroke-width:1.5;" width="346" x="354" y="811.0469"/><text fill="#000000" font-family="sans-serif" font-size="13" font-weight="bold" lengthAdjust="spacing" textLength="25" x="369" y="824.1138">par</text><text fill="#000000" font-family="sans-serif" font-size="11" font-weight="bold" lengthAdjust="spacing" textLength="57" x="439" y="823.2573">[X times]</text><polygon fill="#181818" points="639.5,845.3125,649.5,849.3125,639.5,853.3125,643.5,849.3125" style="stroke:#181818;stroke-width:1.0;"/><line style="stroke:#181818;stroke-width:1.0;" x1="446.5" x2="645.5" y1="849.3125" y2="849.3125"/><text fill="#000000" font-family="sans-serif" font-size="13" lengthAdjust="spacing" textLength="186" x="448.5" y="844.2466">POST GeneratePresignedURL</text><path d="M364,862.3125 L364,917.3125 L529,917.3125 L529,872.3125 L519,862.3125 L364,862.3125 " fill="#FEFFDD" style="stroke:#181818;stroke-width:0.5;"/><path d="M519,862.3125 L519,872.3125 L529,872.3125 L519,862.3125 " fill="#FEFFDD" style="stroke:#181818;stroke-width:0.5;"/><text fill="#000000" font-family="sans-serif" font-size="13" lengthAdjust="spacing" textLength="144" x="370" y="879.3794">Create pre-signed URL</text><text fill="#000000" font-family="sans-serif" font-size="13" lengthAdjust="spacing" textLength="109" x="370" y="894.5122">to upload this file</text><text fill="#000000" font-family="sans-serif" font-size="13" lengthAdjust="spacing" textLength="117" x="370" y="909.645">to storage system</text><polygon fill="#181818" points="457.5,922.7109,447.5,926.7109,457.5,930.7109,453.5,926.7109" style="stroke:#181818;stroke-width:1.0;"/><line style="stroke:#181818;stroke-width:1.0;" x1="451.5" x2="655.5" y1="926.7109" y2="926.7109"/><text fill="#000000" font-family="sans-serif" font-size="13" lengthAdjust="spacing" textLength="56" x="593.5" y="939.7778">[200 OK]</text><path d="M272,963.8438 L272,1048.8438 L620,1048.8438 L620,973.8438 L610,963.8438 L272,963.8438 " fill="#FEFFDD" style="stroke:#181818;stroke-width:0.5;"/><path d="M610,963.8438 L610,973.8438 L620,973.8438 L610,963.8438 " fill="#FEFFDD" style="stroke:#181818;stroke-width:0.5;"/><text fill="#000000" font-family="sans-serif" font-size="13" lengthAdjust="spacing" textLength="314" x="278" y="980.9106">I've generated these upload URLs for the objects:</text><text fill="#000000" font-family="sans-serif" font-size="13" lengthAdjust="spacing" textLength="101" x="282" y="996.0435">- object 1: put it</text><text fill="#000000" font-family="sans-serif" font-size="13" font-style="italic" lengthAdjust="spacing" textLength="29" x="387" y="996.0435">here</text><text fill="#000000" font-family="sans-serif" font-size="13" lengthAdjust="spacing" textLength="21" x="282" y="1011.1763">- ...</text><text fill="#000000" font-family="sans-serif" font-size="13" lengthAdjust="spacing" textLength="323" x="282" y="1026.3091">- object X: skip uploading this one, I already have it</text><text fill="#000000" font-family="sans-serif" font-size="13" lengthAdjust="spacing" textLength="148" x="278" y="1041.4419">The URLs are valid until</text><text fill="#000000" font-family="sans-serif" font-size="13" font-style="italic" lengthAdjust="spacing" textLength="72" x="430" y="1041.4419">expiryTime</text><line style="stroke:#181818;stroke-width:1.0;" x1="151.5" x2="161.5" y1="1058.5078" y2="1054.5078"/><line style="stroke:#181818;stroke-width:1.0;" x1="151.5" x2="161.5" y1="1058.5078" y2="1062.5078"/><line style="stroke:#181818;stroke-width:1.0;" x1="150.5" x2="445.5" y1="1058.5078" y2="1058.5078"/><text fill="#000000" font-family="monospace" font-size="13" lengthAdjust="spacing" textLength="272" x="167.5" y="1071.5747">DatasetPushObjectsTransferResponse</text><path d="M52,1090.6406 L122,1090.6406 L122,1097.7734 L112,1107.7734 L52,1107.7734 L52,1090.6406 " fill="#EEEEEE" style="stroke:#000000;stroke-width:1.5;"/><rect fill="none" height="110.5313" style="stroke:#000000;stroke-width:1.5;" width="648" x="52" y="1090.6406"/><text fill="#000000" font-family="sans-serif" font-size="13" font-weight="bold" lengthAdjust="spacing" textLength="25" x="67" y="1103.7075">par</text><text fill="#000000" font-family="sans-serif" font-size="11" font-weight="bold" lengthAdjust="spacing" textLength="57" x="137" y="1102.8511">[X times]</text><polygon fill="#181818" points="639.5,1124.9063,649.5,1128.9063,639.5,1132.9063,643.5,1128.9063" style="stroke:#181818;stroke-width:1.0;"/><line style="stroke:#181818;stroke-width:1.0;" x1="150.5" x2="645.5" y1="1128.9063" y2="1128.9063"/><text fill="#000000" font-family="sans-serif" font-size="13" lengthAdjust="spacing" textLength="25" x="493.5" y="1123.8403">PUT</text><text fill="#000000" font-family="monospace" font-size="13" lengthAdjust="spacing" textLength="112" x="522.5" y="1123.8403">pre-signed URL</text><path d="M62,1141.9063 L62,1166.9063 L239,1166.9063 L239,1151.9063 L229,1141.9063 L62,1141.9063 " fill="#FEFFDD" style="stroke:#181818;stroke-width:0.5;"/><path d="M229,1141.9063 L229,1151.9063 L239,1151.9063 L229,1141.9063 " fill="#FEFFDD" style="stroke:#181818;stroke-width:0.5;"/><text fill="#000000" font-family="sans-serif" font-size="13" lengthAdjust="spacing" textLength="156" x="68" y="1158.9731">Uploading file to storage</text><polygon fill="#181818" points="161.5,1172.0391,151.5,1176.0391,161.5,1180.0391,157.5,1176.0391" style="stroke:#181818;stroke-width:1.0;"/><line style="stroke:#181818;stroke-width:1.0;" x1="155.5" x2="655.5" y1="1176.0391" y2="1176.0391"/><text fill="#000000" font-family="sans-serif" font-size="13" lengthAdjust="spacing" textLength="98" x="551.5" y="1189.106">[201 Accepted]</text><rect fill="#EEEEEE" height="3" style="stroke:#EEEEEE;stroke-width:1.0;" width="720" x="0" y="1235.7383"/><line style="stroke:#000000;stroke-width:1.0;" x1="0" x2="720" y1="1235.7383" y2="1235.7383"/><line style="stroke:#000000;stroke-width:1.0;" x1="0" x2="720" y1="1238.7383" y2="1238.7383"/><rect fill="#EEEEEE" height="23.1328" style="stroke:#000000;stroke-width:2.0;" width="76" x="322" y="1225.1719"/><text fill="#000000" font-family="sans-serif" font-size="13" font-weight="bold" lengthAdjust="spacing" textLength="57" x="328" y="1241.2388">Commit</text><line style="stroke:#181818;stroke-width:1.0;" x1="444.5" x2="434.5" y1="1279.4375" y2="1275.4375"/><line style="stroke:#181818;stroke-width:1.0;" x1="444.5" x2="434.5" y1="1279.4375" y2="1283.4375"/><line style="stroke:#181818;stroke-width:1.0;" x1="150.5" x2="445.5" y1="1279.4375" y2="1279.4375"/><text fill="#000000" font-family="monospace" font-size="13" lengthAdjust="spacing" textLength="152" x="277.5" y="1274.3716">DatasetPushComplete</text><path d="M28,1292.4375 L28,1332.4375 L272,1332.4375 L272,1302.4375 L262,1292.4375 L28,1292.4375 " fill="#FEFFDD" style="stroke:#181818;stroke-width:0.5;"/><path d="M262,1292.4375 L262,1302.4375 L272,1302.4375 L262,1292.4375 " fill="#FEFFDD" style="stroke:#181818;stroke-width:0.5;"/><text fill="#000000" font-family="sans-serif" font-size="13" lengthAdjust="spacing" textLength="178" x="34" y="1309.5044">I'm done uploading content.</text><text fill="#000000" font-family="sans-serif" font-size="13" lengthAdjust="spacing" textLength="223" x="34" y="1324.6372">Let's commit my dataset changes!</text><path d="M365,1342.7031 L365,1382.7031 L528,1382.7031 L528,1352.7031 L518,1342.7031 L365,1342.7031 " fill="#FEFFDD" style="stroke:#181818;stroke-width:0.5;"/><path d="M518,1342.7031 L518,1352.7031 L528,1352.7031 L518,1342.7031 " fill="#FEFFDD" style="stroke:#181818;stroke-width:0.5;"/><text fill="#000000" font-family="sans-serif" font-size="13" lengthAdjust="spacing" textLength="123" x="371" y="1359.77">Commit confirmed.</text><text fill="#000000" font-family="sans-serif" font-size="13" lengthAdjust="spacing" textLength="77" x="371" y="1374.9028">New head is</text><text fill="#000000" font-family="sans-serif" font-size="13" font-style="italic" lengthAdjust="spacing" textLength="61" x="452" y="1374.9028">newHead</text><line style="stroke:#181818;stroke-width:1.0;" x1="151.5" x2="161.5" y1="1391.9688" y2="1387.9688"/><line style="stroke:#181818;stroke-width:1.0;" x1="151.5" x2="161.5" y1="1391.9688" y2="1395.9688"/><line style="stroke:#181818;stroke-width:1.0;" x1="150.5" x2="445.5" y1="1391.9688" y2="1391.9688"/><text fill="#000000" font-family="monospace" font-size="13" lengthAdjust="spacing" textLength="224" x="215.5" y="1405.0356">DatasetPushCompleteConfirmed</text><rect fill="#EEEEEE" height="3" style="stroke:#EEEEEE;stroke-width:1.0;" width="720" x="0" y="1437.668"/><line style="stroke:#000000;stroke-width:1.0;" x1="0" x2="720" y1="1437.668" y2="1437.668"/><line style="stroke:#000000;stroke-width:1.0;" x1="0" x2="720" y1="1440.668" y2="1440.668"/><rect fill="#EEEEEE" height="23.1328" style="stroke:#000000;stroke-width:2.0;" width="98" x="311" y="1427.1016"/><text fill="#000000" font-family="sans-serif" font-size="13" font-weight="bold" lengthAdjust="spacing" textLength="79" x="317" y="1443.1685">Push Done</text><!--SRC=[ZLPDRnen4BtpAwPxGKA5JNf4IgeqKHkK4gA4g96g7Cpk06wyzjOU8FJNT-pzO0cGi18NptW-tdipXYGfXD7LTtZ8X2KOMw7T52tSMKCcCQeFTmitRxaNgNDXHGOE_ovG9pX4vyGCBvISQR1oDgU6aqMN6-qgfs-epEh2MhC2iWjiE2evHIKrFf0LXBCrEADascgTdS50IvA2f9w54k3ih9KeYPgWUtxEPTWbsZv4qPKWuP2ypxslpL4KjRGX1CCUKDnf0N-3Tie9Nn38GEv3GgTp2nDbaXVNwGGN45FYIt6SBApbUzSeqZWkJ2j9V2MENr_Z66ucOAQG8OcKyvTtTUhjwpNRXy7kRI2rFntouLGgT2raDrzVeyYYcn1bTBDnA8v3lqKR-_kzI1BC2LFksmDNSpWigpi6kiht47RNQ16a0m4ax4GerMo_N_JFNnHfN7KBI7lisPlzuuXrGqmwt0B9Z67mxdM3uCXOLWhBxN4SS0fsaP1SiZ0gSpZS2nj_Zxao8eM5vhmMqxgwWk7WLHSIaXSnG_OIajzVJawXWlCvUAMuKmH7sS_TFIOebvWUps05-o4AHvC_c93p32fZyf3b8ohBErMCpL1iWzSWzyriB0eWQOumDOf7ry-WAQ9kgEwMHt3QEEhrUhiEJzNHhxbNKMfWKEMGn0c_xdBZXVBK4CeXiOmUnl03DVhjSSTRXvSHfe_tF-jBUnNqdehyTsdHNyajTek8q0p9NnCa7efQhnjp9IwtTeHPRTngyh08JtWDFDS-UoHOndfl7WRj9SAin2QmwR2gcjlXgeqD7BzbTaDidzSaUOxYs3DNBS8tH6zuxWDlzhnCuaKJq34QFpFZGZ6gwHhcWkkIbV36N42eHh0obeANlnzWgJWblkRIhiUiWJBnzlH-C5axKr2yIEKOxDDNFLVRooYAjdLGHZXINDjJLcyf3uvNJKCgHscaQdNFelf0AVxdLykboJ9cz8WdWJrpXOG7deH1E-DHrjYWEp6Qs1gKyHEfxVWaPClMuIdam93CXPwX-_J-CrXMoG6dqcQOXf2tk88v-gtXM1xyq9Ilyz7RjkheiWfRhjlm_-BAzyAm_0S0]--></g></svg>