<?xml version="1.0" encoding="UTF-8" standalone="no"?><svg xmlns="http://www.w3.org/2000/svg" xmlns:xlink="http://www.w3.org/1999/xlink" contentScriptType="application/ecmascript" contentStyleType="text/css" height="190px" preserveAspectRatio="none" style="width:532px;height:190px;background:#FFFFFF;" version="1.1" viewBox="0 0 532 190" width="532px" zoomAndPan="magnify"><defs/><g><text fill="#000000" font-family="sans-serif" font-size="18" lengthAdjust="spacing" textLength="274" x="128" y="26.708">Propagation / Processing Delay</text><line style="stroke:#000000;stroke-width:1.7;" x1="10" x2="10" y1="30.9531" y2="160.1875"/><line style="stroke:#000000;stroke-width:1.7;" x1="520" x2="520" y1="30.9531" y2="160.1875"/><line style="stroke:#AAAAAA;stroke-width:0.5;stroke-dasharray:3.0,5.0;" x1="15" x2="15" y1="30.9531" y2="160.1875"/><line style="stroke:#AAAAAA;stroke-width:0.5;stroke-dasharray:3.0,5.0;" x1="65" x2="65" y1="30.9531" y2="160.1875"/><line style="stroke:#AAAAAA;stroke-width:0.5;stroke-dasharray:3.0,5.0;" x1="115" x2="115" y1="30.9531" y2="160.1875"/><line style="stroke:#AAAAAA;stroke-width:0.5;stroke-dasharray:3.0,5.0;" x1="165" x2="165" y1="30.9531" y2="160.1875"/><line style="stroke:#AAAAAA;stroke-width:0.5;stroke-dasharray:3.0,5.0;" x1="215" x2="215" y1="30.9531" y2="160.1875"/><line style="stroke:#AAAAAA;stroke-width:0.5;stroke-dasharray:3.0,5.0;" x1="265" x2="265" y1="30.9531" y2="160.1875"/><line style="stroke:#AAAAAA;stroke-width:0.5;stroke-dasharray:3.0,5.0;" x1="315" x2="315" y1="30.9531" y2="160.1875"/><line style="stroke:#AAAAAA;stroke-width:0.5;stroke-dasharray:3.0,5.0;" x1="365" x2="365" y1="30.9531" y2="160.1875"/><line style="stroke:#AAAAAA;stroke-width:0.5;stroke-dasharray:3.0,5.0;" x1="415" x2="415" y1="30.9531" y2="160.1875"/><line style="stroke:#AAAAAA;stroke-width:0.5;stroke-dasharray:3.0,5.0;" x1="465" x2="465" y1="30.9531" y2="160.1875"/><line style="stroke:#AAAAAA;stroke-width:0.5;stroke-dasharray:3.0,5.0;" x1="515" x2="515" y1="30.9531" y2="160.1875"/><line style="stroke:#000000;stroke-width:1.7;" x1="10" x2="520" y1="30.9531" y2="30.9531"/><text fill="#000000" font-family="sans-serif" font-size="12" lengthAdjust="spacing" textLength="68" x="15" y="42.0918">Event Time</text><line style="stroke:#000000;stroke-width:1.0;" x1="10" x2="84" y1="45.9219" y2="45.9219"/><line style="stroke:#000000;stroke-width:1.0;" x1="84" x2="94" y1="45.9219" y2="30.9531"/><polygon fill="#D7E0F2" points="27,50.9219,53,50.9219,65,62.9219,53,74.9219,27,74.9219,15,62.9219" style="stroke:#038048;stroke-width:1.5;"/><polygon fill="#D7E0F2" points="77,50.9219,103,50.9219,115,62.9219,103,74.9219,77,74.9219,65,62.9219" style="stroke:#038048;stroke-width:1.5;"/><polygon fill="#D7E0F2" points="127,50.9219,153,50.9219,165,62.9219,153,74.9219,127,74.9219,115,62.9219" style="stroke:#038048;stroke-width:1.5;"/><polygon fill="#D7E0F2" points="177,50.9219,203,50.9219,215,62.9219,203,74.9219,177,74.9219,165,62.9219" style="stroke:#038048;stroke-width:1.5;"/><polygon fill="#D7E0F2" points="227,50.9219,253,50.9219,265,62.9219,253,74.9219,227,74.9219,215,62.9219" style="stroke:#038048;stroke-width:1.5;"/><polygon fill="#D7E0F2" points="277,50.9219,303,50.9219,315,62.9219,303,74.9219,277,74.9219,265,62.9219" style="stroke:#038048;stroke-width:1.5;"/><polygon fill="#D7E0F2" points="327,50.9219,353,50.9219,365,62.9219,353,74.9219,327,74.9219,315,62.9219" style="stroke:#038048;stroke-width:1.5;"/><polygon fill="#D7E0F2" points="377,50.9219,403,50.9219,415,62.9219,403,74.9219,377,74.9219,365,62.9219" style="stroke:#038048;stroke-width:1.5;"/><line style="stroke:#038048;stroke-width:1.5;" x1="415" x2="515" y1="62.9219" y2="62.9219"/><text fill="#000000" font-family="sans-serif" font-size="12" lengthAdjust="spacing" textLength="16" x="32" y="67.0762">e1</text><text fill="#000000" font-family="sans-serif" font-size="12" lengthAdjust="spacing" textLength="16" x="82" y="67.0762">e2</text><text fill="#000000" font-family="sans-serif" font-size="12" lengthAdjust="spacing" textLength="16" x="132" y="67.0762">e3</text><text fill="#000000" font-family="sans-serif" font-size="12" lengthAdjust="spacing" textLength="16" x="182" y="67.0762">e4</text><text fill="#000000" font-family="sans-serif" font-size="12" lengthAdjust="spacing" textLength="16" x="232" y="67.0762">e5</text><text fill="#000000" font-family="sans-serif" font-size="12" lengthAdjust="spacing" textLength="16" x="282" y="67.0762">e6</text><text fill="#000000" font-family="sans-serif" font-size="12" lengthAdjust="spacing" textLength="16" x="332" y="67.0762">e7</text><text fill="#000000" font-family="sans-serif" font-size="12" lengthAdjust="spacing" textLength="16" x="382" y="67.0762">e8</text><line style="stroke:#000000;stroke-width:1.7;" x1="10" x2="520" y1="84.9219" y2="84.9219"/><text fill="#000000" font-family="sans-serif" font-size="12" lengthAdjust="spacing" textLength="78" x="15" y="96.0605">System Time</text><line style="stroke:#000000;stroke-width:1.0;" x1="10" x2="94" y1="99.8906" y2="99.8906"/><line style="stroke:#000000;stroke-width:1.0;" x1="94" x2="104" y1="99.8906" y2="84.9219"/><line style="stroke:#038048;stroke-width:1.5;" x1="15" x2="65" y1="138.1875" y2="138.1875"/><polygon fill="#D7E0F2" points="77,126.1875,103,126.1875,115,138.1875,103,150.1875,77,150.1875,65,138.1875" style="stroke:#038048;stroke-width:1.5;"/><polygon fill="#D7E0F2" points="127,126.1875,153,126.1875,165,138.1875,153,150.1875,127,150.1875,115,138.1875" style="stroke:#038048;stroke-width:1.5;"/><polygon fill="#D7E0F2" points="177,126.1875,203,126.1875,215,138.1875,203,150.1875,177,150.1875,165,138.1875" style="stroke:#038048;stroke-width:1.5;"/><polygon fill="#D7E0F2" points="227,126.1875,253,126.1875,265,138.1875,253,150.1875,227,150.1875,215,138.1875" style="stroke:#038048;stroke-width:1.5;"/><line style="stroke:#038048;stroke-width:1.5;" x1="265" x2="365" y1="138.1875" y2="138.1875"/><polygon fill="#D7E0F2" points="377,126.1875,403,126.1875,415,138.1875,403,150.1875,377,150.1875,365,138.1875" style="stroke:#038048;stroke-width:1.5;"/><polygon fill="#D7E0F2" points="427,126.1875,453,126.1875,465,138.1875,453,150.1875,427,150.1875,415,138.1875" style="stroke:#038048;stroke-width:1.5;"/><line style="stroke:#038048;stroke-width:1.5;" x1="465" x2="515" y1="138.1875" y2="138.1875"/><text fill="#000000" font-family="sans-serif" font-size="12" lengthAdjust="spacing" textLength="16" x="82" y="142.3418">e1</text><text fill="#000000" font-family="sans-serif" font-size="12" lengthAdjust="spacing" textLength="16" x="132" y="142.3418">e2</text><text fill="#000000" font-family="sans-serif" font-size="12" lengthAdjust="spacing" textLength="16" x="182" y="142.3418">e3</text><text fill="#000000" font-family="sans-serif" font-size="12" lengthAdjust="spacing" textLength="16" x="232" y="142.3418">e4</text><text fill="#000000" font-family="sans-serif" font-size="12" lengthAdjust="spacing" textLength="32" x="374" y="142.3418">e5..7</text><text fill="#000000" font-family="sans-serif" font-size="12" lengthAdjust="spacing" textLength="16" x="432" y="142.3418">e8</text><line style="stroke:#FF0000;stroke-width:1.0;" x1="15" x2="65" y1="115.5391" y2="115.5391"/><polygon fill="#FF0000" points="22.5175,112.8029,22.5175,118.2752,15,115.5391" style="stroke:#FF0000;stroke-width:1.0;"/><polygon fill="#FF0000" points="57.4825,118.2752,57.4825,112.8029,65,115.5391" style="stroke:#FF0000;stroke-width:1.0;"/><text fill="#000000" font-family="Serif" font-size="14" lengthAdjust="spacing" textLength="37" x="21.5" y="107.2373">delay</text><line style="stroke:#FF0000;stroke-width:1.0;" x1="265" x2="365" y1="115.5391" y2="115.5391"/><polygon fill="#FF0000" points="272.5175,112.8029,272.5175,118.2752,265,115.5391" style="stroke:#FF0000;stroke-width:1.0;"/><polygon fill="#FF0000" points="357.4825,118.2752,357.4825,112.8029,365,115.5391" style="stroke:#FF0000;stroke-width:1.0;"/><text fill="#000000" font-family="Serif" font-size="14" lengthAdjust="spacing" textLength="86" x="272" y="107.2373">interruption</text><line style="stroke:#000000;stroke-width:2.0;" x1="15" x2="15" y1="160.1875" y2="165.1875"/><line style="stroke:#000000;stroke-width:2.0;" x1="65" x2="65" y1="160.1875" y2="165.1875"/><line style="stroke:#000000;stroke-width:2.0;" x1="115" x2="115" y1="160.1875" y2="165.1875"/><line style="stroke:#000000;stroke-width:2.0;" x1="165" x2="165" y1="160.1875" y2="165.1875"/><line style="stroke:#000000;stroke-width:2.0;" x1="215" x2="215" y1="160.1875" y2="165.1875"/><line style="stroke:#000000;stroke-width:2.0;" x1="265" x2="265" y1="160.1875" y2="165.1875"/><line style="stroke:#000000;stroke-width:2.0;" x1="315" x2="315" y1="160.1875" y2="165.1875"/><line style="stroke:#000000;stroke-width:2.0;" x1="365" x2="365" y1="160.1875" y2="165.1875"/><line style="stroke:#000000;stroke-width:2.0;" x1="415" x2="415" y1="160.1875" y2="165.1875"/><line style="stroke:#000000;stroke-width:2.0;" x1="465" x2="465" y1="160.1875" y2="165.1875"/><line style="stroke:#000000;stroke-width:2.0;" x1="515" x2="515" y1="160.1875" y2="165.1875"/><line style="stroke:#000000;stroke-width:2.0;" x1="15" x2="515" y1="160.1875" y2="160.1875"/><text fill="#000000" font-family="sans-serif" font-size="12" lengthAdjust="spacing" textLength="8" x="11" y="177.3262">0</text><text fill="#000000" font-family="sans-serif" font-size="12" lengthAdjust="spacing" textLength="16" x="57" y="177.3262">10</text><text fill="#000000" font-family="sans-serif" font-size="12" lengthAdjust="spacing" textLength="16" x="107" y="177.3262">20</text><text fill="#000000" font-family="sans-serif" font-size="12" lengthAdjust="spacing" textLength="16" x="157" y="177.3262">30</text><text fill="#000000" font-family="sans-serif" font-size="12" lengthAdjust="spacing" textLength="16" x="207" y="177.3262">40</text><text fill="#000000" font-family="sans-serif" font-size="12" lengthAdjust="spacing" textLength="16" x="257" y="177.3262">50</text><text fill="#000000" font-family="sans-serif" font-size="12" lengthAdjust="spacing" textLength="16" x="307" y="177.3262">60</text><text fill="#000000" font-family="sans-serif" font-size="12" lengthAdjust="spacing" textLength="16" x="357" y="177.3262">70</text><text fill="#000000" font-family="sans-serif" font-size="12" lengthAdjust="spacing" textLength="16" x="407" y="177.3262">80</text><text fill="#000000" font-family="sans-serif" font-size="12" lengthAdjust="spacing" textLength="16" x="457" y="177.3262">90</text><line style="stroke:#0000FF;stroke-width:1.0;" x1="65" x2="115" y1="62.9219" y2="138.1875"/><polygon fill="#0000FF" points="108.5611,133.4398,113.1193,130.4117,115,138.1875" style="stroke:#0000FF;stroke-width:1.0;"/><line style="stroke:#0000FF;stroke-width:1.0;" x1="215" x2="265" y1="62.9219" y2="138.1875"/><polygon fill="#0000FF" points="258.5611,133.4398,263.1193,130.4117,265,138.1875" style="stroke:#0000FF;stroke-width:1.0;"/><line style="stroke:#0000FF;stroke-width:1.0;" x1="265" x2="415" y1="62.9219" y2="138.1875"/><polygon fill="#0000FF" points="407.0538,137.2616,409.508,132.3705,415,138.1875" style="stroke:#0000FF;stroke-width:1.0;"/><line style="stroke:#0000FF;stroke-width:1.0;" x1="315" x2="415" y1="62.9219" y2="138.1875"/><polygon fill="#0000FF" points="407.3482,135.8529,410.639,131.4806,415,138.1875" style="stroke:#0000FF;stroke-width:1.0;"/><line style="stroke:#0000FF;stroke-width:1.0;" x1="365" x2="415" y1="62.9219" y2="138.1875"/><polygon fill="#0000FF" points="408.5611,133.4398,413.1193,130.4117,415,138.1875" style="stroke:#0000FF;stroke-width:1.0;"/><!--MD5=[5a1eb958ccfc541f79ae397571ee5874]
@startuml time
title Propagation / Processing Delay
concise "Event Time" as Client
concise "System Time" as Server

'Server is idle
'Client is idle

@Client
0 is e1
+10 is e2
Client -> Server@+10
+10 is e3
+10 is e4
+10 is e5
Client -> Server@+10
+10 is e6
Client -> Server@+30
+10 is e7
Client -> Server@+20
+10 is e8
Client -> Server@+10
+10 is {-}

'@100 <-> @275 : watermark

@Server
0 is {-}
+10 is e1
+10 is e2
+10 is e3
+10 is e4
+10 is {-}
+20 is e5..7
+10 is e8
+10 is {-}
@0 <-> @10 : delay
@50 <-> @70 : interruption

@enduml

@startuml time
title Propagation / Processing Delay
concise "Event Time" as Client
concise "System Time" as Server


@Client
0 is e1
+10 is e2
Client -> Server@+10
+10 is e3
+10 is e4
+10 is e5
Client -> Server@+10
+10 is e6
Client -> Server@+30
+10 is e7
Client -> Server@+20
+10 is e8
Client -> Server@+10
+10 is {-}


@Server
0 is {-}
+10 is e1
+10 is e2
+10 is e3
+10 is e4
+10 is {-}
+20 is e5..7
+10 is e8
+10 is {-}
@0 <-> @10 : delay
@50 <-> @70 : interruption

@enduml

PlantUML version 1.2021.6(Fri May 14 00:09:51 PDT 2021)
(GPL source distribution)
Java Runtime: OpenJDK Runtime Environment
JVM: OpenJDK 64-Bit Server VM
Default Encoding: UTF-8
Language: en
Country: US
--></g></svg>