<?xml version="1.0" encoding="UTF-8" standalone="no"?><svg xmlns="http://www.w3.org/2000/svg" xmlns:xlink="http://www.w3.org/1999/xlink" contentStyleType="text/css" height="208px" preserveAspectRatio="none" style="width:487px;height:208px;background:#FFFFFF;" version="1.1" viewBox="0 0 487 208" width="487px" zoomAndPan="magnify"><defs/><g><text fill="#000000" font-family="sans-serif" font-size="14" font-weight="bold" lengthAdjust="spacing" textLength="100" x="189.5" y="32.9951">Out of Order</text><line style="stroke:#333333;stroke-width:0.5;" x1="10" x2="10" y1="47.2969" y2="178.8594"/><line style="stroke:#333333;stroke-width:0.5;" x1="470" x2="470" y1="47.2969" y2="178.8594"/><line style="stroke:#333333;stroke-width:0.5;stroke-dasharray:3.0,5.0;" x1="15" x2="15" y1="47.2969" y2="178.8594"/><line style="stroke:#333333;stroke-width:0.5;stroke-dasharray:3.0,5.0;" x1="65" x2="65" y1="47.2969" y2="178.8594"/><line style="stroke:#333333;stroke-width:0.5;stroke-dasharray:3.0,5.0;" x1="115" x2="115" y1="47.2969" y2="178.8594"/><line style="stroke:#333333;stroke-width:0.5;stroke-dasharray:3.0,5.0;" x1="165" x2="165" y1="47.2969" y2="178.8594"/><line style="stroke:#333333;stroke-width:0.5;stroke-dasharray:3.0,5.0;" x1="215" x2="215" y1="47.2969" y2="178.8594"/><line style="stroke:#333333;stroke-width:0.5;stroke-dasharray:3.0,5.0;" x1="265" x2="265" y1="47.2969" y2="178.8594"/><line style="stroke:#333333;stroke-width:0.5;stroke-dasharray:3.0,5.0;" x1="315" x2="315" y1="47.2969" y2="178.8594"/><line style="stroke:#333333;stroke-width:0.5;stroke-dasharray:3.0,5.0;" x1="365" x2="365" y1="47.2969" y2="178.8594"/><line style="stroke:#333333;stroke-width:0.5;stroke-dasharray:3.0,5.0;" x1="415" x2="415" y1="47.2969" y2="178.8594"/><line style="stroke:#333333;stroke-width:0.5;stroke-dasharray:3.0,5.0;" x1="465" x2="465" y1="47.2969" y2="178.8594"/><line style="stroke:#333333;stroke-width:0.5;" x1="10" x2="470" y1="47.2969" y2="47.2969"/><text fill="#333333" font-family="sans-serif" font-size="14" font-weight="bold" lengthAdjust="spacing" textLength="87" x="15" y="60.292">Event Time</text><line style="stroke:#333333;stroke-width:0.5;" x1="10" x2="103" y1="64.5938" y2="64.5938"/><line style="stroke:#333333;stroke-width:0.5;" x1="103" x2="113" y1="64.5938" y2="47.2969"/><polygon fill="#E2E2F0" points="27,69.5938,53,69.5938,65,81.5938,53,93.5938,27,93.5938,15,81.5938" style="stroke:#006400;stroke-width:1.5;"/><polygon fill="#E2E2F0" points="77,69.5938,103,69.5938,115,81.5938,103,93.5938,77,93.5938,65,81.5938" style="stroke:#006400;stroke-width:1.5;"/><polygon fill="#E2E2F0" points="127,69.5938,153,69.5938,165,81.5938,153,93.5938,127,93.5938,115,81.5938" style="stroke:#006400;stroke-width:1.5;"/><polygon fill="#E2E2F0" points="177,69.5938,203,69.5938,215,81.5938,203,93.5938,177,93.5938,165,81.5938" style="stroke:#006400;stroke-width:1.5;"/><polygon fill="#E2E2F0" points="227,69.5938,253,69.5938,265,81.5938,253,93.5938,227,93.5938,215,81.5938" style="stroke:#006400;stroke-width:1.5;"/><polygon fill="#E2E2F0" points="277,69.5938,303,69.5938,315,81.5938,303,93.5938,277,93.5938,265,81.5938" style="stroke:#006400;stroke-width:1.5;"/><polygon fill="#E2E2F0" points="327,69.5938,353,69.5938,365,81.5938,353,93.5938,327,93.5938,315,81.5938" style="stroke:#006400;stroke-width:1.5;"/><polygon fill="#E2E2F0" points="377,69.5938,403,69.5938,415,81.5938,403,93.5938,377,93.5938,365,81.5938" style="stroke:#006400;stroke-width:1.5;"/><polygon fill="#E2E2F0" points="427,69.5938,465,69.5938,465,93.5938,427,93.5938,415,81.5938" style="stroke:#E2E2F0;stroke-width:1.5;"/><path d="M465,69.5938 L427,69.5938 L415,81.5938 L427,93.5938 L465,93.5938 " fill="#E2E2F0" style="stroke:#006400;stroke-width:1.5;"/><text fill="#333333" font-family="sans-serif" font-size="12" font-weight="bold" lengthAdjust="spacing" textLength="17" x="31.5" y="85.748">e1</text><text fill="#333333" font-family="sans-serif" font-size="12" font-weight="bold" lengthAdjust="spacing" textLength="17" x="81.5" y="85.748">e2</text><text fill="#333333" font-family="sans-serif" font-size="12" font-weight="bold" lengthAdjust="spacing" textLength="17" x="131.5" y="85.748">e3</text><text fill="#333333" font-family="sans-serif" font-size="12" font-weight="bold" lengthAdjust="spacing" textLength="17" x="181.5" y="85.748">e4</text><text fill="#333333" font-family="sans-serif" font-size="12" font-weight="bold" lengthAdjust="spacing" textLength="17" x="231.5" y="85.748">e5</text><text fill="#333333" font-family="sans-serif" font-size="12" font-weight="bold" lengthAdjust="spacing" textLength="17" x="281.5" y="85.748">e6</text><text fill="#333333" font-family="sans-serif" font-size="12" font-weight="bold" lengthAdjust="spacing" textLength="17" x="331.5" y="85.748">e7</text><text fill="#333333" font-family="sans-serif" font-size="12" font-weight="bold" lengthAdjust="spacing" textLength="17" x="381.5" y="85.748">e8</text><text fill="#333333" font-family="sans-serif" font-size="12" font-weight="bold" lengthAdjust="spacing" textLength="17" x="427" y="85.748">e9</text><line style="stroke:#333333;stroke-width:0.5;" x1="10" x2="470" y1="103.5938" y2="103.5938"/><text fill="#333333" font-family="sans-serif" font-size="14" font-weight="bold" lengthAdjust="spacing" textLength="101" x="15" y="116.5889">System Time</text><line style="stroke:#333333;stroke-width:0.5;" x1="10" x2="117" y1="120.8906" y2="120.8906"/><line style="stroke:#333333;stroke-width:0.5;" x1="117" x2="127" y1="120.8906" y2="103.5938"/><line style="stroke:#006400;stroke-width:1.5;" x1="15" x2="65" y1="156.8594" y2="156.8594"/><polygon fill="#E2E2F0" points="77,144.8594,103,144.8594,115,156.8594,103,168.8594,77,168.8594,65,156.8594" style="stroke:#006400;stroke-width:1.5;"/><polygon fill="#E2E2F0" points="127,144.8594,153,144.8594,165,156.8594,153,168.8594,127,168.8594,115,156.8594" style="stroke:#006400;stroke-width:1.5;"/><line style="stroke:#006400;stroke-width:1.5;" x1="165" x2="215" y1="156.8594" y2="156.8594"/><polygon fill="#E2E2F0" points="227,144.8594,253,144.8594,265,156.8594,253,168.8594,227,168.8594,215,156.8594" style="stroke:#006400;stroke-width:1.5;"/><polygon fill="#E2E2F0" points="277,144.8594,303,144.8594,315,156.8594,303,168.8594,277,168.8594,265,156.8594" style="stroke:#006400;stroke-width:1.5;"/><polygon fill="#E2E2F0" points="327,144.8594,353,144.8594,365,156.8594,353,168.8594,327,168.8594,315,156.8594" style="stroke:#006400;stroke-width:1.5;"/><polygon fill="#E2E2F0" points="377,144.8594,403,144.8594,415,156.8594,403,168.8594,377,168.8594,365,156.8594" style="stroke:#006400;stroke-width:1.5;"/><polygon fill="#E2E2F0" points="427,144.8594,465,144.8594,465,168.8594,427,168.8594,415,156.8594" style="stroke:#E2E2F0;stroke-width:1.5;"/><path d="M465,144.8594 L427,144.8594 L415,156.8594 L427,168.8594 L465,168.8594 " fill="#E2E2F0" style="stroke:#006400;stroke-width:1.5;"/><text fill="#333333" font-family="sans-serif" font-size="12" font-weight="bold" lengthAdjust="spacing" textLength="17" x="81.5" y="161.0137">e1</text><text fill="#333333" font-family="sans-serif" font-size="12" font-weight="bold" lengthAdjust="spacing" textLength="17" x="131.5" y="161.0137">e2</text><text fill="#333333" font-family="sans-serif" font-size="12" font-weight="bold" lengthAdjust="spacing" textLength="17" x="231.5" y="161.0137">e4</text><text fill="#333333" font-family="sans-serif" font-size="12" font-weight="bold" lengthAdjust="spacing" textLength="17" x="281.5" y="161.0137">e5</text><text fill="#333333" font-family="sans-serif" font-size="12" font-weight="bold" lengthAdjust="spacing" textLength="17" x="331.5" y="161.0137">e3</text><text fill="#333333" font-family="sans-serif" font-size="12" font-weight="bold" lengthAdjust="spacing" textLength="17" x="381.5" y="161.0137">e6</text><text fill="#333333" font-family="sans-serif" font-size="12" font-weight="bold" lengthAdjust="spacing" textLength="17" x="427" y="161.0137">e7</text><line style="stroke:#8B0000;stroke-width:1.5;" x1="166" x2="214" y1="135.375" y2="135.375"/><polygon fill="#8B0000" points="174,139.375,174,131.375,166,135.375" style="stroke:#8B0000;stroke-width:1.0;"/><polygon fill="#8B0000" points="206,139.375,206,131.375,214,135.375" style="stroke:#8B0000;stroke-width:1.0;"/><text fill="#8B0000" font-family="sans-serif" font-size="12" lengthAdjust="spacing" textLength="22" x="179" y="127.5449">blip</text><line style="stroke:#333333;stroke-width:2.0;" x1="15" x2="15" y1="178.8594" y2="183.8594"/><line style="stroke:#333333;stroke-width:2.0;" x1="65" x2="65" y1="178.8594" y2="183.8594"/><line style="stroke:#333333;stroke-width:2.0;" x1="115" x2="115" y1="178.8594" y2="183.8594"/><line style="stroke:#333333;stroke-width:2.0;" x1="165" x2="165" y1="178.8594" y2="183.8594"/><line style="stroke:#333333;stroke-width:2.0;" x1="215" x2="215" y1="178.8594" y2="183.8594"/><line style="stroke:#333333;stroke-width:2.0;" x1="265" x2="265" y1="178.8594" y2="183.8594"/><line style="stroke:#333333;stroke-width:2.0;" x1="315" x2="315" y1="178.8594" y2="183.8594"/><line style="stroke:#333333;stroke-width:2.0;" x1="365" x2="365" y1="178.8594" y2="183.8594"/><line style="stroke:#333333;stroke-width:2.0;" x1="415" x2="415" y1="178.8594" y2="183.8594"/><line style="stroke:#333333;stroke-width:2.0;" x1="465" x2="465" y1="178.8594" y2="183.8594"/><line style="stroke:#333333;stroke-width:2.0;" x1="15" x2="465" y1="178.8594" y2="178.8594"/><text fill="#333333" font-family="sans-serif" font-size="11" lengthAdjust="spacing" textLength="7" x="11.5" y="195.0698">0</text><text fill="#333333" font-family="sans-serif" font-size="11" lengthAdjust="spacing" textLength="14" x="58" y="195.0698">10</text><text fill="#333333" font-family="sans-serif" font-size="11" lengthAdjust="spacing" textLength="14" x="108" y="195.0698">20</text><text fill="#333333" font-family="sans-serif" font-size="11" lengthAdjust="spacing" textLength="14" x="158" y="195.0698">30</text><text fill="#333333" font-family="sans-serif" font-size="11" lengthAdjust="spacing" textLength="14" x="208" y="195.0698">40</text><text fill="#333333" font-family="sans-serif" font-size="11" lengthAdjust="spacing" textLength="14" x="258" y="195.0698">50</text><text fill="#333333" font-family="sans-serif" font-size="11" lengthAdjust="spacing" textLength="14" x="308" y="195.0698">60</text><text fill="#333333" font-family="sans-serif" font-size="11" lengthAdjust="spacing" textLength="14" x="358" y="195.0698">70</text><text fill="#333333" font-family="sans-serif" font-size="11" lengthAdjust="spacing" textLength="14" x="408" y="195.0698">80</text><line style="stroke:#00008B;stroke-width:1.5;" x1="165" x2="365" y1="81.5938" y2="156.8594"/><polygon fill="#00008B" points="357.0005,156.7724,358.9279,151.6508,365,156.8594" style="stroke:#00008B;stroke-width:1.5;"/><text fill="#00008B" font-family="Serif" font-size="14" lengthAdjust="spacing" textLength="87" x="357.9642" y="134.613">Out of order</text><text fill="#00008B" font-family="Serif" font-size="14" lengthAdjust="spacing" textLength="4" x="357.9642" y="150.9098"> </text><!--SRC=[ROyz3u8m48Rt_eeB2mCXuLFK6DF4E3FWw89m9eryc58nnlZVBL0F1xRdUlVUFLL2LGZfGq5xXLIMA5dHDeNe4AnZZus2awZHWho3GoLqFRUpLwUmdliPobx7cJq1Y0v4MI6pfo3LZ9jDtl24FdFyYGAYa2XY9ktkpG7kH1viVyhje7nkQ3ucMX4bH6kYZVRalkV1JY_cGHBhbSzSeQnpUTEAvZFZyDlzK6x1zhyTBOY4YqeyDBV7trmgSMTV]--></g></svg>