<?xml version="1.0" encoding="UTF-8" standalone="no"?><svg xmlns="http://www.w3.org/2000/svg" xmlns:xlink="http://www.w3.org/1999/xlink" contentScriptType="application/ecmascript" contentStyleType="text/css" height="190px" preserveAspectRatio="none" style="width:487px;height:190px;" version="1.1" viewBox="0 0 487 190" width="487px" zoomAndPan="magnify"><defs/><g><text fill="#000000" font-family="sans-serif" font-size="18" lengthAdjust="spacingAndGlyphs" textLength="113" x="183.5" y="26.708">Out of Order</text><line style="stroke: #000000; stroke-width: 1.7;" x1="10" x2="10" y1="30.9531" y2="160.1875"/><line style="stroke: #000000; stroke-width: 1.7;" x1="470" x2="470" y1="30.9531" y2="160.1875"/><line style="stroke: #AAAAAA; stroke-width: 0.5; stroke-dasharray: 3.0,5.0;" x1="15" x2="15" y1="30.9531" y2="160.1875"/><line style="stroke: #AAAAAA; stroke-width: 0.5; stroke-dasharray: 3.0,5.0;" x1="65" x2="65" y1="30.9531" y2="160.1875"/><line style="stroke: #AAAAAA; stroke-width: 0.5; stroke-dasharray: 3.0,5.0;" x1="115" x2="115" y1="30.9531" y2="160.1875"/><line style="stroke: #AAAAAA; stroke-width: 0.5; stroke-dasharray: 3.0,5.0;" x1="165" x2="165" y1="30.9531" y2="160.1875"/><line style="stroke: #AAAAAA; stroke-width: 0.5; stroke-dasharray: 3.0,5.0;" x1="215" x2="215" y1="30.9531" y2="160.1875"/><line style="stroke: #AAAAAA; stroke-width: 0.5; stroke-dasharray: 3.0,5.0;" x1="265" x2="265" y1="30.9531" y2="160.1875"/><line style="stroke: #AAAAAA; stroke-width: 0.5; stroke-dasharray: 3.0,5.0;" x1="315" x2="315" y1="30.9531" y2="160.1875"/><line style="stroke: #AAAAAA; stroke-width: 0.5; stroke-dasharray: 3.0,5.0;" x1="365" x2="365" y1="30.9531" y2="160.1875"/><line style="stroke: #AAAAAA; stroke-width: 0.5; stroke-dasharray: 3.0,5.0;" x1="415" x2="415" y1="30.9531" y2="160.1875"/><line style="stroke: #AAAAAA; stroke-width: 0.5; stroke-dasharray: 3.0,5.0;" x1="465" x2="465" y1="30.9531" y2="160.1875"/><line style="stroke: #000000; stroke-width: 1.7;" x1="10" x2="470" y1="30.9531" y2="30.9531"/><text fill="#000000" font-family="sans-serif" font-size="12" lengthAdjust="spacingAndGlyphs" textLength="68" x="15" y="42.0918">Event Time</text><line style="stroke: #000000; stroke-width: 1.0;" x1="10" x2="84" y1="45.9219" y2="45.9219"/><line style="stroke: #000000; stroke-width: 1.0;" x1="84" x2="94" y1="45.9219" y2="30.9531"/><polygon fill="#D7E0F2" points="27,50.9219,53,50.9219,65,62.9219,53,74.9219,27,74.9219,15,62.9219" style="stroke: #038048; stroke-width: 1.5;"/><polygon fill="#D7E0F2" points="77,50.9219,103,50.9219,115,62.9219,103,74.9219,77,74.9219,65,62.9219" style="stroke: #038048; stroke-width: 1.5;"/><polygon fill="#D7E0F2" points="127,50.9219,153,50.9219,165,62.9219,153,74.9219,127,74.9219,115,62.9219" style="stroke: #038048; stroke-width: 1.5;"/><polygon fill="#D7E0F2" points="177,50.9219,203,50.9219,215,62.9219,203,74.9219,177,74.9219,165,62.9219" style="stroke: #038048; stroke-width: 1.5;"/><polygon fill="#D7E0F2" points="227,50.9219,253,50.9219,265,62.9219,253,74.9219,227,74.9219,215,62.9219" style="stroke: #038048; stroke-width: 1.5;"/><polygon fill="#D7E0F2" points="277,50.9219,303,50.9219,315,62.9219,303,74.9219,277,74.9219,265,62.9219" style="stroke: #038048; stroke-width: 1.5;"/><polygon fill="#D7E0F2" points="327,50.9219,353,50.9219,365,62.9219,353,74.9219,327,74.9219,315,62.9219" style="stroke: #038048; stroke-width: 1.5;"/><polygon fill="#D7E0F2" points="377,50.9219,403,50.9219,415,62.9219,403,74.9219,377,74.9219,365,62.9219" style="stroke: #038048; stroke-width: 1.5;"/><polygon fill="#D7E0F2" points="427,50.9219,465,50.9219,465,74.9219,427,74.9219,415,62.9219" style="stroke: #D7E0F2; stroke-width: 1.5;"/><path d="M465,50.9219 L427,50.9219 L415,62.9219 L427,74.9219 L465,74.9219 " fill="#D7E0F2" style="stroke: #038048; stroke-width: 1.5;"/><text fill="#000000" font-family="sans-serif" font-size="12" lengthAdjust="spacingAndGlyphs" textLength="16" x="32" y="67.0762">e1</text><text fill="#000000" font-family="sans-serif" font-size="12" lengthAdjust="spacingAndGlyphs" textLength="16" x="82" y="67.0762">e2</text><text fill="#000000" font-family="sans-serif" font-size="12" lengthAdjust="spacingAndGlyphs" textLength="16" x="132" y="67.0762">e3</text><text fill="#000000" font-family="sans-serif" font-size="12" lengthAdjust="spacingAndGlyphs" textLength="16" x="182" y="67.0762">e4</text><text fill="#000000" font-family="sans-serif" font-size="12" lengthAdjust="spacingAndGlyphs" textLength="16" x="232" y="67.0762">e5</text><text fill="#000000" font-family="sans-serif" font-size="12" lengthAdjust="spacingAndGlyphs" textLength="16" x="282" y="67.0762">e6</text><text fill="#000000" font-family="sans-serif" font-size="12" lengthAdjust="spacingAndGlyphs" textLength="16" x="332" y="67.0762">e7</text><text fill="#000000" font-family="sans-serif" font-size="12" lengthAdjust="spacingAndGlyphs" textLength="16" x="382" y="67.0762">e8</text><text fill="#000000" font-family="sans-serif" font-size="12" lengthAdjust="spacingAndGlyphs" textLength="16" x="427" y="67.0762">e9</text><line style="stroke: #000000; stroke-width: 1.7;" x1="10" x2="470" y1="84.9219" y2="84.9219"/><text fill="#000000" font-family="sans-serif" font-size="12" lengthAdjust="spacingAndGlyphs" textLength="78" x="15" y="96.0605">System Time</text><line style="stroke: #000000; stroke-width: 1.0;" x1="10" x2="94" y1="99.8906" y2="99.8906"/><line style="stroke: #000000; stroke-width: 1.0;" x1="94" x2="104" y1="99.8906" y2="84.9219"/><line style="stroke: #038048; stroke-width: 1.5;" x1="15" x2="65" y1="138.1875" y2="138.1875"/><polygon fill="#D7E0F2" points="77,126.1875,103,126.1875,115,138.1875,103,150.1875,77,150.1875,65,138.1875" style="stroke: #038048; stroke-width: 1.5;"/><polygon fill="#D7E0F2" points="127,126.1875,153,126.1875,165,138.1875,153,150.1875,127,150.1875,115,138.1875" style="stroke: #038048; stroke-width: 1.5;"/><line style="stroke: #038048; stroke-width: 1.5;" x1="165" x2="215" y1="138.1875" y2="138.1875"/><polygon fill="#D7E0F2" points="227,126.1875,253,126.1875,265,138.1875,253,150.1875,227,150.1875,215,138.1875" style="stroke: #038048; stroke-width: 1.5;"/><polygon fill="#D7E0F2" points="277,126.1875,303,126.1875,315,138.1875,303,150.1875,277,150.1875,265,138.1875" style="stroke: #038048; stroke-width: 1.5;"/><polygon fill="#D7E0F2" points="327,126.1875,353,126.1875,365,138.1875,353,150.1875,327,150.1875,315,138.1875" style="stroke: #038048; stroke-width: 1.5;"/><polygon fill="#D7E0F2" points="377,126.1875,403,126.1875,415,138.1875,403,150.1875,377,150.1875,365,138.1875" style="stroke: #038048; stroke-width: 1.5;"/><polygon fill="#D7E0F2" points="427,126.1875,465,126.1875,465,150.1875,427,150.1875,415,138.1875" style="stroke: #D7E0F2; stroke-width: 1.5;"/><path d="M465,126.1875 L427,126.1875 L415,138.1875 L427,150.1875 L465,150.1875 " fill="#D7E0F2" style="stroke: #038048; stroke-width: 1.5;"/><text fill="#000000" font-family="sans-serif" font-size="12" lengthAdjust="spacingAndGlyphs" textLength="16" x="82" y="142.3418">e1</text><text fill="#000000" font-family="sans-serif" font-size="12" lengthAdjust="spacingAndGlyphs" textLength="16" x="132" y="142.3418">e2</text><text fill="#000000" font-family="sans-serif" font-size="12" lengthAdjust="spacingAndGlyphs" textLength="16" x="232" y="142.3418">e4</text><text fill="#000000" font-family="sans-serif" font-size="12" lengthAdjust="spacingAndGlyphs" textLength="16" x="282" y="142.3418">e5</text><text fill="#000000" font-family="sans-serif" font-size="12" lengthAdjust="spacingAndGlyphs" textLength="16" x="332" y="142.3418">e3</text><text fill="#000000" font-family="sans-serif" font-size="12" lengthAdjust="spacingAndGlyphs" textLength="16" x="382" y="142.3418">e6</text><text fill="#000000" font-family="sans-serif" font-size="12" lengthAdjust="spacingAndGlyphs" textLength="16" x="427" y="142.3418">e7</text><line style="stroke: #FF0000; stroke-width: 1.0;" x1="165" x2="215" y1="115.5391" y2="115.5391"/><polygon fill="#FF0000" points="172.5175,112.8029,172.5175,118.2752,165,115.5391" style="stroke: #FF0000; stroke-width: 1.0;"/><polygon fill="#FF0000" points="207.4825,118.2752,207.4825,112.8029,215,115.5391" style="stroke: #FF0000; stroke-width: 1.0;"/><text fill="#000000" font-family="Serif" font-size="14" lengthAdjust="spacingAndGlyphs" textLength="26" x="177" y="107.2373">blip</text><line style="stroke: #000000; stroke-width: 2.0;" x1="15" x2="15" y1="160.1875" y2="165.1875"/><line style="stroke: #000000; stroke-width: 2.0;" x1="65" x2="65" y1="160.1875" y2="165.1875"/><line style="stroke: #000000; stroke-width: 2.0;" x1="115" x2="115" y1="160.1875" y2="165.1875"/><line style="stroke: #000000; stroke-width: 2.0;" x1="165" x2="165" y1="160.1875" y2="165.1875"/><line style="stroke: #000000; stroke-width: 2.0;" x1="215" x2="215" y1="160.1875" y2="165.1875"/><line style="stroke: #000000; stroke-width: 2.0;" x1="265" x2="265" y1="160.1875" y2="165.1875"/><line style="stroke: #000000; stroke-width: 2.0;" x1="315" x2="315" y1="160.1875" y2="165.1875"/><line style="stroke: #000000; stroke-width: 2.0;" x1="365" x2="365" y1="160.1875" y2="165.1875"/><line style="stroke: #000000; stroke-width: 2.0;" x1="415" x2="415" y1="160.1875" y2="165.1875"/><line style="stroke: #000000; stroke-width: 2.0;" x1="465" x2="465" y1="160.1875" y2="165.1875"/><line style="stroke: #000000; stroke-width: 2.0;" x1="15" x2="465" y1="160.1875" y2="160.1875"/><text fill="#000000" font-family="sans-serif" font-size="12" lengthAdjust="spacingAndGlyphs" textLength="8" x="11" y="177.3262">0</text><text fill="#000000" font-family="sans-serif" font-size="12" lengthAdjust="spacingAndGlyphs" textLength="16" x="57" y="177.3262">10</text><text fill="#000000" font-family="sans-serif" font-size="12" lengthAdjust="spacingAndGlyphs" textLength="16" x="107" y="177.3262">20</text><text fill="#000000" font-family="sans-serif" font-size="12" lengthAdjust="spacingAndGlyphs" textLength="16" x="157" y="177.3262">30</text><text fill="#000000" font-family="sans-serif" font-size="12" lengthAdjust="spacingAndGlyphs" textLength="16" x="207" y="177.3262">40</text><text fill="#000000" font-family="sans-serif" font-size="12" lengthAdjust="spacingAndGlyphs" textLength="16" x="257" y="177.3262">50</text><text fill="#000000" font-family="sans-serif" font-size="12" lengthAdjust="spacingAndGlyphs" textLength="16" x="307" y="177.3262">60</text><text fill="#000000" font-family="sans-serif" font-size="12" lengthAdjust="spacingAndGlyphs" textLength="16" x="357" y="177.3262">70</text><text fill="#000000" font-family="sans-serif" font-size="12" lengthAdjust="spacingAndGlyphs" textLength="16" x="407" y="177.3262">80</text><line style="stroke: #0000FF; stroke-width: 1.0;" x1="165" x2="365" y1="62.9219" y2="138.1875"/><polygon fill="#0000FF" points="357.0005,138.1006,358.9279,132.9789,365,138.1875" style="stroke: #0000FF; stroke-width: 1.0;"/><text fill="#0000FF" font-family="Serif" font-size="14" lengthAdjust="spacingAndGlyphs" textLength="87" x="357.9642" y="115.9411">Out of order</text><text fill="#0000FF" font-family="Serif" font-size="14" lengthAdjust="spacingAndGlyphs" textLength="0" x="361.9642" y="132.238"/><!--MD5=[e2d0342acc35399f1936aace429291ba]
@startuml time2
title Out of Order
concise "Event Time" as Client
concise "System Time" as Server


@Client
0 is e1
+10 is e2
+10 is e3
+10 is e4
Client -> Server@+40 : Out of order\n
+10 is e5
+10 is e6
+10 is e7
+10 is e8
+10 is e9


@Server
0 is {-}
+10 is e1
+10 is e2
+10 is {-}
+10 is e4
+10 is e5
+10 is e3
+10 is e6
+10 is e7
@30 <-> @40 : blip

@enduml

PlantUML version 1.2020.07(Sun Apr 19 04:42:40 PDT 2020)
(GPL source distribution)
Java Runtime: OpenJDK Runtime Environment
JVM: OpenJDK 64-Bit Server VM
Java Version: 1.8.0_252-b09
Operating System: Linux
Default Encoding: UTF-8
Language: en
Country: CA
--></g></svg>