<?xml version="1.0" encoding="UTF-8" standalone="no"?><svg xmlns="http://www.w3.org/2000/svg" xmlns:xlink="http://www.w3.org/1999/xlink" contentStyleType="text/css" height="136px" preserveAspectRatio="none" style="width:545px;height:136px;background:#FFFFFF;" version="1.1" viewBox="0 0 545 136" width="545px" zoomAndPan="magnify"><defs/><g><!--cluster e--><g id="cluster_e"><rect fill="none" height="103" rx="2.5" ry="2.5" style="stroke:#181818;stroke-width:1.0;" width="201" x="173" y="7"/><text fill="#000000" font-family="sans-serif" font-size="14" font-style="italic" lengthAdjust="spacing" textLength="77" x="235" y="21.9951">«sandbox»</text><text fill="#000000" font-family="sans-serif" font-size="14" font-weight="bold" lengthAdjust="spacing" textLength="53" x="247" y="38.292">Engine</text></g><!--entity t--><g id="elem_t"><rect fill="#F1F1F1" height="36.2969" rx="2.5" ry="2.5" style="stroke:#181818;stroke-width:0.5;" width="169" x="189" y="58"/><text fill="#000000" font-family="sans-serif" font-size="14" lengthAdjust="spacing" textLength="149" x="199" y="80.9951">Transformation Query</text></g><!--entity i1--><g id="elem_i1"><rect fill="#F1F1F1" height="36.2969" rx="2.5" ry="2.5" style="stroke:#181818;stroke-width:0.5;" width="121" x="7.5" y="23"/><text fill="#000000" font-family="sans-serif" font-size="14" lengthAdjust="spacing" textLength="101" x="17.5" y="45.9951">Input Stream 1</text></g><!--entity i2--><g id="elem_i2"><rect fill="#F1F1F1" height="36.2969" rx="2.5" ry="2.5" style="stroke:#181818;stroke-width:0.5;" width="122" x="7" y="94"/><text fill="#000000" font-family="sans-serif" font-size="14" lengthAdjust="spacing" textLength="102" x="17" y="116.9951">Input Stream N</text></g><!--entity o--><g id="elem_o"><rect fill="#F1F1F1" height="36.2969" rx="2.5" ry="2.5" style="stroke:#181818;stroke-width:0.5;" width="121" x="418" y="58"/><text fill="#000000" font-family="sans-serif" font-size="14" lengthAdjust="spacing" textLength="101" x="428" y="80.9951">Output Stream</text></g><!--link i1 to t--><g id="link_i1_t"><path d="M128.68,51.26 C145.83,54.21 164.92,57.5 183.44,60.68 " fill="none" id="i1-to-t" style="stroke:#181818;stroke-width:1.0;"/><polygon fill="#181818" points="188.65,61.58,180.4557,56.1162,183.722,60.7348,179.1033,64.001,188.65,61.58" style="stroke:#181818;stroke-width:1.0;"/></g><!--link i2 to t--><g id="link_i2_t"><path d="M129.23,101.34 C146.26,98.33 165.17,94.99 183.52,91.74 " fill="none" id="i2-to-t" style="stroke:#181818;stroke-width:1.0;"/><polygon fill="#181818" points="188.67,90.83,179.1098,88.4629,183.7468,91.703,180.5067,96.34,188.67,90.83" style="stroke:#181818;stroke-width:1.0;"/></g><!--link t to o--><g id="link_t_o"><path d="M358.24,76 C376.35,76 395.24,76 412.51,76 " fill="none" id="t-to-o" style="stroke:#181818;stroke-width:1.0;"/><polygon fill="#181818" points="417.81,76,408.81,72,412.81,76,408.81,80,417.81,76" style="stroke:#181818;stroke-width:1.0;"/></g><!--SRC=[TSwn3e9030RWlK_nXvtXcCbj3YuQeozmIi4cq3D7Bz4Otrr04rdiqd_uyhSzjmQBID9T3OqalfX49Pf3qAvd55kzPSFH4eS1ha0O8Uuls7r0jG8RxKGPTJq6RSxnxlrC64_2DAkYKmewjZ4DONu2XypfiTGPlTO7zzb-5nSGYSIXBFr4fVe6MtQaDm00]--></g></svg>